BoonThing-400.ufo
<glyph name="quotedbl" format="1">
  <advance width="510"/>
  <unicode hex="0022"/>
  <outline>
    <contour>
      <point x="347" y="838" type="curve" smooth="yes"/>
      <point x="366" y="839" type="line" smooth="yes"/>
      <point x="367" y="839"/>
      <point x="367" y="839"/>
      <point x="368" y="839" type="curve" smooth="yes"/>
      <point x="389" y="839"/>
      <point x="403" y="827"/>
      <point x="403" y="814" type="curve" smooth="yes"/>
      <point x="402" y="726"/>
      <point x="397" y="620"/>
      <point x="391" y="586" type="curve" smooth="yes"/>
      <point x="389" y="571"/>
      <point x="362" y="553"/>
      <point x="340" y="553" type="curve" smooth="yes"/>
      <point x="326" y="553"/>
      <point x="315" y="560"/>
      <point x="313" y="579" type="curve" smooth="yes"/>
      <point x="309" y="621"/>
      <point x="309" y="718"/>
      <point x="304" y="804" type="curve" smooth="yes"/>
      <point x="304" y="805"/>
      <point x="304" y="805"/>
      <point x="304" y="806" type="curve" smooth="yes"/>
      <point x="304" y="818"/>
      <point x="315" y="836"/>
    </contour>
    <contour>
      <point x="150" y="836" type="curve" smooth="yes"/>
      <point x="169" y="837" type="line" smooth="yes"/>
      <point x="170" y="837"/>
      <point x="170" y="837"/>
      <point x="171" y="837" type="curve" smooth="yes"/>
      <point x="192" y="837"/>
      <point x="206" y="825"/>
      <point x="206" y="812" type="curve" smooth="yes"/>
      <point x="205" y="724"/>
      <point x="204" y="616"/>
      <point x="198" y="581" type="curve" smooth="yes"/>
      <point x="196" y="566"/>
      <point x="169" y="548"/>
      <point x="147" y="548" type="curve" smooth="yes"/>
      <point x="133" y="548"/>
      <point x="122" y="555"/>
      <point x="120" y="574" type="curve" smooth="yes"/>
      <point x="116" y="615"/>
      <point x="112" y="715"/>
      <point x="107" y="802" type="curve" smooth="yes"/>
      <point x="107" y="803"/>
      <point x="107" y="803"/>
      <point x="107" y="804" type="curve" smooth="yes"/>
      <point x="107" y="816"/>
      <point x="118" y="834"/>
    </contour>
  </outline>
</glyph>
<glyph name="ampersand" format="1">
  <advance width="800"/>
  <unicode hex="0026"/>
  <outline>
    <contour>
      <point x="352" y="475" type="curve"/>
      <point x="403" y="519"/>
      <point x="436" y="575"/>
      <point x="446" y="624" type="curve" smooth="yes"/>
      <point x="448" y="636"/>
      <point x="450" y="647"/>
      <point x="450" y="657" type="curve" smooth="yes"/>
      <point x="450" y="708"/>
      <point x="420" y="734"/>
      <point x="373" y="734" type="curve" smooth="yes"/>
      <point x="360" y="734"/>
      <point x="352" y="732"/>
      <point x="346" y="730" type="curve" smooth="yes"/>
      <point x="323" y="721"/>
      <point x="306" y="681"/>
      <point x="306" y="629" type="curve" smooth="yes"/>
      <point x="306" y="584"/>
      <point x="319" y="529"/>
    </contour>
    <contour>
      <point x="659" y="399" type="curve" smooth="yes"/>
      <point x="685" y="399"/>
      <point x="705" y="384"/>
      <point x="705" y="366" type="curve" smooth="yes"/>
      <point x="705" y="364"/>
      <point x="704" y="362"/>
      <point x="704" y="360" type="curve" smooth="yes"/>
      <point x="690" y="298"/>
      <point x="667" y="226"/>
      <point x="627" y="161" type="curve"/>
      <point x="670" y="115"/>
      <point x="712" y="71"/>
      <point x="751" y="34" type="curve" smooth="yes"/>
      <point x="757" y="29"/>
      <point x="759" y="23"/>
      <point x="759" y="16" type="curve" smooth="yes"/>
      <point x="759" y="5"/>
      <point x="752" y="-8"/>
      <point x="738" y="-16" type="curve" smooth="yes"/>
      <point x="728" y="-22"/>
      <point x="715" y="-25"/>
      <point x="703" y="-25" type="curve" smooth="yes"/>
      <point x="690" y="-25"/>
      <point x="677" y="-21"/>
      <point x="669" y="-14" type="curve" smooth="yes"/>
      <point x="638" y="16"/>
      <point x="604" y="49"/>
      <point x="570" y="85" type="curve"/>
      <point x="507" y="18"/>
      <point x="421" y="-29"/>
      <point x="302" y="-29" type="curve" smooth="yes"/>
      <point x="153" y="-29"/>
      <point x="66" y="51"/>
      <point x="66" y="154" type="curve" smooth="yes"/>
      <point x="66" y="258"/>
      <point x="171" y="341"/>
      <point x="274" y="417" type="curve"/>
      <point x="232" y="476"/>
      <point x="202" y="555"/>
      <point x="202" y="626" type="curve" smooth="yes"/>
      <point x="202" y="691"/>
      <point x="227" y="751"/>
      <point x="294" y="785" type="curve" smooth="yes"/>
      <point x="321" y="799"/>
      <point x="354" y="806"/>
      <point x="387" y="806" type="curve" smooth="yes"/>
      <point x="503" y="806"/>
      <point x="548" y="737"/>
      <point x="548" y="664" type="curve" smooth="yes"/>
      <point x="548" y="651"/>
      <point x="547" y="637"/>
      <point x="544" y="624" type="curve" smooth="yes"/>
      <point x="530" y="554"/>
      <point x="483" y="478"/>
      <point x="404" y="418" type="curve" smooth="yes"/>
      <point x="402" y="417"/>
      <point x="401" y="415"/>
      <point x="399" y="414" type="curve"/>
      <point x="442" y="365"/>
      <point x="497" y="302"/>
      <point x="556" y="237" type="curve"/>
      <point x="573" y="275"/>
      <point x="587" y="317"/>
      <point x="596" y="360" type="curve" smooth="yes"/>
      <point x="601" y="381"/>
      <point x="630" y="399"/>
    </contour>
    <contour>
      <point x="507" y="153" type="curve"/>
      <point x="440" y="226"/>
      <point x="373" y="300"/>
      <point x="323" y="358" type="curve"/>
      <point x="233" y="286"/>
      <point x="174" y="228"/>
      <point x="174" y="166" type="curve" smooth="yes"/>
      <point x="174" y="93"/>
      <point x="229" y="49"/>
      <point x="318" y="49" type="curve" smooth="yes"/>
      <point x="395" y="49"/>
      <point x="459" y="90"/>
    </contour>
  </outline>
</glyph>
<glyph name="parenleft" format="1">
  <advance width="360"/>
  <unicode hex="0028"/>
  <outline>
    <contour>
      <point x="262" y="-105" type="curve" smooth="yes"/>
      <point x="253" y="-110"/>
      <point x="244" y="-112"/>
      <point x="235" y="-112" type="curve" smooth="yes"/>
      <point x="224" y="-112"/>
      <point x="214" y="-108"/>
      <point x="207" y="-100" type="curve" smooth="yes"/>
      <point x="149" y="-35"/>
      <point x="55" y="149"/>
      <point x="55" y="415" type="curve" smooth="yes"/>
      <point x="55" y="617"/>
      <point x="116" y="769"/>
      <point x="209" y="874" type="curve" smooth="yes"/>
      <point x="219" y="885"/>
      <point x="234" y="892"/>
      <point x="249" y="892" type="curve" smooth="yes"/>
      <point x="255" y="892"/>
      <point x="260" y="891"/>
      <point x="266" y="889" type="curve" smooth="yes"/>
      <point x="277" y="885"/>
      <point x="281" y="877"/>
      <point x="281" y="869" type="curve" smooth="yes"/>
      <point x="281" y="862"/>
      <point x="278" y="854"/>
      <point x="271" y="846" type="curve" smooth="yes"/>
      <point x="194" y="759"/>
      <point x="145" y="619"/>
      <point x="145" y="425" type="curve" smooth="yes"/>
      <point x="145" y="169"/>
      <point x="227" y="-9"/>
      <point x="273" y="-60" type="curve" smooth="yes"/>
      <point x="278" y="-66"/>
      <point x="280" y="-72"/>
      <point x="280" y="-79" type="curve" smooth="yes"/>
      <point x="280" y="-89"/>
      <point x="275" y="-98"/>
    </contour>
  </outline>
</glyph>
<glyph name="hyphen" format="1">
  <advance width="600"/>
  <unicode hex="002D"/>
  <outline>
    <contour>
      <point x="77" y="349" type="curve" smooth="yes"/>
      <point x="84" y="367"/>
      <point x="108" y="381"/>
      <point x="133" y="381" type="curve" smooth="yes"/>
      <point x="135" y="381"/>
      <point x="136" y="381"/>
      <point x="138" y="381" type="curve" smooth="yes"/>
      <point x="191" y="376"/>
      <point x="259" y="373"/>
      <point x="337" y="373" type="curve" smooth="yes"/>
      <point x="382" y="373"/>
      <point x="430" y="374"/>
      <point x="480" y="376" type="curve" smooth="yes"/>
      <point x="481" y="376"/>
      <point x="481" y="376"/>
      <point x="482" y="376" type="curve" smooth="yes"/>
      <point x="506" y="376"/>
      <point x="524" y="363"/>
      <point x="524" y="346" type="curve" smooth="yes"/>
      <point x="524" y="345"/>
      <point x="524" y="343"/>
      <point x="524" y="342" type="curve" smooth="yes"/>
      <point x="521" y="323"/>
      <point x="497" y="305"/>
      <point x="470" y="304" type="curve" smooth="yes"/>
      <point x="418" y="302"/>
      <point x="369" y="301"/>
      <point x="322" y="301" type="curve" smooth="yes"/>
      <point x="242" y="301"/>
      <point x="170" y="304"/>
      <point x="112" y="309" type="curve" smooth="yes"/>
      <point x="90" y="311"/>
      <point x="75" y="324"/>
      <point x="75" y="340" type="curve" smooth="yes"/>
      <point x="75" y="343"/>
      <point x="76" y="346"/>
    </contour>
  </outline>
</glyph>
<glyph name="period" format="1">
  <advance width="330"/>
  <unicode hex="002E"/>
  <outline>
    <contour>
      <point x="231" y="112" type="curve" smooth="yes"/>
      <point x="233" y="110"/>
      <point x="249" y="95"/>
      <point x="249" y="71" type="curve" smooth="yes"/>
      <point x="249" y="67"/>
      <point x="249" y="62"/>
      <point x="248" y="58" type="curve" smooth="yes"/>
      <point x="243" y="32"/>
      <point x="210" y="-5"/>
      <point x="155" y="-5" type="curve" smooth="yes"/>
      <point x="105" y="-5"/>
      <point x="81" y="26"/>
      <point x="81" y="56" type="curve" smooth="yes"/>
      <point x="81" y="79"/>
      <point x="103" y="132"/>
      <point x="175" y="132" type="curve" smooth="yes"/>
      <point x="181" y="132"/>
      <point x="187" y="131"/>
      <point x="191" y="130" type="curve" smooth="yes"/>
      <point x="207" y="126" type="line" smooth="yes"/>
      <point x="217" y="123"/>
      <point x="226" y="118"/>
    </contour>
  </outline>
</glyph>
<glyph name="slash" format="1">
  <advance width="480"/>
  <unicode hex="002F"/>
  <outline>
    <contour>
      <point x="409" y="828" type="curve" smooth="yes"/>
      <point x="427" y="827"/>
      <point x="439" y="817"/>
      <point x="439" y="804" type="curve" smooth="yes"/>
      <point x="439" y="802"/>
      <point x="439" y="799"/>
      <point x="438" y="797" type="curve" smooth="yes"/>
      <point x="347" y="520"/>
      <point x="244" y="259"/>
      <point x="117" y="-6" type="curve" smooth="yes"/>
      <point x="111" y="-19"/>
      <point x="92" y="-29"/>
      <point x="74" y="-29" type="curve" smooth="yes"/>
      <point x="72" y="-29"/>
      <point x="69" y="-28"/>
      <point x="67" y="-28" type="curve" smooth="yes"/>
      <point x="51" y="-26"/>
      <point x="41" y="-15"/>
      <point x="41" y="-3" type="curve" smooth="yes"/>
      <point x="41" y="0"/>
      <point x="42" y="3"/>
      <point x="43" y="6" type="curve" smooth="yes"/>
      <point x="168" y="269"/>
      <point x="271" y="528"/>
      <point x="362" y="803" type="curve" smooth="yes"/>
      <point x="367" y="818"/>
      <point x="386" y="828"/>
      <point x="406" y="828" type="curve" smooth="yes"/>
      <point x="407" y="828"/>
      <point x="408" y="828"/>
    </contour>
  </outline>
</glyph>
<glyph name="one" format="1">
  <advance width="720"/>
  <unicode hex="0031"/>
  <outline>
    <contour>
      <point x="130" y="610" type="curve" smooth="yes"/>
      <point x="127" y="614"/>
      <point x="126" y="619"/>
      <point x="126" y="624" type="curve" smooth="yes"/>
      <point x="126" y="639"/>
      <point x="139" y="656"/>
      <point x="159" y="664" type="curve" smooth="yes"/>
      <point x="239" y="696"/>
      <point x="321" y="733"/>
      <point x="384" y="791" type="curve" smooth="yes"/>
      <point x="384" y="791"/>
      <point x="420" y="812"/>
      <point x="448" y="812" type="curve" smooth="yes"/>
      <point x="465" y="812"/>
      <point x="479" y="804"/>
      <point x="479" y="778" type="curve" smooth="yes"/>
      <point x="479" y="777"/>
      <point x="479" y="776"/>
      <point x="479" y="775" type="curve" smooth="yes"/>
      <point x="474" y="635"/>
      <point x="472" y="534"/>
      <point x="472" y="440" type="curve" smooth="yes"/>
      <point x="472" y="331"/>
      <point x="475" y="232"/>
      <point x="479" y="97" type="curve"/>
      <point x="480" y="74"/>
      <point x="547" y="84"/>
      <point x="649" y="68" type="curve" smooth="yes"/>
      <point x="656" y="67"/>
      <point x="687" y="41"/>
      <point x="687" y="19" type="curve" smooth="yes"/>
      <point x="687" y="4"/>
      <point x="672" y="-9"/>
      <point x="623" y="-9" type="curve" smooth="yes"/>
      <point x="622" y="-9"/>
      <point x="622" y="-9"/>
      <point x="621" y="-9" type="curve" smooth="yes"/>
      <point x="596" y="-9"/>
      <point x="572" y="-9"/>
      <point x="549" y="-9" type="curve" smooth="yes"/>
      <point x="421" y="-9"/>
      <point x="322" y="-13"/>
      <point x="175" y="-19" type="curve" smooth="yes"/>
      <point x="174" y="-19"/>
      <point x="173" y="-19"/>
      <point x="172" y="-19" type="curve" smooth="yes"/>
      <point x="145" y="-19"/>
      <point x="126" y="-5"/>
      <point x="126" y="14" type="curve" smooth="yes"/>
      <point x="126" y="15"/>
      <point x="126" y="17"/>
      <point x="126" y="18" type="curve" smooth="yes"/>
      <point x="129" y="39"/>
      <point x="155" y="58"/>
      <point x="185" y="59" type="curve" smooth="yes"/>
      <point x="255" y="62"/>
      <point x="314" y="65"/>
      <point x="373" y="67" type="curve"/>
      <point x="372" y="71"/>
      <point x="371" y="77"/>
      <point x="371" y="83" type="curve" smooth="yes"/>
      <point x="367" y="219"/>
      <point x="364" y="318"/>
      <point x="364" y="429" type="curve" smooth="yes"/>
      <point x="364" y="502"/>
      <point x="365" y="579"/>
      <point x="368" y="676" type="curve"/>
      <point x="312" y="642"/>
      <point x="253" y="617"/>
      <point x="201" y="596" type="curve" smooth="yes"/>
      <point x="192" y="592"/>
      <point x="183" y="591"/>
      <point x="174" y="591" type="curve" smooth="yes"/>
      <point x="155" y="591"/>
      <point x="137" y="598"/>
    </contour>
  </outline>
</glyph>
<glyph name="two" format="1">
  <advance width="720"/>
  <unicode hex="0032"/>
  <outline>
    <contour>
      <point x="111" y="622" type="curve" smooth="yes"/>
      <point x="92" y="626"/>
      <point x="81" y="639"/>
      <point x="81" y="654" type="curve" smooth="yes"/>
      <point x="81" y="660"/>
      <point x="82" y="666"/>
      <point x="86" y="672" type="curve" smooth="yes"/>
      <point x="137" y="754"/>
      <point x="235" y="806"/>
      <point x="335" y="817" type="curve" smooth="yes"/>
      <point x="348" y="818"/>
      <point x="360" y="819"/>
      <point x="373" y="819" type="curve" smooth="yes"/>
      <point x="502" y="819"/>
      <point x="609" y="745"/>
      <point x="609" y="606" type="curve" smooth="yes"/>
      <point x="609" y="355"/>
      <point x="193" y="261"/>
      <point x="180" y="81" type="curve"/>
      <point x="206" y="74"/>
      <point x="262" y="71"/>
      <point x="328" y="71" type="curve" smooth="yes"/>
      <point x="418" y="71"/>
      <point x="526" y="76"/>
      <point x="595" y="84" type="curve" smooth="yes"/>
      <point x="598" y="84"/>
      <point x="601" y="84"/>
      <point x="603" y="84" type="curve" smooth="yes"/>
      <point x="629" y="84"/>
      <point x="649" y="70"/>
      <point x="649" y="51" type="curve" smooth="yes"/>
      <point x="649" y="30"/>
      <point x="625" y="9"/>
      <point x="595" y="6" type="curve" smooth="yes"/>
      <point x="524" y="-1"/>
      <point x="408" y="-13"/>
      <point x="303" y="-13" type="curve" smooth="yes"/>
      <point x="207" y="-13"/>
      <point x="120" y="-3"/>
      <point x="86" y="28" type="curve" smooth="yes"/>
      <point x="78" y="36"/>
      <point x="71" y="46"/>
      <point x="71" y="59" type="curve" smooth="yes"/>
      <point x="71" y="320"/>
      <point x="501" y="406"/>
      <point x="501" y="594" type="curve" smooth="yes"/>
      <point x="501" y="703"/>
      <point x="426" y="740"/>
      <point x="356" y="740" type="curve" smooth="yes"/>
      <point x="349" y="740"/>
      <point x="342" y="740"/>
      <point x="335" y="739" type="curve" smooth="yes"/>
      <point x="279" y="733"/>
      <point x="219" y="703"/>
      <point x="184" y="648" type="curve" smooth="yes"/>
      <point x="173" y="632"/>
      <point x="149" y="620"/>
      <point x="126" y="620" type="curve" smooth="yes"/>
      <point x="121" y="620"/>
      <point x="116" y="621"/>
    </contour>
  </outline>
</glyph>
<glyph name="six" format="1">
  <advance width="720"/>
  <unicode hex="0036"/>
  <outline>
    <contour>
      <point x="45" y="262" type="curve" smooth="yes"/>
      <point x="36" y="267"/>
      <point x="32" y="274"/>
      <point x="32" y="282" type="curve" smooth="yes"/>
      <point x="32" y="293"/>
      <point x="40" y="304"/>
      <point x="52" y="314" type="curve" smooth="yes"/>
      <point x="62" y="322"/>
      <point x="72" y="330"/>
      <point x="82" y="337" type="curve" smooth="yes"/>
      <point x="86" y="340"/>
      <point x="91" y="343"/>
      <point x="95" y="346" type="curve" smooth="yes"/>
      <point x="96" y="353"/>
      <point x="98" y="361"/>
      <point x="99" y="368" type="curve" smooth="yes"/>
      <point x="127" y="514"/>
      <point x="216" y="677"/>
      <point x="381" y="813" type="curve" smooth="yes"/>
      <point x="394" y="823"/>
      <point x="412" y="829"/>
      <point x="429" y="829" type="curve" smooth="yes"/>
      <point x="440" y="829"/>
      <point x="450" y="827"/>
      <point x="458" y="822" type="curve" smooth="yes"/>
      <point x="469" y="815"/>
      <point x="474" y="805"/>
      <point x="474" y="795" type="curve" smooth="yes"/>
      <point x="474" y="785"/>
      <point x="469" y="775"/>
      <point x="459" y="767" type="curve" smooth="yes"/>
      <point x="333" y="663"/>
      <point x="254" y="539"/>
      <point x="219" y="423" type="curve"/>
      <point x="291" y="458"/>
      <point x="361" y="476"/>
      <point x="423" y="476" type="curve" smooth="yes"/>
      <point x="595" y="476"/>
      <point x="668" y="354"/>
      <point x="668" y="240" type="curve" smooth="yes"/>
      <point x="668" y="222"/>
      <point x="666" y="205"/>
      <point x="663" y="188" type="curve" smooth="yes"/>
      <point x="642" y="85"/>
      <point x="547" y="-29"/>
      <point x="367" y="-29" type="curve" smooth="yes"/>
      <point x="183" y="-29"/>
      <point x="97" y="103"/>
      <point x="90" y="251" type="curve"/>
      <point x="89" y="251"/>
      <point x="87" y="251"/>
      <point x="86" y="251" type="curve" smooth="yes"/>
      <point x="72" y="251"/>
      <point x="55" y="256"/>
    </contour>
    <contour>
      <point x="199" y="318" type="curve"/>
      <point x="199" y="314"/>
      <point x="199" y="310"/>
      <point x="199" y="306" type="curve" smooth="yes"/>
      <point x="199" y="299"/>
      <point x="198" y="292"/>
      <point x="198" y="285" type="curve" smooth="yes"/>
      <point x="198" y="137"/>
      <point x="278" y="49"/>
      <point x="383" y="49" type="curve" smooth="yes"/>
      <point x="481" y="49"/>
      <point x="539" y="103"/>
      <point x="556" y="187" type="curve" smooth="yes"/>
      <point x="559" y="201"/>
      <point x="560" y="215"/>
      <point x="560" y="228" type="curve" smooth="yes"/>
      <point x="560" y="320"/>
      <point x="496" y="397"/>
      <point x="407" y="397" type="curve" smooth="yes"/>
      <point x="364" y="397"/>
      <point x="303" y="382"/>
      <point x="221" y="332" type="curve" smooth="yes"/>
      <point x="214" y="328"/>
      <point x="206" y="323"/>
    </contour>
  </outline>
</glyph>
<glyph name="seven" format="1">
  <advance width="720"/>
  <unicode hex="0037"/>
  <outline>
    <contour>
      <point x="368" y="794" type="curve" smooth="yes"/>
      <point x="470" y="794"/>
      <point x="538" y="800"/>
      <point x="603" y="804" type="curve" smooth="yes"/>
      <point x="603" y="804"/>
      <point x="608" y="805"/>
      <point x="615" y="805" type="curve" smooth="yes"/>
      <point x="631" y="805"/>
      <point x="658" y="801"/>
      <point x="658" y="779" type="curve" smooth="yes"/>
      <point x="658" y="773"/>
      <point x="656" y="766"/>
      <point x="651" y="756" type="curve" smooth="yes"/>
      <point x="521" y="509"/>
      <point x="451" y="325"/>
      <point x="383" y="19" type="curve" smooth="yes"/>
      <point x="378" y="-2"/>
      <point x="349" y="-19"/>
      <point x="320" y="-19" type="curve" smooth="yes"/>
      <point x="294" y="-19"/>
      <point x="274" y="-3"/>
      <point x="274" y="15" type="curve" smooth="yes"/>
      <point x="274" y="17"/>
      <point x="275" y="19"/>
      <point x="275" y="21" type="curve" smooth="yes"/>
      <point x="339" y="309"/>
      <point x="407" y="494"/>
      <point x="522" y="721" type="curve"/>
      <point x="475" y="718"/>
      <point x="420" y="716"/>
      <point x="352" y="716" type="curve" smooth="yes"/>
      <point x="291" y="716"/>
      <point x="232" y="722"/>
      <point x="182" y="725" type="curve"/>
      <point x="191" y="689"/>
      <point x="202" y="646"/>
      <point x="209" y="599" type="curve" smooth="yes"/>
      <point x="209" y="598"/>
      <point x="209" y="596"/>
      <point x="209" y="595" type="curve" smooth="yes"/>
      <point x="209" y="577"/>
      <point x="190" y="560"/>
      <point x="165" y="555" type="curve" smooth="yes"/>
      <point x="161" y="554"/>
      <point x="157" y="554"/>
      <point x="153" y="554" type="curve" smooth="yes"/>
      <point x="131" y="554"/>
      <point x="114" y="565"/>
      <point x="111" y="581" type="curve" smooth="yes"/>
      <point x="100" y="649"/>
      <point x="82" y="709"/>
      <point x="71" y="754" type="curve" smooth="yes"/>
      <point x="71" y="754"/>
      <point x="69" y="759"/>
      <point x="69" y="766" type="curve" smooth="yes"/>
      <point x="69" y="780"/>
      <point x="76" y="801"/>
      <point x="123" y="801" type="curve" smooth="yes"/>
      <point x="125" y="801"/>
      <point x="128" y="801"/>
      <point x="130" y="801" type="curve" smooth="yes"/>
      <point x="178" y="799"/>
      <point x="277" y="794"/>
    </contour>
  </outline>
</glyph>
<glyph name="eight" format="1">
  <advance width="720"/>
  <unicode hex="0038"/>
  <outline>
    <contour>
      <point x="242" y="428" type="curve"/>
      <point x="135" y="476"/>
      <point x="87" y="545"/>
      <point x="87" y="613" type="curve" smooth="yes"/>
      <point x="87" y="623"/>
      <point x="88" y="633"/>
      <point x="90" y="643" type="curve" smooth="yes"/>
      <point x="108" y="734"/>
      <point x="214" y="819"/>
      <point x="348" y="819" type="curve" smooth="yes"/>
      <point x="471" y="819"/>
      <point x="548" y="764"/>
      <point x="588" y="713" type="curve" smooth="yes"/>
      <point x="592" y="708"/>
      <point x="594" y="702"/>
      <point x="594" y="696" type="curve" smooth="yes"/>
      <point x="594" y="682"/>
      <point x="583" y="667"/>
      <point x="565" y="658" type="curve" smooth="yes"/>
      <point x="555" y="653"/>
      <point x="544" y="651"/>
      <point x="533" y="651" type="curve" smooth="yes"/>
      <point x="516" y="651"/>
      <point x="501" y="657"/>
      <point x="492" y="667" type="curve" smooth="yes"/>
      <point x="460" y="706"/>
      <point x="407" y="741"/>
      <point x="332" y="741" type="curve" smooth="yes"/>
      <point x="268" y="741"/>
      <point x="209" y="700"/>
      <point x="197" y="643" type="curve" smooth="yes"/>
      <point x="196" y="637"/>
      <point x="195" y="631"/>
      <point x="195" y="625" type="curve" smooth="yes"/>
      <point x="195" y="579"/>
      <point x="229" y="525"/>
      <point x="333" y="486" type="curve"/>
      <point x="341" y="491"/>
      <point x="348" y="497"/>
      <point x="356" y="502" type="curve"/>
      <point x="460" y="569"/>
      <point x="516" y="607"/>
      <point x="516" y="607" type="curve" smooth="yes"/>
      <point x="528" y="615"/>
      <point x="543" y="620"/>
      <point x="558" y="620" type="curve" smooth="yes"/>
      <point x="571" y="620"/>
      <point x="584" y="616"/>
      <point x="593" y="609" type="curve" smooth="yes"/>
      <point x="601" y="603"/>
      <point x="604" y="595"/>
      <point x="604" y="587" type="curve" smooth="yes"/>
      <point x="604" y="575"/>
      <point x="597" y="563"/>
      <point x="585" y="554" type="curve"/>
      <point x="583" y="552"/>
      <point x="532" y="517"/>
      <point x="436" y="455" type="curve"/>
      <point x="586" y="405"/>
      <point x="659" y="307"/>
      <point x="659" y="211" type="curve" smooth="yes"/>
      <point x="659" y="167"/>
      <point x="644" y="124"/>
      <point x="614" y="86" type="curve" smooth="yes"/>
      <point x="563" y="21"/>
      <point x="468" y="-24"/>
      <point x="352" y="-24" type="curve" smooth="yes"/>
      <point x="173" y="-24"/>
      <point x="76" y="86"/>
      <point x="76" y="188" type="curve" smooth="yes"/>
      <point x="76" y="293"/>
      <point x="152" y="367"/>
    </contour>
    <contour>
      <point x="340" y="394" type="curve" smooth="yes"/>
      <point x="241" y="329"/>
      <point x="184" y="283"/>
      <point x="184" y="200" type="curve" smooth="yes"/>
      <point x="184" y="128"/>
      <point x="255" y="54"/>
      <point x="368" y="54" type="curve" smooth="yes"/>
      <point x="451" y="54"/>
      <point x="500" y="84"/>
      <point x="528" y="127" type="curve" smooth="yes"/>
      <point x="542" y="148"/>
      <point x="549" y="174"/>
      <point x="549" y="200" type="curve" smooth="yes"/>
      <point x="549" y="274"/>
      <point x="491" y="357"/>
      <point x="346" y="393" type="curve"/>
      <point x="344" y="393"/>
      <point x="342" y="394"/>
    </contour>
  </outline>
</glyph>
<glyph name="nine" format="1">
  <advance width="720"/>
  <unicode hex="0039"/>
  <outline>
    <contour>
      <point x="675" y="538" type="curve" smooth="yes"/>
      <point x="684" y="533"/>
      <point x="688" y="526"/>
      <point x="688" y="518" type="curve" smooth="yes"/>
      <point x="688" y="507"/>
      <point x="680" y="496"/>
      <point x="668" y="486" type="curve" smooth="yes"/>
      <point x="658" y="478"/>
      <point x="648" y="470"/>
      <point x="638" y="463" type="curve" smooth="yes"/>
      <point x="634" y="460"/>
      <point x="629" y="457"/>
      <point x="625" y="454" type="curve" smooth="yes"/>
      <point x="624" y="447"/>
      <point x="622" y="439"/>
      <point x="621" y="432" type="curve" smooth="yes"/>
      <point x="593" y="286"/>
      <point x="504" y="123"/>
      <point x="339" y="-13" type="curve" smooth="yes"/>
      <point x="326" y="-23"/>
      <point x="308" y="-29"/>
      <point x="291" y="-29" type="curve" smooth="yes"/>
      <point x="280" y="-29"/>
      <point x="270" y="-27"/>
      <point x="262" y="-22" type="curve" smooth="yes"/>
      <point x="251" y="-15"/>
      <point x="246" y="-5"/>
      <point x="246" y="5" type="curve" smooth="yes"/>
      <point x="246" y="15"/>
      <point x="251" y="25"/>
      <point x="261" y="33" type="curve" smooth="yes"/>
      <point x="387" y="137"/>
      <point x="466" y="261"/>
      <point x="501" y="377" type="curve"/>
      <point x="429" y="342"/>
      <point x="359" y="324"/>
      <point x="297" y="324" type="curve" smooth="yes"/>
      <point x="125" y="324"/>
      <point x="52" y="446"/>
      <point x="52" y="560" type="curve" smooth="yes"/>
      <point x="52" y="578"/>
      <point x="54" y="595"/>
      <point x="57" y="612" type="curve" smooth="yes"/>
      <point x="78" y="715"/>
      <point x="173" y="829"/>
      <point x="353" y="829" type="curve" smooth="yes"/>
      <point x="537" y="829"/>
      <point x="623" y="697"/>
      <point x="630" y="549" type="curve"/>
      <point x="631" y="549"/>
      <point x="633" y="549"/>
      <point x="634" y="549" type="curve" smooth="yes"/>
      <point x="648" y="549"/>
      <point x="665" y="544"/>
    </contour>
    <contour>
      <point x="521" y="482" type="curve"/>
      <point x="521" y="486"/>
      <point x="521" y="490"/>
      <point x="521" y="494" type="curve" smooth="yes"/>
      <point x="521" y="501"/>
      <point x="522" y="508"/>
      <point x="522" y="515" type="curve" smooth="yes"/>
      <point x="522" y="663"/>
      <point x="442" y="751"/>
      <point x="337" y="751" type="curve" smooth="yes"/>
      <point x="239" y="751"/>
      <point x="181" y="697"/>
      <point x="164" y="613" type="curve" smooth="yes"/>
      <point x="161" y="599"/>
      <point x="160" y="585"/>
      <point x="160" y="572" type="curve" smooth="yes"/>
      <point x="160" y="480"/>
      <point x="224" y="403"/>
      <point x="313" y="403" type="curve" smooth="yes"/>
      <point x="356" y="403"/>
      <point x="417" y="418"/>
      <point x="499" y="468" type="curve" smooth="yes"/>
      <point x="506" y="472"/>
      <point x="514" y="477"/>
    </contour>
  </outline>
</glyph>
<glyph name="less" format="1">
  <advance width="600"/>
  <unicode hex="003C"/>
  <outline>
    <contour>
      <point x="521" y="80" type="curve" smooth="yes"/>
      <point x="510" y="70"/>
      <point x="494" y="65"/>
      <point x="478" y="65" type="curve" smooth="yes"/>
      <point x="468" y="65"/>
      <point x="459" y="67"/>
      <point x="451" y="71" type="curve" smooth="yes"/>
      <point x="368" y="118"/>
      <point x="195" y="229"/>
      <point x="78" y="313" type="curve" smooth="yes"/>
      <point x="72" y="317"/>
      <point x="63" y="326"/>
      <point x="63" y="337" type="curve" smooth="yes"/>
      <point x="63" y="346"/>
      <point x="69" y="356"/>
      <point x="89" y="367" type="curve" smooth="yes"/>
      <point x="196" y="426"/>
      <point x="356" y="540"/>
      <point x="443" y="603" type="curve" smooth="yes"/>
      <point x="454" y="611"/>
      <point x="468" y="616"/>
      <point x="482" y="616" type="curve" smooth="yes"/>
      <point x="493" y="616"/>
      <point x="504" y="613"/>
      <point x="512" y="607" type="curve" smooth="yes"/>
      <point x="520" y="601"/>
      <point x="524" y="594"/>
      <point x="524" y="586" type="curve" smooth="yes"/>
      <point x="524" y="576"/>
      <point x="518" y="565"/>
      <point x="507" y="557" type="curve" smooth="yes"/>
      <point x="430" y="501"/>
      <point x="301" y="407"/>
      <point x="190" y="341" type="curve"/>
      <point x="301" y="264"/>
      <point x="449" y="169"/>
      <point x="519" y="129" type="curve" smooth="yes"/>
      <point x="529" y="123"/>
      <point x="534" y="115"/>
      <point x="534" y="106" type="curve" smooth="yes"/>
      <point x="534" y="97"/>
      <point x="530" y="88"/>
    </contour>
  </outline>
</glyph>
<glyph name="greater" format="1">
  <advance width="600"/>
  <unicode hex="003E"/>
  <outline>
    <contour>
      <point x="79" y="600" type="curve" smooth="yes"/>
      <point x="90" y="610"/>
      <point x="106" y="615"/>
      <point x="122" y="615" type="curve" smooth="yes"/>
      <point x="132" y="615"/>
      <point x="141" y="613"/>
      <point x="149" y="609" type="curve" smooth="yes"/>
      <point x="232" y="562"/>
      <point x="405" y="451"/>
      <point x="522" y="367" type="curve" smooth="yes"/>
      <point x="528" y="363"/>
      <point x="537" y="354"/>
      <point x="537" y="343" type="curve" smooth="yes"/>
      <point x="537" y="334"/>
      <point x="531" y="324"/>
      <point x="511" y="313" type="curve" smooth="yes"/>
      <point x="404" y="254"/>
      <point x="244" y="140"/>
      <point x="157" y="77" type="curve" smooth="yes"/>
      <point x="146" y="69"/>
      <point x="132" y="64"/>
      <point x="118" y="64" type="curve" smooth="yes"/>
      <point x="107" y="64"/>
      <point x="96" y="67"/>
      <point x="88" y="73" type="curve" smooth="yes"/>
      <point x="80" y="79"/>
      <point x="76" y="86"/>
      <point x="76" y="94" type="curve" smooth="yes"/>
      <point x="76" y="104"/>
      <point x="82" y="115"/>
      <point x="93" y="123" type="curve" smooth="yes"/>
      <point x="170" y="179"/>
      <point x="299" y="273"/>
      <point x="410" y="339" type="curve"/>
      <point x="299" y="416"/>
      <point x="151" y="511"/>
      <point x="81" y="551" type="curve" smooth="yes"/>
      <point x="71" y="557"/>
      <point x="66" y="565"/>
      <point x="66" y="574" type="curve" smooth="yes"/>
      <point x="66" y="583"/>
      <point x="70" y="592"/>
    </contour>
  </outline>
</glyph>
<glyph name="D" format="1">
  <advance width="810"/>
  <unicode hex="0044"/>
  <outline>
    <contour>
      <point x="380" y="0" type="move" name="LatinBelow.mark"/>
    </contour>
    <contour>
      <point x="380" y="180" type="move" name="LatinAbove.mark"/>
    </contour>
    <contour>
      <point x="34" y="675" type="curve" smooth="yes"/>
      <point x="28" y="681"/>
      <point x="26" y="687"/>
      <point x="26" y="694" type="curve" smooth="yes"/>
      <point x="26" y="707"/>
      <point x="35" y="721"/>
      <point x="51" y="730" type="curve" smooth="yes"/>
      <point x="125" y="771"/>
      <point x="206" y="800"/>
      <point x="287" y="813" type="curve" smooth="yes"/>
      <point x="317" y="818"/>
      <point x="346" y="820"/>
      <point x="375" y="820" type="curve" smooth="yes"/>
      <point x="562" y="820"/>
      <point x="711" y="717"/>
      <point x="734" y="494" type="curve" smooth="yes"/>
      <point x="737" y="465"/>
      <point x="739" y="438"/>
      <point x="739" y="412" type="curve" smooth="yes"/>
      <point x="739" y="123"/>
      <point x="550" y="1"/>
      <point x="370" y="-18" type="curve" smooth="yes"/>
      <point x="351" y="-20"/>
      <point x="332" y="-21"/>
      <point x="313" y="-21" type="curve" smooth="yes"/>
      <point x="228" y="-21"/>
      <point x="151" y="-1"/>
      <point x="127" y="42" type="curve" smooth="yes"/>
      <point x="123" y="48"/>
      <point x="121" y="56"/>
      <point x="121" y="64" type="curve" smooth="yes"/>
      <point x="121" y="118"/>
      <point x="125" y="247"/>
      <point x="125" y="369" type="curve" smooth="yes"/>
      <point x="125" y="458"/>
      <point x="123" y="544"/>
      <point x="116" y="596" type="curve"/>
      <point x="116" y="600" type="line" smooth="yes"/>
      <point x="116" y="620"/>
      <point x="138" y="638"/>
      <point x="165" y="643" type="curve" smooth="yes"/>
      <point x="169" y="644"/>
      <point x="173" y="644"/>
      <point x="177" y="644" type="curve" smooth="yes"/>
      <point x="201" y="644"/>
      <point x="221" y="632"/>
      <point x="224" y="614" type="curve" smooth="yes"/>
      <point x="231" y="560"/>
      <point x="233" y="475"/>
      <point x="233" y="388" type="curve" smooth="yes"/>
      <point x="233" y="265"/>
      <point x="229" y="137"/>
      <point x="229" y="80" type="curve"/>
      <point x="241" y="70"/>
      <point x="282" y="59"/>
      <point x="333" y="59" type="curve" smooth="yes"/>
      <point x="386" y="59"/>
      <point x="449" y="70"/>
      <point x="502" y="106" type="curve" smooth="yes"/>
      <point x="568" y="150"/>
      <point x="630" y="236"/>
      <point x="630" y="400" type="curve" smooth="yes"/>
      <point x="630" y="424"/>
      <point x="629" y="449"/>
      <point x="626" y="476" type="curve" smooth="yes"/>
      <point x="605" y="673"/>
      <point x="490" y="742"/>
      <point x="361" y="742" type="curve" smooth="yes"/>
      <point x="339" y="742"/>
      <point x="317" y="740"/>
      <point x="295" y="736" type="curve" smooth="yes"/>
      <point x="235" y="726"/>
      <point x="170" y="704"/>
      <point x="109" y="670" type="curve" smooth="yes"/>
      <point x="98" y="664"/>
      <point x="86" y="661"/>
      <point x="74" y="661" type="curve" smooth="yes"/>
      <point x="58" y="661"/>
      <point x="43" y="666"/>
    </contour>
  </outline>
</glyph>
<glyph name="E" format="1">
  <advance width="740"/>
  <unicode hex="0045"/>
  <outline>
    <contour>
      <point x="684" y="32" type="curve" smooth="yes"/>
      <point x="681" y="11"/>
      <point x="655" y="-8"/>
      <point x="625" y="-9" type="curve" smooth="yes"/>
      <point x="523" y="-13"/>
      <point x="414" y="-24"/>
      <point x="323" y="-24" type="curve" smooth="yes"/>
      <point x="198" y="-24"/>
      <point x="106" y="-3"/>
      <point x="106" y="86" type="curve" smooth="yes"/>
      <point x="106" y="89"/>
      <point x="106" y="93"/>
      <point x="106" y="96" type="curve" smooth="yes"/>
      <point x="111" y="173"/>
      <point x="116" y="261"/>
      <point x="119" y="360" type="curve" smooth="yes"/>
      <point x="115" y="360"/>
      <point x="112" y="361"/>
      <point x="108" y="361" type="curve" smooth="yes"/>
      <point x="83" y="362"/>
      <point x="66" y="377"/>
      <point x="66" y="395" type="curve" smooth="yes"/>
      <point x="66" y="398"/>
      <point x="66" y="400"/>
      <point x="67" y="403" type="curve" smooth="yes"/>
      <point x="72" y="422"/>
      <point x="96" y="437"/>
      <point x="121" y="439" type="curve"/>
      <point x="121" y="469"/>
      <point x="122" y="502"/>
      <point x="122" y="534" type="curve" smooth="yes"/>
      <point x="122" y="566"/>
      <point x="121" y="600"/>
      <point x="121" y="634" type="curve" smooth="yes"/>
      <point x="120" y="703"/>
      <point x="109" y="719"/>
      <point x="86" y="729" type="curve" smooth="yes"/>
      <point x="83" y="730"/>
      <point x="78" y="732"/>
      <point x="73" y="733" type="curve"/>
      <point x="73" y="733"/>
      <point x="72" y="742"/>
      <point x="72" y="754" type="curve" smooth="yes"/>
      <point x="72" y="777"/>
      <point x="77" y="809"/>
      <point x="109" y="809" type="curve" smooth="yes"/>
      <point x="110" y="809"/>
      <point x="110" y="809"/>
      <point x="111" y="809" type="curve" smooth="yes"/>
      <point x="196" y="805"/>
      <point x="271" y="804"/>
      <point x="335" y="804" type="curve" smooth="yes"/>
      <point x="469" y="804"/>
      <point x="557" y="810"/>
      <point x="600" y="814" type="curve" smooth="yes"/>
      <point x="603" y="814"/>
      <point x="606" y="814"/>
      <point x="608" y="814" type="curve" smooth="yes"/>
      <point x="634" y="814"/>
      <point x="654" y="800"/>
      <point x="654" y="781" type="curve" smooth="yes"/>
      <point x="654" y="760"/>
      <point x="630" y="739"/>
      <point x="600" y="736" type="curve" smooth="yes"/>
      <point x="551" y="731"/>
      <point x="463" y="726"/>
      <point x="330" y="726" type="curve" smooth="yes"/>
      <point x="296" y="726"/>
      <point x="259" y="726"/>
      <point x="219" y="727" type="curve"/>
      <point x="226" y="705"/>
      <point x="229" y="677"/>
      <point x="229" y="646" type="curve" smooth="yes"/>
      <point x="229" y="608"/>
      <point x="230" y="572"/>
      <point x="230" y="537" type="curve" smooth="yes"/>
      <point x="230" y="502"/>
      <point x="229" y="468"/>
      <point x="229" y="435" type="curve"/>
      <point x="265" y="434"/>
      <point x="297" y="433"/>
      <point x="329" y="433" type="curve" smooth="yes"/>
      <point x="386" y="433"/>
      <point x="443" y="435"/>
      <point x="524" y="439" type="curve" smooth="yes"/>
      <point x="525" y="439"/>
      <point x="526" y="439"/>
      <point x="527" y="439" type="curve" smooth="yes"/>
      <point x="554" y="439"/>
      <point x="574" y="425"/>
      <point x="574" y="406" type="curve" smooth="yes"/>
      <point x="574" y="405"/>
      <point x="574" y="404"/>
      <point x="574" y="403" type="curve" smooth="yes"/>
      <point x="572" y="382"/>
      <point x="546" y="362"/>
      <point x="516" y="361" type="curve" smooth="yes"/>
      <point x="433" y="357"/>
      <point x="372" y="355"/>
      <point x="311" y="355" type="curve" smooth="yes"/>
      <point x="284" y="355"/>
      <point x="256" y="355"/>
      <point x="227" y="356" type="curve"/>
      <point x="224" y="262"/>
      <point x="219" y="179"/>
      <point x="214" y="104" type="curve" smooth="yes"/>
      <point x="214" y="103"/>
      <point x="214" y="102"/>
      <point x="214" y="101" type="curve" smooth="yes"/>
      <point x="214" y="67"/>
      <point x="247" y="56"/>
      <point x="331" y="56" type="curve" smooth="yes"/>
      <point x="398" y="56"/>
      <point x="496" y="63"/>
      <point x="635" y="69" type="curve" smooth="yes"/>
      <point x="636" y="69"/>
      <point x="637" y="69"/>
      <point x="638" y="69" type="curve" smooth="yes"/>
      <point x="665" y="69"/>
      <point x="684" y="55"/>
      <point x="684" y="36" type="curve" smooth="yes"/>
      <point x="684" y="35"/>
      <point x="684" y="33"/>
    </contour>
  </outline>
</glyph>
<glyph name="H" format="1">
  <advance width="820"/>
  <unicode hex="0048"/>
  <outline>
    <contour>
      <point x="666" y="-9" type="curve" smooth="yes"/>
      <point x="663" y="-9"/>
      <point x="660" y="-10"/>
      <point x="657" y="-10" type="curve" smooth="yes"/>
      <point x="631" y="-10"/>
      <point x="612" y="5"/>
      <point x="611" y="24" type="curve" smooth="yes"/>
      <point x="609" y="107"/>
      <point x="607" y="228"/>
      <point x="606" y="358" type="curve"/>
      <point x="536" y="356"/>
      <point x="460" y="355"/>
      <point x="383" y="355" type="curve" smooth="yes"/>
      <point x="328" y="355"/>
      <point x="273" y="356"/>
      <point x="221" y="357" type="curve"/>
      <point x="221" y="247"/>
      <point x="220" y="134"/>
      <point x="219" y="31" type="curve" smooth="yes"/>
      <point x="219" y="10"/>
      <point x="195" y="-11"/>
      <point x="165" y="-14" type="curve" smooth="yes"/>
      <point x="162" y="-14"/>
      <point x="159" y="-14"/>
      <point x="157" y="-14" type="curve" smooth="yes"/>
      <point x="131" y="-14"/>
      <point x="111" y="0"/>
      <point x="111" y="19" type="curve" smooth="yes"/>
      <point x="112" y="126"/>
      <point x="113" y="246"/>
      <point x="113" y="361" type="curve" smooth="yes"/>
      <point x="111" y="361"/>
      <point x="110" y="361"/>
      <point x="108" y="361" type="curve" smooth="yes"/>
      <point x="83" y="362"/>
      <point x="66" y="377"/>
      <point x="66" y="395" type="curve" smooth="yes"/>
      <point x="66" y="398"/>
      <point x="66" y="400"/>
      <point x="67" y="403" type="curve" smooth="yes"/>
      <point x="72" y="420"/>
      <point x="91" y="434"/>
      <point x="113" y="438" type="curve"/>
      <point x="112" y="563"/>
      <point x="109" y="678"/>
      <point x="101" y="762" type="curve" smooth="yes"/>
      <point x="101" y="763"/>
      <point x="101" y="764"/>
      <point x="101" y="765" type="curve" smooth="yes"/>
      <point x="101" y="785"/>
      <point x="122" y="803"/>
      <point x="151" y="808" type="curve" smooth="yes"/>
      <point x="155" y="809"/>
      <point x="159" y="809"/>
      <point x="163" y="809" type="curve" smooth="yes"/>
      <point x="188" y="809"/>
      <point x="207" y="796"/>
      <point x="209" y="778" type="curve" smooth="yes"/>
      <point x="217" y="688"/>
      <point x="220" y="566"/>
      <point x="221" y="436" type="curve"/>
      <point x="291" y="434"/>
      <point x="368" y="433"/>
      <point x="445" y="433" type="curve" smooth="yes"/>
      <point x="500" y="433"/>
      <point x="555" y="434"/>
      <point x="606" y="435" type="curve"/>
      <point x="606" y="490"/>
      <point x="605" y="545"/>
      <point x="605" y="600" type="curve" smooth="yes"/>
      <point x="605" y="655"/>
      <point x="606" y="709"/>
      <point x="606" y="759" type="curve" smooth="yes"/>
      <point x="606" y="780"/>
      <point x="630" y="801"/>
      <point x="660" y="804" type="curve" smooth="yes"/>
      <point x="663" y="804"/>
      <point x="666" y="804"/>
      <point x="668" y="804" type="curve" smooth="yes"/>
      <point x="694" y="804"/>
      <point x="714" y="790"/>
      <point x="714" y="771" type="curve" smooth="yes"/>
      <point x="714" y="719"/>
      <point x="713" y="664"/>
      <point x="713" y="608" type="curve" smooth="yes"/>
      <point x="713" y="552"/>
      <point x="714" y="495"/>
      <point x="714" y="439" type="curve"/>
      <point x="738" y="437"/>
      <point x="754" y="424"/>
      <point x="754" y="406" type="curve" smooth="yes"/>
      <point x="754" y="405"/>
      <point x="754" y="404"/>
      <point x="754" y="403" type="curve" smooth="yes"/>
      <point x="752" y="386"/>
      <point x="736" y="370"/>
      <point x="714" y="364" type="curve"/>
      <point x="715" y="236"/>
      <point x="717" y="118"/>
      <point x="719" y="36" type="curve" smooth="yes"/>
      <point x="719" y="35" type="line" smooth="yes"/>
      <point x="719" y="14"/>
      <point x="695" y="-5"/>
    </contour>
  </outline>
</glyph>
<glyph name="I" format="1">
  <advance width="480"/>
  <unicode hex="0049"/>
  <outline>
    <contour>
      <point x="300" y="0" type="move" name="LatinOgonek.mark"/>
    </contour>
    <contour>
      <point x="240" y="0" type="move" name="LatinBelow.mark"/>
    </contour>
    <contour>
      <point x="240" y="180" type="move" name="LatinAbove.mark"/>
    </contour>
    <contour>
      <point x="55" y="38" type="curve" smooth="yes"/>
      <point x="63" y="55"/>
      <point x="90" y="69"/>
      <point x="116" y="69" type="curve" smooth="yes"/>
      <point x="119" y="69" type="line" smooth="yes"/>
      <point x="145" y="68"/>
      <point x="170" y="66"/>
      <point x="192" y="65" type="curve"/>
      <point x="189" y="75"/>
      <point x="188" y="83"/>
      <point x="188" y="93" type="curve" smooth="yes"/>
      <point x="188" y="273"/>
      <point x="194" y="406"/>
      <point x="194" y="574" type="curve" smooth="yes"/>
      <point x="194" y="606"/>
      <point x="193" y="638"/>
      <point x="193" y="673" type="curve" smooth="yes"/>
      <point x="192" y="728"/>
      <point x="171" y="714"/>
      <point x="89" y="732" type="curve" smooth="yes"/>
      <point x="85" y="733"/>
      <point x="81" y="733"/>
      <point x="77" y="734" type="curve"/>
      <point x="77" y="739" type="line" smooth="yes"/>
      <point x="77" y="754"/>
      <point x="80" y="798"/>
      <point x="117" y="798" type="curve" smooth="yes"/>
      <point x="119" y="798" type="line" smooth="yes"/>
      <point x="172" y="796"/>
      <point x="222" y="795"/>
      <point x="268" y="795" type="curve" smooth="yes"/>
      <point x="309" y="795"/>
      <point x="347" y="796"/>
      <point x="381" y="798" type="curve" smooth="yes"/>
      <point x="386" y="798" type="line" smooth="yes"/>
      <point x="409" y="798"/>
      <point x="426" y="787"/>
      <point x="426" y="772" type="curve" smooth="yes"/>
      <point x="426" y="768" type="line" smooth="yes"/>
      <point x="423" y="750"/>
      <point x="397" y="734"/>
      <point x="369" y="732" type="curve" smooth="yes"/>
      <point x="343" y="730"/>
      <point x="318" y="730"/>
      <point x="288" y="729" type="curve"/>
      <point x="294" y="717"/>
      <point x="297" y="703"/>
      <point x="297" y="687" type="curve" smooth="yes"/>
      <point x="297" y="652"/>
      <point x="298" y="619"/>
      <point x="298" y="587" type="curve" smooth="yes"/>
      <point x="298" y="418"/>
      <point x="292" y="286"/>
      <point x="292" y="107" type="curve" smooth="yes"/>
      <point x="292" y="105" type="line" smooth="yes"/>
      <point x="292" y="78"/>
      <point x="293" y="77"/>
      <point x="329" y="77" type="curve" smooth="yes"/>
      <point x="337" y="77" type="line" smooth="yes"/>
      <point x="352" y="77"/>
      <point x="373" y="76"/>
      <point x="400" y="75" type="curve" smooth="yes"/>
      <point x="418" y="74"/>
      <point x="424" y="68"/>
      <point x="424" y="60" type="curve" smooth="yes"/>
      <point x="424" y="41"/>
      <point x="390" y="11"/>
      <point x="390" y="11" type="curve"/>
      <point x="336" y="1"/>
      <point x="289" y="-3"/>
      <point x="241" y="-3" type="curve" smooth="yes"/>
      <point x="193" y="-3"/>
      <point x="145" y="1"/>
      <point x="91" y="3" type="curve" smooth="yes"/>
      <point x="69" y="4"/>
      <point x="53" y="15"/>
      <point x="53" y="29" type="curve" smooth="yes"/>
      <point x="53" y="32"/>
      <point x="54" y="35"/>
    </contour>
  </outline>
</glyph>
<glyph name="L" format="1">
  <advance width="660"/>
  <unicode hex="004C"/>
  <outline>
    <contour>
      <point x="370" y="0" type="move" name="LatinBelow.mark"/>
    </contour>
    <contour>
      <point x="200" y="180" type="move" name="LatinAbove.mark"/>
    </contour>
    <contour>
      <point x="634" y="32" type="line" smooth="yes"/>
      <point x="631" y="11"/>
      <point x="605" y="-8"/>
      <point x="575" y="-9" type="curve" smooth="yes"/>
      <point x="475" y="-13"/>
      <point x="382" y="-23"/>
      <point x="307" y="-23" type="curve" smooth="yes"/>
      <point x="198" y="-23"/>
      <point x="126" y="-3"/>
      <point x="126" y="84" type="curve" smooth="yes"/>
      <point x="126" y="96" type="line"/>
      <point x="132" y="188"/>
      <point x="144" y="355"/>
      <point x="144" y="514" type="curve" smooth="yes"/>
      <point x="144" y="601"/>
      <point x="140" y="686"/>
      <point x="131" y="756" type="curve"/>
      <point x="131" y="760" type="line" smooth="yes"/>
      <point x="131" y="780"/>
      <point x="153" y="798"/>
      <point x="180" y="803" type="curve" smooth="yes"/>
      <point x="184" y="804"/>
      <point x="188" y="804"/>
      <point x="192" y="804" type="curve" smooth="yes"/>
      <point x="216" y="804"/>
      <point x="236" y="792"/>
      <point x="239" y="774" type="curve" smooth="yes"/>
      <point x="249" y="701"/>
      <point x="252" y="613"/>
      <point x="252" y="525" type="curve" smooth="yes"/>
      <point x="252" y="363"/>
      <point x="240" y="197"/>
      <point x="234" y="104" type="curve"/>
      <point x="234" y="94" type="line" smooth="yes"/>
      <point x="234" y="64"/>
      <point x="247" y="55"/>
      <point x="302" y="55" type="curve" smooth="yes"/>
      <point x="353" y="55"/>
      <point x="440" y="63"/>
      <point x="585" y="69" type="curve"/>
      <point x="588" y="69" type="line" smooth="yes"/>
      <point x="615" y="69"/>
      <point x="634" y="55"/>
      <point x="634" y="36" type="curve" smooth="yes"/>
    </contour>
  </outline>
</glyph>
<glyph name="N" format="1">
  <advance width="820"/>
  <unicode hex="004E"/>
  <outline>
    <contour>
      <point x="165" y="-14" type="curve" smooth="yes"/>
      <point x="162" y="-14"/>
      <point x="159" y="-14"/>
      <point x="157" y="-14" type="curve" smooth="yes"/>
      <point x="131" y="-14"/>
      <point x="111" y="0"/>
      <point x="111" y="19" type="curve" smooth="yes"/>
      <point x="111" y="76"/>
      <point x="112" y="136"/>
      <point x="112" y="197" type="curve" smooth="yes"/>
      <point x="112" y="398"/>
      <point x="108" y="609"/>
      <point x="97" y="747" type="curve" smooth="yes"/>
      <point x="97" y="752"/>
      <point x="96" y="757"/>
      <point x="96" y="762" type="curve" smooth="yes"/>
      <point x="96" y="762"/>
      <point x="141" y="804"/>
      <point x="175" y="804" type="curve" smooth="yes"/>
      <point x="184" y="804"/>
      <point x="193" y="801"/>
      <point x="199" y="792" type="curve" smooth="yes"/>
      <point x="313" y="638"/>
      <point x="498" y="345"/>
      <point x="613" y="177" type="curve"/>
      <point x="613" y="200"/>
      <point x="613" y="224"/>
      <point x="613" y="249" type="curve" smooth="yes"/>
      <point x="613" y="431"/>
      <point x="610" y="652"/>
      <point x="601" y="757" type="curve" smooth="yes"/>
      <point x="601" y="758"/>
      <point x="601" y="759"/>
      <point x="601" y="760" type="curve" smooth="yes"/>
      <point x="601" y="780"/>
      <point x="623" y="800"/>
      <point x="652" y="804" type="curve" smooth="yes"/>
      <point x="655" y="804"/>
      <point x="659" y="805"/>
      <point x="662" y="805" type="curve" smooth="yes"/>
      <point x="687" y="805"/>
      <point x="707" y="792"/>
      <point x="709" y="773" type="curve" smooth="yes"/>
      <point x="718" y="661"/>
      <point x="721" y="441"/>
      <point x="721" y="258" type="curve" smooth="yes"/>
      <point x="721" y="170"/>
      <point x="720" y="90"/>
      <point x="719" y="35" type="curve" smooth="yes"/>
      <point x="718" y="1"/>
      <point x="696" y="-8"/>
      <point x="673" y="-8" type="curve" smooth="yes"/>
      <point x="648" y="-8"/>
      <point x="621" y="3"/>
      <point x="621" y="3" type="curve" smooth="yes"/>
      <point x="617" y="7"/>
      <point x="614" y="9"/>
      <point x="611" y="13" type="curve" smooth="yes"/>
      <point x="563" y="70"/>
      <point x="372" y="375"/>
      <point x="215" y="602" type="curve"/>
      <point x="219" y="496"/>
      <point x="220" y="369"/>
      <point x="220" y="246" type="curve" smooth="yes"/>
      <point x="220" y="171"/>
      <point x="219" y="98"/>
      <point x="219" y="31" type="curve" smooth="yes"/>
      <point x="219" y="10"/>
      <point x="195" y="-11"/>
    </contour>
  </outline>
</glyph>
<glyph name="R" format="1">
  <advance width="780"/>
  <unicode hex="0052"/>
  <outline>
    <contour>
      <point x="400" y="0" type="move" name="LatinBelow.mark"/>
    </contour>
    <contour>
      <point x="400" y="180" type="move" name="LatinAbove.mark"/>
    </contour>
    <contour>
      <point x="179" y="-24" type="curve" smooth="yes"/>
      <point x="172" y="-24" type="line" smooth="yes"/>
      <point x="146" y="-24"/>
      <point x="126" y="-10"/>
      <point x="126" y="9" type="curve" smooth="yes"/>
      <point x="126" y="10" type="line" smooth="yes"/>
      <point x="129" y="88"/>
      <point x="130" y="173"/>
      <point x="130" y="255" type="curve" smooth="yes"/>
      <point x="130" y="391"/>
      <point x="126" y="519"/>
      <point x="116" y="596" type="curve"/>
      <point x="116" y="600" type="line" smooth="yes"/>
      <point x="116" y="620"/>
      <point x="138" y="638"/>
      <point x="165" y="643" type="curve" smooth="yes"/>
      <point x="169" y="644"/>
      <point x="173" y="644"/>
      <point x="177" y="644" type="curve" smooth="yes"/>
      <point x="201" y="644"/>
      <point x="221" y="632"/>
      <point x="224" y="614" type="curve" smooth="yes"/>
      <point x="231" y="565"/>
      <point x="235" y="500"/>
      <point x="237" y="426" type="curve"/>
      <point x="245" y="434"/>
      <point x="254" y="440"/>
      <point x="268" y="440" type="curve" smooth="yes"/>
      <point x="274" y="440"/>
      <point x="281" y="439"/>
      <point x="289" y="436" type="curve" smooth="yes"/>
      <point x="343" y="418"/>
      <point x="388" y="411"/>
      <point x="425" y="411" type="curve" smooth="yes"/>
      <point x="463" y="411"/>
      <point x="492" y="418"/>
      <point x="514" y="428" type="curve" smooth="yes"/>
      <point x="570" y="454"/>
      <point x="605" y="513"/>
      <point x="605" y="574" type="curve" smooth="yes"/>
      <point x="605" y="606"/>
      <point x="596" y="639"/>
      <point x="574" y="668" type="curve" smooth="yes"/>
      <point x="542" y="711"/>
      <point x="485" y="745"/>
      <point x="393" y="745" type="curve" smooth="yes"/>
      <point x="320" y="745"/>
      <point x="225" y="724"/>
      <point x="104" y="668" type="curve" smooth="yes"/>
      <point x="94" y="663"/>
      <point x="83" y="661"/>
      <point x="72" y="661" type="curve" smooth="yes"/>
      <point x="55" y="661"/>
      <point x="39" y="667"/>
      <point x="31" y="678" type="curve" smooth="yes"/>
      <point x="27" y="683"/>
      <point x="26" y="688"/>
      <point x="26" y="694" type="curve" smooth="yes"/>
      <point x="26" y="708"/>
      <point x="37" y="723"/>
      <point x="56" y="732" type="curve" smooth="yes"/>
      <point x="193" y="795"/>
      <point x="312" y="822"/>
      <point x="409" y="822" type="curve" smooth="yes"/>
      <point x="534" y="822"/>
      <point x="624" y="778"/>
      <point x="672" y="713" type="curve" smooth="yes"/>
      <point x="700" y="675"/>
      <point x="715" y="629"/>
      <point x="715" y="582" type="curve" smooth="yes"/>
      <point x="715" y="498"/>
      <point x="667" y="412"/>
      <point x="562" y="364" type="curve" smooth="yes"/>
      <point x="518" y="344"/>
      <point x="465" y="332"/>
      <point x="409" y="332" type="curve" smooth="yes"/>
      <point x="402" y="332" type="line"/>
      <point x="496" y="242"/>
      <point x="645" y="104"/>
      <point x="732" y="39" type="curve" smooth="yes"/>
      <point x="740" y="33"/>
      <point x="744" y="25"/>
      <point x="744" y="16" type="curve" smooth="yes"/>
      <point x="744" y="5"/>
      <point x="738" y="-7"/>
      <point x="725" y="-16" type="curve" smooth="yes"/>
      <point x="713" y="-25"/>
      <point x="697" y="-29"/>
      <point x="682" y="-29" type="curve" smooth="yes"/>
      <point x="669" y="-29"/>
      <point x="657" y="-26"/>
      <point x="648" y="-19" type="curve" smooth="yes"/>
      <point x="524" y="73"/>
      <point x="310" y="280"/>
      <point x="238" y="350" type="curve"/>
      <point x="238" y="273" type="line" smooth="yes"/>
      <point x="238" y="189"/>
      <point x="237" y="101"/>
      <point x="234" y="20" type="curve" smooth="yes"/>
      <point x="233" y="-1"/>
      <point x="209" y="-21"/>
    </contour>
  </outline>
</glyph>
<glyph name="S" format="1">
  <advance width="700"/>
  <unicode hex="0053"/>
  <outline>
    <contour>
      <point x="108" y="199" type="curve" smooth="yes"/>
      <point x="116" y="201"/>
      <point x="124" y="202"/>
      <point x="131" y="202" type="curve" smooth="yes"/>
      <point x="151" y="202"/>
      <point x="168" y="194"/>
      <point x="174" y="179" type="curve" smooth="yes"/>
      <point x="205" y="102"/>
      <point x="274" y="56"/>
      <point x="375" y="56" type="curve" smooth="yes"/>
      <point x="447" y="56"/>
      <point x="497" y="84"/>
      <point x="527" y="124" type="curve" smooth="yes"/>
      <point x="545" y="148"/>
      <point x="555" y="176"/>
      <point x="555" y="203" type="curve" smooth="yes"/>
      <point x="555" y="254"/>
      <point x="521" y="305"/>
      <point x="440" y="330" type="curve"/>
      <point x="402" y="343"/>
      <point x="269" y="389"/>
      <point x="226" y="404" type="curve"/>
      <point x="113" y="442"/>
      <point x="60" y="515"/>
      <point x="60" y="590" type="curve" smooth="yes"/>
      <point x="60" y="601"/>
      <point x="61" y="611"/>
      <point x="63" y="622" type="curve" smooth="yes"/>
      <point x="84" y="725"/>
      <point x="209" y="822"/>
      <point x="390" y="822" type="curve" smooth="yes"/>
      <point x="529" y="822"/>
      <point x="604" y="737"/>
      <point x="604" y="648" type="curve" smooth="yes"/>
      <point x="604" y="640"/>
      <point x="603" y="633"/>
      <point x="602" y="625" type="curve" smooth="yes"/>
      <point x="599" y="604"/>
      <point x="571" y="585"/>
      <point x="542" y="584" type="curve" smooth="yes"/>
      <point x="541" y="584"/>
      <point x="541" y="584"/>
      <point x="540" y="584" type="curve" smooth="yes"/>
      <point x="514" y="584"/>
      <point x="494" y="598"/>
      <point x="494" y="617" type="curve" smooth="yes"/>
      <point x="494" y="618"/>
      <point x="494" y="620"/>
      <point x="494" y="621" type="curve" smooth="yes"/>
      <point x="495" y="626"/>
      <point x="495" y="631"/>
      <point x="495" y="636" type="curve" smooth="yes"/>
      <point x="495" y="695"/>
      <point x="443" y="744"/>
      <point x="374" y="744" type="curve" smooth="yes"/>
      <point x="253" y="744"/>
      <point x="184" y="686"/>
      <point x="171" y="622" type="curve" smooth="yes"/>
      <point x="170" y="615"/>
      <point x="169" y="609"/>
      <point x="169" y="602" type="curve" smooth="yes"/>
      <point x="169" y="555"/>
      <point x="203" y="509"/>
      <point x="284" y="482" type="curve"/>
      <point x="329" y="467"/>
      <point x="460" y="420"/>
      <point x="496" y="408" type="curve"/>
      <point x="612" y="371"/>
      <point x="664" y="294"/>
      <point x="664" y="216" type="curve" smooth="yes"/>
      <point x="664" y="174"/>
      <point x="648" y="131"/>
      <point x="620" y="94" type="curve" smooth="yes"/>
      <point x="570" y="29"/>
      <point x="476" y="-22"/>
      <point x="359" y="-22" type="curve" smooth="yes"/>
      <point x="206" y="-22"/>
      <point x="109" y="50"/>
      <point x="70" y="147" type="curve" smooth="yes"/>
      <point x="69" y="150"/>
      <point x="68" y="154"/>
      <point x="68" y="157" type="curve" smooth="yes"/>
      <point x="68" y="174"/>
      <point x="84" y="192"/>
    </contour>
  </outline>
</glyph>
<glyph name="W" format="1">
  <advance width="1100"/>
  <unicode hex="0057"/>
  <outline>
    <contour>
      <point x="1014" y="799" type="curve" smooth="yes"/>
      <point x="1038" y="797"/>
      <point x="1055" y="782"/>
      <point x="1055" y="765" type="curve" smooth="yes"/>
      <point x="1055" y="762"/>
      <point x="1054" y="758"/>
      <point x="1053" y="755" type="curve" smooth="yes"/>
      <point x="983" y="561"/>
      <point x="930" y="342"/>
      <point x="846" y="23" type="curve" smooth="yes"/>
      <point x="846" y="23"/>
      <point x="802" y="-10"/>
      <point x="770" y="-10" type="curve" smooth="yes"/>
      <point x="757" y="-10"/>
      <point x="747" y="-5"/>
      <point x="742" y="10" type="curve" smooth="yes"/>
      <point x="741" y="13"/>
      <point x="740" y="17"/>
      <point x="739" y="20" type="curve" smooth="yes"/>
      <point x="693" y="149"/>
      <point x="600" y="448"/>
      <point x="541" y="608" type="curve"/>
      <point x="482" y="430"/>
      <point x="391" y="116"/>
      <point x="356" y="16" type="curve" smooth="yes"/>
      <point x="356" y="16"/>
      <point x="311" y="-13"/>
      <point x="280" y="-13" type="curve" smooth="yes"/>
      <point x="266" y="-13"/>
      <point x="255" y="-8"/>
      <point x="251" y="8" type="curve" smooth="yes"/>
      <point x="186" y="269"/>
      <point x="99" y="587"/>
      <point x="47" y="746" type="curve" smooth="yes"/>
      <point x="46" y="749"/>
      <point x="46" y="751"/>
      <point x="46" y="754" type="curve" smooth="yes"/>
      <point x="46" y="772"/>
      <point x="63" y="790"/>
      <point x="88" y="797" type="curve" smooth="yes"/>
      <point x="94" y="799"/>
      <point x="101" y="800"/>
      <point x="107" y="800" type="curve" smooth="yes"/>
      <point x="129" y="800"/>
      <point x="148" y="790"/>
      <point x="153" y="774" type="curve" smooth="yes"/>
      <point x="194" y="648"/>
      <point x="266" y="386"/>
      <point x="318" y="169" type="curve"/>
      <point x="380" y="377"/>
      <point x="470" y="694"/>
      <point x="495" y="736" type="curve" smooth="yes"/>
      <point x="511" y="763"/>
      <point x="528" y="772"/>
      <point x="543" y="772" type="curve" smooth="yes"/>
      <point x="569" y="772"/>
      <point x="590" y="746"/>
      <point x="590" y="746" type="curve" smooth="yes"/>
      <point x="617" y="704"/>
      <point x="724" y="384"/>
      <point x="794" y="168" type="curve"/>
      <point x="847" y="392"/>
      <point x="895" y="606"/>
      <point x="952" y="765" type="curve" smooth="yes"/>
      <point x="960" y="785"/>
      <point x="982" y="799"/>
      <point x="1009" y="799" type="curve" smooth="yes"/>
      <point x="1011" y="799"/>
      <point x="1012" y="799"/>
    </contour>
  </outline>
</glyph>
<glyph name="Z" format="1">
  <advance width="750"/>
  <unicode hex="005A"/>
  <outline>
    <contour>
      <point x="380" y="0" type="move" name="LatinBelow.mark"/>
    </contour>
    <contour>
      <point x="380" y="180" type="move" name="LatinAbove.mark"/>
    </contour>
    <contour>
      <point x="709" y="51" type="line" smooth="yes"/>
      <point x="707" y="29"/>
      <point x="676" y="8"/>
      <point x="641" y="5" type="curve" smooth="yes"/>
      <point x="577" y="-1"/>
      <point x="442" y="-13"/>
      <point x="316" y="-13" type="curve" smooth="yes"/>
      <point x="175" y="-13"/>
      <point x="46" y="2"/>
      <point x="46" y="58" type="curve" smooth="yes"/>
      <point x="46" y="152"/>
      <point x="277" y="410"/>
      <point x="517" y="715" type="curve"/>
      <point x="444" y="711"/>
      <point x="383" y="709"/>
      <point x="318" y="709" type="curve" smooth="yes"/>
      <point x="257" y="709"/>
      <point x="192" y="711"/>
      <point x="111" y="715" type="curve" smooth="yes"/>
      <point x="84" y="717"/>
      <point x="66" y="729"/>
      <point x="66" y="746" type="curve" smooth="yes"/>
      <point x="66" y="750"/>
      <point x="67" y="754"/>
      <point x="69" y="758" type="curve" smooth="yes"/>
      <point x="78" y="779"/>
      <point x="112" y="795"/>
      <point x="144" y="795" type="curve" smooth="yes"/>
      <point x="149" y="795" type="line"/>
      <point x="228" y="791"/>
      <point x="289" y="789"/>
      <point x="347" y="789" type="curve" smooth="yes"/>
      <point x="433" y="789"/>
      <point x="511" y="793"/>
      <point x="626" y="800" type="curve"/>
      <point x="640" y="800" type="line" smooth="yes"/>
      <point x="678" y="800"/>
      <point x="689" y="790"/>
      <point x="689" y="778" type="curve" smooth="yes"/>
      <point x="689" y="764"/>
      <point x="675" y="749"/>
      <point x="675" y="749" type="curve"/>
      <point x="434" y="441"/>
      <point x="201" y="162"/>
      <point x="176" y="85" type="curve"/>
      <point x="207" y="77"/>
      <point x="281" y="74"/>
      <point x="365" y="74" type="curve" smooth="yes"/>
      <point x="464" y="74"/>
      <point x="577" y="78"/>
      <point x="649" y="85" type="curve"/>
      <point x="658" y="85" type="line" smooth="yes"/>
      <point x="687" y="85"/>
      <point x="709" y="72"/>
      <point x="709" y="53" type="curve" smooth="yes"/>
    </contour>
  </outline>
</glyph>
<glyph name="bracketleft" format="1">
  <advance width="360"/>
  <unicode hex="005B"/>
  <outline>
    <contour>
      <point x="299" y="-60" type="curve" smooth="yes"/>
      <point x="296" y="-76"/>
      <point x="275" y="-89"/>
      <point x="254" y="-89" type="curve" smooth="yes"/>
      <point x="239" y="-89"/>
      <point x="189" y="-91"/>
      <point x="135" y="-91" type="curve" smooth="yes"/>
      <point x="126" y="-91"/>
      <point x="117" y="-91"/>
      <point x="108" y="-91" type="curve" smooth="yes"/>
      <point x="88" y="-91"/>
      <point x="75" y="-79"/>
      <point x="75" y="-66" type="curve" smooth="yes"/>
      <point x="75" y="-65" type="line" smooth="yes"/>
      <point x="87" y="104"/>
      <point x="92" y="265"/>
      <point x="92" y="407" type="curve" smooth="yes"/>
      <point x="92" y="594"/>
      <point x="83" y="749"/>
      <point x="71" y="853" type="curve" smooth="yes"/>
      <point x="71" y="854"/>
      <point x="71" y="855"/>
      <point x="71" y="858" type="curve" smooth="yes"/>
      <point x="71" y="868"/>
      <point x="75" y="889"/>
      <point x="114" y="889" type="curve" smooth="yes"/>
      <point x="115" y="889"/>
      <point x="117" y="889"/>
      <point x="118" y="889" type="curve" smooth="yes"/>
      <point x="147" y="888"/>
      <point x="188" y="887"/>
      <point x="219" y="887" type="curve" smooth="yes"/>
      <point x="238" y="887"/>
      <point x="254" y="887"/>
      <point x="262" y="888" type="curve" smooth="yes"/>
      <point x="264" y="888"/>
      <point x="265" y="888"/>
      <point x="267" y="888" type="curve" smooth="yes"/>
      <point x="286" y="888"/>
      <point x="300" y="878"/>
      <point x="300" y="864" type="curve" smooth="yes"/>
      <point x="300" y="863" type="line" smooth="yes"/>
      <point x="299" y="847"/>
      <point x="280" y="834"/>
      <point x="258" y="832" type="curve" smooth="yes"/>
      <point x="241" y="831"/>
      <point x="215" y="830"/>
      <point x="186" y="830" type="curve" smooth="yes"/>
      <point x="175" y="830"/>
      <point x="164" y="830"/>
      <point x="153" y="830" type="curve"/>
      <point x="164" y="724"/>
      <point x="171" y="577"/>
      <point x="171" y="406" type="curve" smooth="yes"/>
      <point x="171" y="272"/>
      <point x="167" y="124"/>
      <point x="156" y="-34" type="curve"/>
      <point x="203" y="-34"/>
      <point x="247" y="-31"/>
      <point x="266" y="-31" type="curve" smooth="yes"/>
      <point x="285" y="-31"/>
      <point x="299" y="-42"/>
      <point x="299" y="-56" type="curve" smooth="yes"/>
      <point x="299" y="-57"/>
      <point x="299" y="-59"/>
    </contour>
  </outline>
</glyph>
<glyph name="bracketright" format="1">
  <advance width="360"/>
  <unicode hex="005D"/>
  <outline>
    <contour>
      <point x="61" y="858" type="line" smooth="yes"/>
      <point x="64" y="874"/>
      <point x="85" y="887"/>
      <point x="106" y="887" type="curve" smooth="yes"/>
      <point x="121" y="887"/>
      <point x="171" y="889"/>
      <point x="225" y="889" type="curve" smooth="yes"/>
      <point x="252" y="889" type="line" smooth="yes"/>
      <point x="272" y="889"/>
      <point x="285" y="877"/>
      <point x="285" y="864" type="curve" smooth="yes"/>
      <point x="285" y="863" type="line"/>
      <point x="273" y="694"/>
      <point x="268" y="533"/>
      <point x="268" y="391" type="curve" smooth="yes"/>
      <point x="268" y="204"/>
      <point x="277" y="49"/>
      <point x="289" y="-55" type="curve"/>
      <point x="289" y="-60" type="line" smooth="yes"/>
      <point x="289" y="-70"/>
      <point x="285" y="-91"/>
      <point x="246" y="-91" type="curve" smooth="yes"/>
      <point x="242" y="-91" type="line" smooth="yes"/>
      <point x="213" y="-90"/>
      <point x="172" y="-89"/>
      <point x="141" y="-89" type="curve" smooth="yes"/>
      <point x="122" y="-89"/>
      <point x="106" y="-89"/>
      <point x="98" y="-90" type="curve" smooth="yes"/>
      <point x="93" y="-90" type="line" smooth="yes"/>
      <point x="74" y="-90"/>
      <point x="60" y="-80"/>
      <point x="60" y="-66" type="curve" smooth="yes"/>
      <point x="60" y="-65" type="line" smooth="yes"/>
      <point x="61" y="-49"/>
      <point x="80" y="-36"/>
      <point x="102" y="-34" type="curve" smooth="yes"/>
      <point x="119" y="-33"/>
      <point x="145" y="-32"/>
      <point x="174" y="-32" type="curve" smooth="yes"/>
      <point x="207" y="-32" type="line"/>
      <point x="196" y="74"/>
      <point x="189" y="221"/>
      <point x="189" y="392" type="curve" smooth="yes"/>
      <point x="189" y="526"/>
      <point x="193" y="674"/>
      <point x="204" y="832" type="curve"/>
      <point x="157" y="832"/>
      <point x="113" y="829"/>
      <point x="94" y="829" type="curve" smooth="yes"/>
      <point x="75" y="829"/>
      <point x="61" y="840"/>
      <point x="61" y="854" type="curve" smooth="yes"/>
    </contour>
  </outline>
</glyph>
<glyph name="asciicircum" format="1">
  <advance width="510"/>
  <unicode hex="005E"/>
  <outline>
    <contour>
      <point x="288" y="834" type="curve" smooth="yes"/>
      <point x="376" y="746"/>
      <point x="473" y="594"/>
      <point x="483" y="573" type="curve"/>
      <point x="483" y="573"/>
      <point x="475" y="531"/>
      <point x="447" y="531" type="curve" smooth="yes"/>
      <point x="441" y="531"/>
      <point x="435" y="532"/>
      <point x="427" y="537" type="curve" smooth="yes"/>
      <point x="399" y="554"/>
      <point x="326" y="649"/>
      <point x="256" y="724" type="curve"/>
      <point x="186" y="645"/>
      <point x="111" y="558"/>
      <point x="76" y="538" type="curve"/>
      <point x="76" y="538"/>
      <point x="59" y="532"/>
      <point x="44" y="532" type="curve" smooth="yes"/>
      <point x="33" y="532"/>
      <point x="23" y="535"/>
      <point x="23" y="547" type="curve" smooth="yes"/>
      <point x="23" y="552"/>
      <point x="25" y="558"/>
      <point x="28" y="565" type="curve" smooth="yes"/>
      <point x="40" y="591"/>
      <point x="148" y="731"/>
      <point x="221" y="826" type="curve"/>
      <point x="221" y="826"/>
      <point x="235" y="849"/>
      <point x="257" y="849" type="curve" smooth="yes"/>
      <point x="266" y="849"/>
      <point x="277" y="845"/>
    </contour>
  </outline>
</glyph>
<glyph name="a" format="1">
  <advance width="680"/>
  <unicode hex="0061"/>
  <outline>
    <contour>
      <point x="580" y="0" type="move" name="LatinOgonek.mark"/>
    </contour>
    <contour>
      <point x="360" y="0" type="move" name="LatinBelow.mark"/>
    </contour>
    <contour>
      <point x="360" y="0" type="move" name="LatinAbove.mark"/>
    </contour>
    <contour>
      <point x="540" y="360" type="curve"/>
      <point x="582" y="92"/>
      <point x="616" y="63"/>
      <point x="633" y="59" type="curve" smooth="yes"/>
      <point x="650" y="55"/>
      <point x="659" y="43"/>
      <point x="659" y="30" type="curve" smooth="yes"/>
      <point x="659" y="24"/>
      <point x="658" y="18"/>
      <point x="654" y="13" type="curve" smooth="yes"/>
      <point x="644" y="-1"/>
      <point x="626" y="-11"/>
      <point x="607" y="-11" type="curve" smooth="yes"/>
      <point x="602" y="-11"/>
      <point x="597" y="-10"/>
      <point x="592" y="-9" type="curve" smooth="yes"/>
      <point x="547" y="4"/>
      <point x="518" y="43"/>
      <point x="491" y="150" type="curve"/>
      <point x="464" y="64"/>
      <point x="412" y="-21"/>
      <point x="283" y="-21" type="curve" smooth="yes"/>
      <point x="117" y="-21"/>
      <point x="60" y="105"/>
      <point x="60" y="232" type="curve" smooth="yes"/>
      <point x="60" y="262"/>
      <point x="63" y="292"/>
      <point x="69" y="320" type="curve" smooth="yes"/>
      <point x="96" y="455"/>
      <point x="195" y="621"/>
      <point x="386" y="621" type="curve" smooth="yes"/>
      <point x="526" y="621"/>
      <point x="539" y="496"/>
      <point x="539" y="472" type="curve" smooth="yes"/>
      <point x="539" y="453"/>
      <point x="517" y="435"/>
      <point x="490" y="432" type="curve" smooth="yes"/>
      <point x="483" y="432" type="line" smooth="yes"/>
      <point x="459" y="432"/>
      <point x="441" y="445"/>
      <point x="441" y="462" type="curve" smooth="yes"/>
      <point x="441" y="488"/>
      <point x="414" y="549"/>
      <point x="372" y="549" type="curve" smooth="yes"/>
      <point x="283" y="549"/>
      <point x="195" y="456"/>
      <point x="167" y="320" type="curve" smooth="yes"/>
      <point x="162" y="294"/>
      <point x="159" y="268"/>
      <point x="159" y="244" type="curve" smooth="yes"/>
      <point x="159" y="131"/>
      <point x="215" y="51"/>
      <point x="297" y="51" type="curve" smooth="yes"/>
      <point x="356" y="51"/>
      <point x="404" y="111"/>
      <point x="427" y="226" type="curve" smooth="yes"/>
      <point x="434" y="263"/>
      <point x="439" y="301"/>
      <point x="441" y="336" type="curve" smooth="yes"/>
      <point x="442" y="350"/>
      <point x="454" y="372"/>
      <point x="473" y="372" type="curve" smooth="yes"/>
      <point x="514" y="372"/>
      <point x="540" y="360"/>
    </contour>
  </outline>
</glyph>
<glyph name="d" format="1">
  <advance width="720"/>
  <unicode hex="0064"/>
  <outline>
    <contour>
      <point x="523" y="845" type="curve" smooth="yes"/>
      <point x="526" y="845"/>
      <point x="530" y="846"/>
      <point x="533" y="846" type="curve" smooth="yes"/>
      <point x="556" y="846"/>
      <point x="573" y="834"/>
      <point x="574" y="817" type="curve" smooth="yes"/>
      <point x="577" y="770"/>
      <point x="577" y="721"/>
      <point x="577" y="672" type="curve" smooth="yes"/>
      <point x="577" y="568"/>
      <point x="574" y="463"/>
      <point x="574" y="381" type="curve" smooth="yes"/>
      <point x="574" y="336" type="line" smooth="yes"/>
      <point x="576" y="257"/>
      <point x="586" y="192"/>
      <point x="600" y="144" type="curve" smooth="yes"/>
      <point x="620" y="77"/>
      <point x="652" y="51"/>
      <point x="660" y="49" type="curve" smooth="yes"/>
      <point x="678" y="45"/>
      <point x="689" y="34"/>
      <point x="689" y="20" type="curve" smooth="yes"/>
      <point x="689" y="15"/>
      <point x="688" y="10"/>
      <point x="685" y="5" type="curve" smooth="yes"/>
      <point x="676" y="-10"/>
      <point x="655" y="-21"/>
      <point x="634" y="-21" type="curve" smooth="yes"/>
      <point x="629" y="-21"/>
      <point x="624" y="-20"/>
      <point x="620" y="-19" type="curve" smooth="yes"/>
      <point x="564" y="-5"/>
      <point x="534" y="51"/>
      <point x="514" y="120" type="curve" smooth="yes"/>
      <point x="513" y="123"/>
      <point x="513" y="125"/>
      <point x="512" y="128" type="curve"/>
      <point x="480" y="60"/>
      <point x="427" y="-21"/>
      <point x="313" y="-21" type="curve" smooth="yes"/>
      <point x="128" y="-21"/>
      <point x="61" y="139"/>
      <point x="61" y="275" type="curve" smooth="yes"/>
      <point x="61" y="302"/>
      <point x="64" y="330"/>
      <point x="69" y="357" type="curve" smooth="yes"/>
      <point x="93" y="478"/>
      <point x="183" y="616"/>
      <point x="367" y="616" type="curve" smooth="yes"/>
      <point x="415" y="616"/>
      <point x="452" y="604"/>
      <point x="479" y="586" type="curve"/>
      <point x="479" y="611"/>
      <point x="479" y="637"/>
      <point x="479" y="662" type="curve" smooth="yes"/>
      <point x="479" y="711"/>
      <point x="479" y="758"/>
      <point x="476" y="803" type="curve" smooth="yes"/>
      <point x="476" y="804" type="line" smooth="yes"/>
      <point x="476" y="823"/>
      <point x="497" y="841"/>
    </contour>
    <contour>
      <point x="476" y="422" type="curve" smooth="yes"/>
      <point x="465" y="474"/>
      <point x="436" y="544"/>
      <point x="353" y="544" type="curve" smooth="yes"/>
      <point x="261" y="544"/>
      <point x="189" y="474"/>
      <point x="166" y="357" type="curve" smooth="yes"/>
      <point x="161" y="334"/>
      <point x="159" y="309"/>
      <point x="159" y="285" type="curve" smooth="yes"/>
      <point x="159" y="151"/>
      <point x="232" y="51"/>
      <point x="327" y="51" type="curve" smooth="yes"/>
      <point x="360" y="51"/>
      <point x="403" y="79"/>
      <point x="437" y="151" type="curve" smooth="yes"/>
      <point x="457" y="193"/>
      <point x="470" y="242"/>
      <point x="478" y="285" type="curve" smooth="yes"/>
      <point x="477" y="298"/>
      <point x="476" y="310"/>
      <point x="476" y="324" type="curve" smooth="yes"/>
      <point x="476" y="371" type="line" smooth="yes"/>
      <point x="476" y="387"/>
      <point x="476" y="404"/>
    </contour>
  </outline>
</glyph>
<glyph name="e" format="1">
  <advance width="630"/>
  <unicode hex="0065"/>
  <outline>
    <contour>
      <point x="177" y="229" type="curve"/>
      <point x="198" y="120"/>
      <point x="258" y="73"/>
      <point x="312" y="58" type="curve" smooth="yes"/>
      <point x="326" y="54"/>
      <point x="341" y="52"/>
      <point x="355" y="52" type="curve" smooth="yes"/>
      <point x="408" y="52"/>
      <point x="459" y="77"/>
      <point x="486" y="117" type="curve" smooth="yes"/>
      <point x="496" y="131"/>
      <point x="517" y="141"/>
      <point x="537" y="141" type="curve" smooth="yes"/>
      <point x="542" y="141"/>
      <point x="548" y="140"/>
      <point x="553" y="139" type="curve" smooth="yes"/>
      <point x="570" y="134"/>
      <point x="580" y="123"/>
      <point x="580" y="110" type="curve" smooth="yes"/>
      <point x="580" y="105"/>
      <point x="578" y="98"/>
      <point x="574" y="93" type="curve" smooth="yes"/>
      <point x="527" y="26"/>
      <point x="434" y="-20"/>
      <point x="339" y="-20" type="curve" smooth="yes"/>
      <point x="314" y="-20"/>
      <point x="289" y="-17"/>
      <point x="265" y="-10" type="curve" smooth="yes"/>
      <point x="169" y="16"/>
      <point x="97" y="92"/>
      <point x="76" y="225" type="curve"/>
      <point x="57" y="229"/>
      <point x="45" y="239"/>
      <point x="45" y="253" type="curve" smooth="yes"/>
      <point x="45" y="254"/>
      <point x="45" y="255"/>
      <point x="45" y="256" type="curve" smooth="yes"/>
      <point x="46" y="268"/>
      <point x="57" y="281"/>
      <point x="71" y="288" type="curve"/>
      <point x="71" y="293"/>
      <point x="71" y="298"/>
      <point x="71" y="302" type="curve" smooth="yes"/>
      <point x="71" y="489"/>
      <point x="192" y="603"/>
      <point x="337" y="621" type="curve" smooth="yes"/>
      <point x="349" y="622"/>
      <point x="361" y="623"/>
      <point x="372" y="623" type="curve" smooth="yes"/>
      <point x="482" y="623"/>
      <point x="569" y="558"/>
      <point x="569" y="455" type="curve" smooth="yes"/>
      <point x="569" y="304"/>
      <point x="408" y="252"/>
      <point x="249" y="235" type="curve" smooth="yes"/>
      <point x="225" y="233"/>
      <point x="201" y="231"/>
    </contour>
    <contour>
      <point x="169" y="299" type="curve" smooth="yes"/>
      <point x="197" y="301"/>
      <point x="224" y="303"/>
      <point x="249" y="306" type="curve" smooth="yes"/>
      <point x="397" y="322"/>
      <point x="471" y="349"/>
      <point x="471" y="445" type="curve" smooth="yes"/>
      <point x="471" y="520"/>
      <point x="413" y="552"/>
      <point x="356" y="552" type="curve" smooth="yes"/>
      <point x="350" y="552"/>
      <point x="345" y="552"/>
      <point x="339" y="551" type="curve" smooth="yes"/>
      <point x="272" y="543"/>
      <point x="169" y="482"/>
      <point x="169" y="313" type="curve" smooth="yes"/>
      <point x="169" y="309"/>
      <point x="169" y="305"/>
      <point x="169" y="301" type="curve" smooth="yes"/>
      <point x="169" y="300"/>
      <point x="169" y="300"/>
    </contour>
  </outline>
</glyph>
<glyph name="g" format="1">
  <advance width="650"/>
  <unicode hex="0067"/>
  <outline>
    <contour>
      <point x="539" y="356" type="curve" smooth="yes"/>
      <point x="567" y="247"/>
      <point x="582" y="143"/>
      <point x="582" y="57" type="curve" smooth="yes"/>
      <point x="582" y="16"/>
      <point x="579" y="-22"/>
      <point x="572" y="-57" type="curve" smooth="yes"/>
      <point x="550" y="-169"/>
      <point x="477" y="-266"/>
      <point x="333" y="-266" type="curve" smooth="yes"/>
      <point x="260" y="-266"/>
      <point x="189" y="-238"/>
      <point x="155" y="-190" type="curve" smooth="yes"/>
      <point x="152" y="-186"/>
      <point x="150" y="-181"/>
      <point x="150" y="-176" type="curve" smooth="yes"/>
      <point x="150" y="-163"/>
      <point x="161" y="-148"/>
      <point x="179" y="-140" type="curve" smooth="yes"/>
      <point x="188" y="-136"/>
      <point x="197" y="-134"/>
      <point x="206" y="-134" type="curve" smooth="yes"/>
      <point x="222" y="-134"/>
      <point x="237" y="-140"/>
      <point x="245" y="-150" type="curve" smooth="yes"/>
      <point x="265" y="-178"/>
      <point x="306" y="-194"/>
      <point x="347" y="-194" type="curve" smooth="yes"/>
      <point x="409" y="-194"/>
      <point x="459" y="-163"/>
      <point x="480" y="-57" type="curve" smooth="yes"/>
      <point x="488" y="-18"/>
      <point x="493" y="27"/>
      <point x="493" y="78" type="curve" smooth="yes"/>
      <point x="493" y="106"/>
      <point x="492" y="135"/>
      <point x="488" y="166" type="curve"/>
      <point x="460" y="75"/>
      <point x="407" y="-21"/>
      <point x="283" y="-21" type="curve" smooth="yes"/>
      <point x="117" y="-21"/>
      <point x="60" y="105"/>
      <point x="60" y="232" type="curve" smooth="yes"/>
      <point x="60" y="262"/>
      <point x="63" y="292"/>
      <point x="69" y="320" type="curve" smooth="yes"/>
      <point x="96" y="455"/>
      <point x="195" y="621"/>
      <point x="386" y="621" type="curve" smooth="yes"/>
      <point x="526" y="621"/>
      <point x="539" y="496"/>
      <point x="539" y="472" type="curve" smooth="yes"/>
      <point x="539" y="453"/>
      <point x="517" y="435"/>
      <point x="490" y="432" type="curve" smooth="yes"/>
      <point x="488" y="432"/>
      <point x="485" y="432"/>
      <point x="483" y="432" type="curve" smooth="yes"/>
      <point x="459" y="432"/>
      <point x="441" y="445"/>
      <point x="441" y="462" type="curve" smooth="yes"/>
      <point x="441" y="488"/>
      <point x="414" y="549"/>
      <point x="372" y="549" type="curve" smooth="yes"/>
      <point x="283" y="549"/>
      <point x="195" y="456"/>
      <point x="167" y="320" type="curve" smooth="yes"/>
      <point x="162" y="294"/>
      <point x="159" y="268"/>
      <point x="159" y="244" type="curve" smooth="yes"/>
      <point x="159" y="131"/>
      <point x="215" y="51"/>
      <point x="297" y="51" type="curve" smooth="yes"/>
      <point x="356" y="51"/>
      <point x="404" y="111"/>
      <point x="427" y="226" type="curve" smooth="yes"/>
      <point x="434" y="263"/>
      <point x="439" y="301"/>
      <point x="441" y="336" type="curve" smooth="yes"/>
      <point x="442" y="355"/>
      <point x="452" y="376"/>
      <point x="477" y="376" type="curve" smooth="yes"/>
      <point x="501" y="376"/>
      <point x="539" y="356"/>
    </contour>
  </outline>
</glyph>
<glyph name="h" format="1">
  <advance width="670"/>
  <unicode hex="0068"/>
  <outline>
    <contour>
      <point x="133" y="-14" type="curve" smooth="yes"/>
      <point x="118" y="-14"/>
      <point x="106" y="1"/>
      <point x="106" y="15" type="curve" smooth="yes"/>
      <point x="105" y="304"/>
      <point x="87" y="745"/>
      <point x="67" y="796" type="curve" smooth="yes"/>
      <point x="66" y="799"/>
      <point x="65" y="802"/>
      <point x="65" y="805" type="curve" smooth="yes"/>
      <point x="65" y="821"/>
      <point x="80" y="836"/>
      <point x="102" y="843" type="curve" smooth="yes"/>
      <point x="108" y="845"/>
      <point x="116" y="846"/>
      <point x="122" y="846" type="curve" smooth="yes"/>
      <point x="141" y="846"/>
      <point x="158" y="838"/>
      <point x="163" y="824" type="curve" smooth="yes"/>
      <point x="181" y="779"/>
      <point x="191" y="613"/>
      <point x="197" y="425" type="curve"/>
      <point x="230" y="523"/>
      <point x="292" y="621"/>
      <point x="432" y="621" type="curve" smooth="yes"/>
      <point x="570" y="621"/>
      <point x="589" y="503"/>
      <point x="589" y="370" type="curve" smooth="yes"/>
      <point x="589" y="244"/>
      <point x="592" y="136"/>
      <point x="594" y="31" type="curve" smooth="yes"/>
      <point x="594" y="12"/>
      <point x="573" y="-7"/>
      <point x="546" y="-10" type="curve" smooth="yes"/>
      <point x="543" y="-10"/>
      <point x="541" y="-10"/>
      <point x="538" y="-10" type="curve" smooth="yes"/>
      <point x="514" y="-10"/>
      <point x="496" y="2"/>
      <point x="496" y="19" type="curve" smooth="yes"/>
      <point x="494" y="124"/>
      <point x="491" y="234"/>
      <point x="491" y="360" type="curve" smooth="yes"/>
      <point x="491" y="507"/>
      <point x="454" y="549"/>
      <point x="418" y="549" type="curve" smooth="yes"/>
      <point x="333" y="549"/>
      <point x="279" y="461"/>
      <point x="249" y="324" type="curve" smooth="yes"/>
      <point x="211" y="153"/>
      <point x="212" y="106"/>
      <point x="204" y="12" type="curve" smooth="yes"/>
      <point x="204" y="12"/>
      <point x="164" y="-14"/>
    </contour>
  </outline>
</glyph>
<glyph name="i" format="1">
  <advance width="340"/>
  <unicode hex="0069"/>
  <outline>
    <contour>
      <point x="228" y="-8" type="curve" smooth="yes"/>
      <point x="217" y="-16"/>
      <point x="201" y="-21"/>
      <point x="187" y="-21" type="curve" smooth="yes"/>
      <point x="176" y="-21"/>
      <point x="166" y="-18"/>
      <point x="158" y="-13" type="curve" smooth="yes"/>
      <point x="121" y="13"/>
      <point x="114" y="51"/>
      <point x="114" y="98" type="curve" smooth="yes"/>
      <point x="114" y="117"/>
      <point x="115" y="137"/>
      <point x="116" y="158" type="curve"/>
      <point x="118" y="227"/>
      <point x="118" y="282"/>
      <point x="118" y="333" type="curve" smooth="yes"/>
      <point x="118" y="403"/>
      <point x="117" y="469"/>
      <point x="116" y="564" type="curve" smooth="yes"/>
      <point x="116" y="583"/>
      <point x="138" y="602"/>
      <point x="165" y="605" type="curve" smooth="yes"/>
      <point x="168" y="605"/>
      <point x="170" y="605"/>
      <point x="173" y="605" type="curve" smooth="yes"/>
      <point x="196" y="605"/>
      <point x="214" y="593"/>
      <point x="214" y="576" type="curve" smooth="yes"/>
      <point x="215" y="481"/>
      <point x="216" y="415"/>
      <point x="216" y="344" type="curve" smooth="yes"/>
      <point x="216" y="292"/>
      <point x="216" y="238"/>
      <point x="214" y="168" type="curve" smooth="yes"/>
      <point x="214" y="160"/>
      <point x="214" y="152"/>
      <point x="214" y="145" type="curve" smooth="yes"/>
      <point x="214" y="82"/>
      <point x="221" y="50"/>
      <point x="232" y="43" type="curve" smooth="yes"/>
      <point x="240" y="37"/>
      <point x="244" y="30"/>
      <point x="244" y="21" type="curve" smooth="yes"/>
      <point x="244" y="11"/>
      <point x="239" y="0"/>
    </contour>
    <component base="period" xOffset="5" yOffset="730"/>
  </outline>
</glyph>
<glyph name="j" format="1">
  <advance width="340"/>
  <unicode hex="006A"/>
  <outline>
    <contour>
      <point x="172" y="605" type="curve" smooth="yes"/>
      <point x="175" y="605"/>
      <point x="179" y="606"/>
      <point x="182" y="606" type="curve" smooth="yes"/>
      <point x="205" y="606"/>
      <point x="222" y="594"/>
      <point x="224" y="577" type="curve" smooth="yes"/>
      <point x="235" y="452"/>
      <point x="244" y="266"/>
      <point x="244" y="15" type="curve" smooth="yes"/>
      <point x="244" y="-125"/>
      <point x="199" y="-202"/>
      <point x="98" y="-241" type="curve" smooth="yes"/>
      <point x="90" y="-244"/>
      <point x="81" y="-246"/>
      <point x="73" y="-246" type="curve" smooth="yes"/>
      <point x="56" y="-246"/>
      <point x="41" y="-239"/>
      <point x="34" y="-228" type="curve" smooth="yes"/>
      <point x="32" y="-224"/>
      <point x="31" y="-220"/>
      <point x="31" y="-216" type="curve" smooth="yes"/>
      <point x="31" y="-202"/>
      <point x="43" y="-187"/>
      <point x="62" y="-179" type="curve" smooth="yes"/>
      <point x="107" y="-162"/>
      <point x="146" y="-129"/>
      <point x="146" y="5" type="curve" smooth="yes"/>
      <point x="146" y="254"/>
      <point x="137" y="440"/>
      <point x="126" y="563" type="curve" smooth="yes"/>
      <point x="126" y="564"/>
      <point x="126" y="565"/>
      <point x="126" y="566" type="curve" smooth="yes"/>
      <point x="126" y="584"/>
      <point x="146" y="601"/>
    </contour>
    <component base="period" xOffset="5" yOffset="730"/>
  </outline>
</glyph>
<glyph name="k" format="1">
  <advance width="620"/>
  <unicode hex="006B"/>
  <outline>
    <contour>
      <point x="112" y="843" type="curve" smooth="yes"/>
      <point x="118" y="845"/>
      <point x="126" y="846"/>
      <point x="132" y="846" type="curve" smooth="yes"/>
      <point x="151" y="846"/>
      <point x="168" y="838"/>
      <point x="173" y="824" type="curve" smooth="yes"/>
      <point x="191" y="778"/>
      <point x="199" y="607"/>
      <point x="204" y="414" type="curve"/>
      <point x="318" y="477"/>
      <point x="418" y="549"/>
      <point x="464" y="590" type="curve" smooth="yes"/>
      <point x="475" y="600"/>
      <point x="493" y="606"/>
      <point x="509" y="606" type="curve" smooth="yes"/>
      <point x="518" y="606"/>
      <point x="527" y="604"/>
      <point x="534" y="600" type="curve" smooth="yes"/>
      <point x="544" y="594"/>
      <point x="549" y="585"/>
      <point x="549" y="576" type="curve" smooth="yes"/>
      <point x="549" y="567"/>
      <point x="545" y="558"/>
      <point x="536" y="550" type="curve" smooth="yes"/>
      <point x="473" y="495"/>
      <point x="348" y="417"/>
      <point x="217" y="347" type="curve"/>
      <point x="394" y="261"/>
      <point x="558" y="78"/>
      <point x="584" y="46" type="curve" smooth="yes"/>
      <point x="588" y="41"/>
      <point x="590" y="35"/>
      <point x="590" y="30" type="curve" smooth="yes"/>
      <point x="590" y="17"/>
      <point x="580" y="4"/>
      <point x="563" y="-4" type="curve" smooth="yes"/>
      <point x="554" y="-9"/>
      <point x="543" y="-11"/>
      <point x="533" y="-11" type="curve" smooth="yes"/>
      <point x="518" y="-11"/>
      <point x="504" y="-6"/>
      <point x="496" y="4" type="curve" smooth="yes"/>
      <point x="475" y="29"/>
      <point x="347" y="180"/>
      <point x="207" y="265" type="curve"/>
      <point x="208" y="182"/>
      <point x="209" y="99"/>
      <point x="209" y="25" type="curve" smooth="yes"/>
      <point x="209" y="6"/>
      <point x="187" y="-12"/>
      <point x="160" y="-15" type="curve" smooth="yes"/>
      <point x="158" y="-15"/>
      <point x="155" y="-15"/>
      <point x="153" y="-15" type="curve" smooth="yes"/>
      <point x="129" y="-15"/>
      <point x="111" y="-2"/>
      <point x="111" y="15" type="curve" smooth="yes"/>
      <point x="111" y="105"/>
      <point x="109" y="208"/>
      <point x="107" y="311" type="curve" smooth="yes"/>
      <point x="106" y="311"/>
      <point x="106" y="312"/>
      <point x="105" y="312" type="curve" smooth="yes"/>
      <point x="105" y="312"/>
      <point x="69" y="318"/>
      <point x="69" y="333" type="curve" smooth="yes"/>
      <point x="69" y="341"/>
      <point x="78" y="351"/>
      <point x="105" y="364" type="curve"/>
      <point x="99" y="573"/>
      <point x="90" y="764"/>
      <point x="77" y="796" type="curve" smooth="yes"/>
      <point x="76" y="799"/>
      <point x="75" y="802"/>
      <point x="75" y="805" type="curve" smooth="yes"/>
      <point x="75" y="821"/>
      <point x="90" y="836"/>
    </contour>
  </outline>
</glyph>
<glyph name="l" format="1">
  <advance width="360"/>
  <unicode hex="006C"/>
  <outline>
    <contour>
      <point x="210" y="0" type="move" name="LatinBelow.mark"/>
    </contour>
    <contour>
      <point x="180" y="180" type="move" name="LatinAbove.mark"/>
    </contour>
    <contour>
      <point x="320" y="3" type="curve" smooth="yes"/>
      <point x="310" y="-12"/>
      <point x="289" y="-23"/>
      <point x="268" y="-23" type="curve" smooth="yes"/>
      <point x="263" y="-23"/>
      <point x="258" y="-22"/>
      <point x="254" y="-21" type="curve" smooth="yes"/>
      <point x="195" y="-7"/>
      <point x="116" y="32"/>
      <point x="111" y="145" type="curve" smooth="yes"/>
      <point x="107" y="246"/>
      <point x="106" y="333"/>
      <point x="106" y="415" type="curve" smooth="yes"/>
      <point x="106" y="536"/>
      <point x="109" y="651"/>
      <point x="111" y="800" type="curve" smooth="yes"/>
      <point x="111" y="819"/>
      <point x="133" y="837"/>
      <point x="160" y="840" type="curve" smooth="yes"/>
      <point x="167" y="840" type="line" smooth="yes"/>
      <point x="191" y="840"/>
      <point x="209" y="827"/>
      <point x="209" y="810" type="curve" smooth="yes"/>
      <point x="207" y="661"/>
      <point x="204" y="546"/>
      <point x="204" y="425" type="curve" smooth="yes"/>
      <point x="204" y="343"/>
      <point x="205" y="258"/>
      <point x="209" y="157" type="curve" smooth="yes"/>
      <point x="212" y="70"/>
      <point x="261" y="55"/>
      <point x="296" y="47" type="curve" smooth="yes"/>
      <point x="314" y="43"/>
      <point x="325" y="31"/>
      <point x="325" y="18" type="curve" smooth="yes"/>
      <point x="325" y="13"/>
      <point x="323" y="8"/>
    </contour>
  </outline>
</glyph>
<glyph name="n" format="1">
  <advance width="660"/>
  <unicode hex="006E"/>
  <outline>
    <contour>
      <point x="130" y="-15" type="curve" smooth="yes"/>
      <point x="111" y="-15"/>
      <point x="96" y="-1"/>
      <point x="96" y="15" type="curve" smooth="yes"/>
      <point x="95" y="305"/>
      <point x="78" y="511"/>
      <point x="57" y="566" type="curve" smooth="yes"/>
      <point x="56" y="569"/>
      <point x="55" y="572"/>
      <point x="55" y="575" type="curve" smooth="yes"/>
      <point x="55" y="591"/>
      <point x="70" y="606"/>
      <point x="92" y="613" type="curve" smooth="yes"/>
      <point x="98" y="615"/>
      <point x="106" y="616"/>
      <point x="112" y="616" type="curve" smooth="yes"/>
      <point x="131" y="616"/>
      <point x="148" y="608"/>
      <point x="153" y="594" type="curve" smooth="yes"/>
      <point x="167" y="558"/>
      <point x="176" y="492"/>
      <point x="183" y="399" type="curve"/>
      <point x="213" y="505"/>
      <point x="270" y="621"/>
      <point x="422" y="621" type="curve" smooth="yes"/>
      <point x="560" y="621"/>
      <point x="579" y="503"/>
      <point x="579" y="370" type="curve" smooth="yes"/>
      <point x="579" y="244"/>
      <point x="582" y="136"/>
      <point x="584" y="31" type="curve" smooth="yes"/>
      <point x="584" y="12"/>
      <point x="563" y="-7"/>
      <point x="536" y="-10" type="curve" smooth="yes"/>
      <point x="533" y="-10"/>
      <point x="531" y="-10"/>
      <point x="528" y="-10" type="curve" smooth="yes"/>
      <point x="504" y="-10"/>
      <point x="486" y="2"/>
      <point x="486" y="19" type="curve" smooth="yes"/>
      <point x="484" y="124"/>
      <point x="481" y="234"/>
      <point x="481" y="360" type="curve" smooth="yes"/>
      <point x="481" y="507"/>
      <point x="444" y="549"/>
      <point x="408" y="549" type="curve" smooth="yes"/>
      <point x="323" y="549"/>
      <point x="274" y="461"/>
      <point x="244" y="324" type="curve" smooth="yes"/>
      <point x="206" y="153"/>
      <point x="202" y="106"/>
      <point x="194" y="10" type="curve" smooth="yes"/>
      <point x="194" y="10"/>
      <point x="161" y="-15"/>
    </contour>
  </outline>
</glyph>
<glyph name="o" format="1">
  <advance width="660"/>
  <unicode hex="006F"/>
  <outline>
    <contour>
      <point x="456" y="471" type="curve"/>
      <point x="436" y="527"/>
      <point x="383" y="552"/>
      <point x="334" y="552" type="curve" smooth="yes"/>
      <point x="321" y="552"/>
      <point x="309" y="550"/>
      <point x="297" y="547" type="curve" smooth="yes"/>
      <point x="240" y="531"/>
      <point x="159" y="464"/>
      <point x="159" y="300" type="curve" smooth="yes"/>
      <point x="159" y="118"/>
      <point x="269" y="51"/>
      <point x="343" y="51" type="curve" smooth="yes"/>
      <point x="347" y="51"/>
      <point x="351" y="52"/>
      <point x="355" y="52" type="curve" smooth="yes"/>
      <point x="414" y="58"/>
      <point x="506" y="119"/>
      <point x="506" y="285" type="curve" smooth="yes"/>
      <point x="506" y="341"/>
      <point x="480" y="406"/>
      <point x="466" y="416" type="curve"/>
      <point x="451" y="421"/>
      <point x="441" y="431"/>
      <point x="441" y="444" type="curve" smooth="yes"/>
      <point x="441" y="449"/>
      <point x="442" y="455"/>
      <point x="446" y="460" type="curve" smooth="yes"/>
      <point x="448" y="464"/>
      <point x="452" y="468"/>
    </contour>
    <contour>
      <point x="546" y="465" type="curve"/>
      <point x="588" y="428"/>
      <point x="604" y="356"/>
      <point x="604" y="295" type="curve" smooth="yes"/>
      <point x="604" y="119"/>
      <point x="503" y="-3"/>
      <point x="356" y="-19" type="curve" smooth="yes"/>
      <point x="346" y="-20"/>
      <point x="335" y="-21"/>
      <point x="325" y="-21" type="curve" smooth="yes"/>
      <point x="176" y="-21"/>
      <point x="61" y="99"/>
      <point x="61" y="290" type="curve" smooth="yes"/>
      <point x="61" y="468"/>
      <point x="150" y="580"/>
      <point x="277" y="614" type="curve" smooth="yes"/>
      <point x="302" y="621"/>
      <point x="326" y="624"/>
      <point x="350" y="624" type="curve" smooth="yes"/>
      <point x="446" y="624"/>
      <point x="528" y="572"/>
      <point x="553" y="493" type="curve" smooth="yes"/>
      <point x="556" y="484"/>
      <point x="553" y="474"/>
    </contour>
  </outline>
</glyph>
<glyph name="q" format="1">
  <advance width="670"/>
  <unicode hex="0071"/>
  <outline>
    <contour>
      <point x="451" y="58" type="curve" smooth="yes"/>
      <point x="453" y="54"/>
      <point x="454" y="50"/>
      <point x="454" y="46" type="curve" smooth="yes"/>
      <point x="454" y="32"/>
      <point x="442" y="17"/>
      <point x="423" y="9" type="curve" smooth="yes"/>
      <point x="378" y="-8"/>
      <point x="334" y="-17"/>
      <point x="293" y="-17" type="curve" smooth="yes"/>
      <point x="122" y="-17"/>
      <point x="59" y="119"/>
      <point x="59" y="253" type="curve" smooth="yes"/>
      <point x="59" y="282"/>
      <point x="62" y="312"/>
      <point x="68" y="339" type="curve" smooth="yes"/>
      <point x="94" y="469"/>
      <point x="192" y="621"/>
      <point x="387" y="621" type="curve" smooth="yes"/>
      <point x="488" y="621"/>
      <point x="569" y="553"/>
      <point x="569" y="475" type="curve" smooth="yes"/>
      <point x="569" y="322"/>
      <point x="557" y="151"/>
      <point x="557" y="17" type="curve" smooth="yes"/>
      <point x="557" y="-81"/>
      <point x="558" y="-161"/>
      <point x="578" y="-186" type="curve"/>
      <point x="579" y="-185"/>
      <point x="580" y="-185"/>
      <point x="581" y="-184" type="curve" smooth="yes"/>
      <point x="592" y="-177"/>
      <point x="604" y="-174"/>
      <point x="616" y="-174" type="curve" smooth="yes"/>
      <point x="629" y="-174"/>
      <point x="642" y="-178"/>
      <point x="650" y="-185" type="curve" smooth="yes"/>
      <point x="656" y="-191"/>
      <point x="659" y="-198"/>
      <point x="659" y="-205" type="curve" smooth="yes"/>
      <point x="659" y="-216"/>
      <point x="652" y="-228"/>
      <point x="639" y="-236" type="curve" smooth="yes"/>
      <point x="618" y="-249"/>
      <point x="590" y="-261"/>
      <point x="560" y="-261" type="curve" smooth="yes"/>
      <point x="555" y="-261"/>
      <point x="550" y="-261"/>
      <point x="545" y="-260" type="curve" smooth="yes"/>
      <point x="526" y="-257"/>
      <point x="510" y="-251"/>
      <point x="502" y="-241" type="curve" smooth="yes"/>
      <point x="464" y="-197"/>
      <point x="459" y="-104"/>
      <point x="459" y="7" type="curve" smooth="yes"/>
      <point x="459" y="143"/>
      <point x="471" y="314"/>
      <point x="471" y="465" type="curve" smooth="yes"/>
      <point x="471" y="511"/>
      <point x="414" y="549"/>
      <point x="373" y="549" type="curve" smooth="yes"/>
      <point x="271" y="549"/>
      <point x="191" y="465"/>
      <point x="166" y="339" type="curve" smooth="yes"/>
      <point x="161" y="314"/>
      <point x="159" y="289"/>
      <point x="159" y="266" type="curve" smooth="yes"/>
      <point x="159" y="146"/>
      <point x="221" y="54"/>
      <point x="307" y="54" type="curve" smooth="yes"/>
      <point x="328" y="54"/>
      <point x="355" y="59"/>
      <point x="387" y="71" type="curve" smooth="yes"/>
      <point x="395" y="74"/>
      <point x="404" y="76"/>
      <point x="412" y="76" type="curve" smooth="yes"/>
      <point x="429" y="76"/>
      <point x="444" y="69"/>
    </contour>
  </outline>
</glyph>
<glyph name="s" format="1">
  <advance width="570"/>
  <unicode hex="0073"/>
  <outline>
    <contour>
      <point x="97" y="158" type="curve" smooth="yes"/>
      <point x="103" y="160"/>
      <point x="111" y="161"/>
      <point x="117" y="161" type="curve" smooth="yes"/>
      <point x="136" y="161"/>
      <point x="153" y="153"/>
      <point x="158" y="139" type="curve" smooth="yes"/>
      <point x="180" y="83"/>
      <point x="229" y="52"/>
      <point x="301" y="52" type="curve" smooth="yes"/>
      <point x="356" y="52"/>
      <point x="391" y="70"/>
      <point x="412" y="98" type="curve" smooth="yes"/>
      <point x="424" y="114"/>
      <point x="431" y="132"/>
      <point x="431" y="150" type="curve" smooth="yes"/>
      <point x="431" y="188"/>
      <point x="404" y="226"/>
      <point x="344" y="245" type="curve"/>
      <point x="315" y="255"/>
      <point x="216" y="289"/>
      <point x="184" y="300" type="curve"/>
      <point x="97" y="329"/>
      <point x="56" y="387"/>
      <point x="56" y="445" type="curve" smooth="yes"/>
      <point x="56" y="453"/>
      <point x="56" y="461"/>
      <point x="58" y="469" type="curve" smooth="yes"/>
      <point x="74" y="550"/>
      <point x="172" y="626"/>
      <point x="312" y="626" type="curve" smooth="yes"/>
      <point x="422" y="626"/>
      <point x="480" y="558"/>
      <point x="480" y="489" type="curve" smooth="yes"/>
      <point x="480" y="483"/>
      <point x="480" y="477"/>
      <point x="479" y="471" type="curve" smooth="yes"/>
      <point x="476" y="452"/>
      <point x="452" y="435"/>
      <point x="425" y="434" type="curve" smooth="yes"/>
      <point x="424" y="434"/>
      <point x="424" y="434"/>
      <point x="423" y="434" type="curve" smooth="yes"/>
      <point x="399" y="434"/>
      <point x="381" y="448"/>
      <point x="381" y="465" type="curve" smooth="yes"/>
      <point x="381" y="466"/>
      <point x="381" y="468"/>
      <point x="381" y="469" type="curve" smooth="yes"/>
      <point x="382" y="473"/>
      <point x="382" y="476"/>
      <point x="382" y="480" type="curve" smooth="yes"/>
      <point x="382" y="522"/>
      <point x="345" y="554"/>
      <point x="298" y="554" type="curve" smooth="yes"/>
      <point x="207" y="554"/>
      <point x="159" y="514"/>
      <point x="150" y="469" type="curve" smooth="yes"/>
      <point x="149" y="465"/>
      <point x="149" y="461"/>
      <point x="149" y="457" type="curve" smooth="yes"/>
      <point x="149" y="424"/>
      <point x="176" y="390"/>
      <point x="236" y="370" type="curve" smooth="yes"/>
      <point x="270" y="359"/>
      <point x="369" y="324"/>
      <point x="396" y="315" type="curve"/>
      <point x="485" y="287"/>
      <point x="526" y="228"/>
      <point x="526" y="167" type="curve" smooth="yes"/>
      <point x="526" y="134"/>
      <point x="514" y="100"/>
      <point x="491" y="71" type="curve" smooth="yes"/>
      <point x="452" y="20"/>
      <point x="378" y="-20"/>
      <point x="287" y="-20" type="curve" smooth="yes"/>
      <point x="169" y="-20"/>
      <point x="92" y="37"/>
      <point x="62" y="111" type="curve" smooth="yes"/>
      <point x="61" y="114"/>
      <point x="60" y="117"/>
      <point x="60" y="120" type="curve" smooth="yes"/>
      <point x="60" y="136"/>
      <point x="75" y="151"/>
    </contour>
  </outline>
</glyph>
<glyph name="u" format="1">
  <advance width="680"/>
  <unicode hex="0075"/>
  <outline>
    <contour>
      <point x="564" y="592" type="curve" smooth="yes"/>
      <point x="569" y="201"/>
      <point x="600" y="89"/>
      <point x="650" y="45" type="curve" smooth="yes"/>
      <point x="656" y="39"/>
      <point x="659" y="33"/>
      <point x="659" y="26" type="curve" smooth="yes"/>
      <point x="659" y="15"/>
      <point x="652" y="3"/>
      <point x="639" y="-5" type="curve" smooth="yes"/>
      <point x="628" y="-12"/>
      <point x="613" y="-16"/>
      <point x="600" y="-16" type="curve" smooth="yes"/>
      <point x="588" y="-16"/>
      <point x="577" y="-13"/>
      <point x="570" y="-5" type="curve" smooth="yes"/>
      <point x="539" y="30"/>
      <point x="517" y="83"/>
      <point x="503" y="173" type="curve"/>
      <point x="472" y="74"/>
      <point x="414" y="-21"/>
      <point x="283" y="-21" type="curve" smooth="yes"/>
      <point x="150" y="-21"/>
      <point x="86" y="78"/>
      <point x="86" y="230" type="curve" smooth="yes"/>
      <point x="86" y="289"/>
      <point x="87" y="347"/>
      <point x="87" y="402" type="curve" smooth="yes"/>
      <point x="87" y="463"/>
      <point x="86" y="520"/>
      <point x="81" y="567" type="curve" smooth="yes"/>
      <point x="81" y="568"/>
      <point x="81" y="569"/>
      <point x="81" y="570" type="curve" smooth="yes"/>
      <point x="81" y="588"/>
      <point x="101" y="606"/>
      <point x="127" y="610" type="curve" smooth="yes"/>
      <point x="131" y="611"/>
      <point x="134" y="611"/>
      <point x="137" y="611" type="curve" smooth="yes"/>
      <point x="159" y="611"/>
      <point x="177" y="600"/>
      <point x="179" y="583" type="curve" smooth="yes"/>
      <point x="184" y="533"/>
      <point x="185" y="475"/>
      <point x="185" y="413" type="curve" smooth="yes"/>
      <point x="185" y="358"/>
      <point x="184" y="299"/>
      <point x="184" y="240" type="curve" smooth="yes"/>
      <point x="184" y="92"/>
      <point x="248" y="51"/>
      <point x="297" y="51" type="curve" smooth="yes"/>
      <point x="365" y="51"/>
      <point x="416" y="109"/>
      <point x="443" y="245" type="curve" smooth="yes"/>
      <point x="463" y="346"/>
      <point x="467" y="468"/>
      <point x="471" y="571" type="curve" smooth="yes"/>
      <point x="472" y="590"/>
      <point x="493" y="611"/>
      <point x="516" y="611" type="curve" smooth="yes"/>
      <point x="538" y="611"/>
      <point x="564" y="592"/>
    </contour>
  </outline>
</glyph>
<glyph name="v" format="1">
  <advance width="630"/>
  <unicode hex="0076"/>
  <outline>
    <contour>
      <point x="556" y="591" type="curve" smooth="yes"/>
      <point x="578" y="590"/>
      <point x="594" y="577"/>
      <point x="594" y="561" type="curve" smooth="yes"/>
      <point x="594" y="558"/>
      <point x="594" y="556"/>
      <point x="593" y="553" type="curve" smooth="yes"/>
      <point x="568" y="469"/>
      <point x="474" y="222"/>
      <point x="361" y="12" type="curve" smooth="yes"/>
      <point x="361" y="12"/>
      <point x="326" y="-18"/>
      <point x="298" y="-18" type="curve" smooth="yes"/>
      <point x="285" y="-18"/>
      <point x="273" y="-11"/>
      <point x="267" y="7" type="curve" smooth="yes"/>
      <point x="266" y="10"/>
      <point x="264" y="14"/>
      <point x="263" y="18" type="curve" smooth="yes"/>
      <point x="220" y="143"/>
      <point x="116" y="420"/>
      <point x="39" y="547" type="curve" smooth="yes"/>
      <point x="37" y="551"/>
      <point x="35" y="556"/>
      <point x="35" y="560" type="curve" smooth="yes"/>
      <point x="35" y="574"/>
      <point x="47" y="588"/>
      <point x="66" y="596" type="curve" smooth="yes"/>
      <point x="74" y="599"/>
      <point x="83" y="601"/>
      <point x="91" y="601" type="curve" smooth="yes"/>
      <point x="108" y="601"/>
      <point x="124" y="594"/>
      <point x="131" y="583" type="curve" smooth="yes"/>
      <point x="197" y="475"/>
      <point x="274" y="270"/>
      <point x="326" y="129" type="curve"/>
      <point x="410" y="302"/>
      <point x="478" y="494"/>
      <point x="497" y="557" type="curve" smooth="yes"/>
      <point x="503" y="575"/>
      <point x="529" y="591"/>
      <point x="554" y="591" type="curve" smooth="yes"/>
      <point x="555" y="591"/>
      <point x="555" y="591"/>
    </contour>
  </outline>
</glyph>
<glyph name="w" format="1">
  <advance width="840"/>
  <unicode hex="0077"/>
  <outline>
    <contour>
      <point x="420" y="0" type="move" name="LatinBelow.mark"/>
    </contour>
    <contour>
      <point x="420" y="0" type="move" name="LatinAbove.mark"/>
    </contour>
    <contour>
      <point x="763" y="601" type="line" smooth="yes"/>
      <point x="785" y="599"/>
      <point x="800" y="586"/>
      <point x="800" y="570" type="curve" smooth="yes"/>
      <point x="800" y="567"/>
      <point x="799" y="564"/>
      <point x="798" y="561" type="curve" smooth="yes"/>
      <point x="747" y="419"/>
      <point x="709" y="253"/>
      <point x="647" y="18" type="curve"/>
      <point x="647" y="18"/>
      <point x="607" y="-11"/>
      <point x="578" y="-11" type="curve" smooth="yes"/>
      <point x="566" y="-11"/>
      <point x="557" y="-6"/>
      <point x="552" y="7" type="curve" smooth="yes"/>
      <point x="522" y="93"/>
      <point x="458" y="307"/>
      <point x="414" y="429" type="curve"/>
      <point x="371" y="297"/>
      <point x="310" y="80"/>
      <point x="286" y="11" type="curve"/>
      <point x="286" y="11"/>
      <point x="245" y="-15"/>
      <point x="217" y="-15" type="curve" smooth="yes"/>
      <point x="205" y="-15"/>
      <point x="195" y="-10"/>
      <point x="191" y="4" type="curve" smooth="yes"/>
      <point x="143" y="197"/>
      <point x="80" y="435"/>
      <point x="42" y="552" type="curve" smooth="yes"/>
      <point x="41" y="554"/>
      <point x="41" y="556"/>
      <point x="41" y="559" type="curve" smooth="yes"/>
      <point x="41" y="575"/>
      <point x="57" y="592"/>
      <point x="79" y="598" type="curve" smooth="yes"/>
      <point x="85" y="600"/>
      <point x="91" y="600"/>
      <point x="97" y="600" type="curve" smooth="yes"/>
      <point x="116" y="600"/>
      <point x="133" y="592"/>
      <point x="138" y="578" type="curve" smooth="yes"/>
      <point x="166" y="490"/>
      <point x="218" y="300"/>
      <point x="252" y="148" type="curve"/>
      <point x="295" y="298"/>
      <point x="356" y="513"/>
      <point x="375" y="545" type="curve" smooth="yes"/>
      <point x="390" y="570"/>
      <point x="405" y="578"/>
      <point x="418" y="578" type="curve" smooth="yes"/>
      <point x="440" y="578"/>
      <point x="456" y="554"/>
      <point x="456" y="554" type="curve"/>
      <point x="477" y="523"/>
      <point x="550" y="303"/>
      <point x="599" y="148" type="curve"/>
      <point x="632" y="299"/>
      <point x="667" y="459"/>
      <point x="707" y="569" type="curve" smooth="yes"/>
      <point x="714" y="587"/>
      <point x="734" y="601"/>
      <point x="758" y="601" type="curve" smooth="yes"/>
    </contour>
  </outline>
</glyph>
<glyph name="x" format="1">
  <advance width="600"/>
  <unicode hex="0078"/>
  <outline>
    <contour>
      <point x="300" y="0" type="move" name="LatinBelow.mark"/>
    </contour>
    <contour>
      <point x="300" y="0" type="move" name="LatinAbove.mark"/>
    </contour>
    <contour>
      <point x="99" y="595" type="curve" smooth="yes"/>
      <point x="108" y="599"/>
      <point x="117" y="601"/>
      <point x="126" y="601" type="curve" smooth="yes"/>
      <point x="143" y="601"/>
      <point x="158" y="594"/>
      <point x="165" y="584" type="curve" smooth="yes"/>
      <point x="213" y="514"/>
      <point x="254" y="449"/>
      <point x="295" y="393" type="curve"/>
      <point x="339" y="449"/>
      <point x="387" y="513"/>
      <point x="444" y="580" type="curve" smooth="yes"/>
      <point x="455" y="593"/>
      <point x="474" y="600"/>
      <point x="492" y="600" type="curve" smooth="yes"/>
      <point x="499" y="600"/>
      <point x="506" y="599"/>
      <point x="512" y="597" type="curve" smooth="yes"/>
      <point x="526" y="592"/>
      <point x="534" y="582"/>
      <point x="534" y="570" type="curve" smooth="yes"/>
      <point x="534" y="563"/>
      <point x="531" y="557"/>
      <point x="526" y="550" type="curve" smooth="yes"/>
      <point x="456" y="466"/>
      <point x="394" y="397"/>
      <point x="341" y="329" type="curve"/>
      <point x="403" y="247"/>
      <point x="473" y="166"/>
      <point x="563" y="62" type="curve" smooth="yes"/>
      <point x="567" y="57"/>
      <point x="569" y="52"/>
      <point x="569" y="46" type="curve" smooth="yes"/>
      <point x="569" y="34"/>
      <point x="560" y="20"/>
      <point x="544" y="12" type="curve" smooth="yes"/>
      <point x="534" y="7"/>
      <point x="523" y="5"/>
      <point x="513" y="5" type="curve" smooth="yes"/>
      <point x="498" y="5"/>
      <point x="485" y="9"/>
      <point x="477" y="18" type="curve" smooth="yes"/>
      <point x="400" y="107"/>
      <point x="340" y="185"/>
      <point x="286" y="256" type="curve"/>
      <point x="233" y="185"/>
      <point x="180" y="106"/>
      <point x="118" y="18" type="curve" smooth="yes"/>
      <point x="108" y="4"/>
      <point x="87" y="-6"/>
      <point x="67" y="-6" type="curve" smooth="yes"/>
      <point x="62" y="-6"/>
      <point x="56" y="-5"/>
      <point x="51" y="-4" type="curve" smooth="yes"/>
      <point x="35" y="1"/>
      <point x="26" y="12"/>
      <point x="26" y="24" type="curve" smooth="yes"/>
      <point x="26" y="30"/>
      <point x="28" y="36"/>
      <point x="32" y="42" type="curve" smooth="yes"/>
      <point x="107" y="148"/>
      <point x="173" y="234"/>
      <point x="239" y="320" type="curve"/>
      <point x="188" y="389"/>
      <point x="134" y="460"/>
      <point x="75" y="546" type="curve" smooth="yes"/>
      <point x="72" y="550"/>
      <point x="71" y="555"/>
      <point x="71" y="560" type="curve" smooth="yes"/>
      <point x="71" y="573"/>
      <point x="81" y="587"/>
    </contour>
  </outline>
</glyph>
<glyph name="y" format="1">
  <advance width="630"/>
  <unicode hex="0079"/>
  <outline>
    <contour>
      <point x="574" y="573" type="curve" smooth="yes"/>
      <point x="554" y="382"/>
      <point x="542" y="283"/>
      <point x="519" y="151" type="curve" smooth="yes"/>
      <point x="493" y="5"/>
      <point x="475" y="-131"/>
      <point x="400" y="-207" type="curve" smooth="yes"/>
      <point x="366" y="-241"/>
      <point x="321" y="-257"/>
      <point x="272" y="-257" type="curve" smooth="yes"/>
      <point x="233" y="-257"/>
      <point x="191" y="-247"/>
      <point x="149" y="-228" type="curve" smooth="yes"/>
      <point x="137" y="-222"/>
      <point x="130" y="-213"/>
      <point x="130" y="-202" type="curve" smooth="yes"/>
      <point x="130" y="-194"/>
      <point x="136" y="-183"/>
      <point x="143" y="-176" type="curve" smooth="yes"/>
      <point x="154" y="-165"/>
      <point x="171" y="-154"/>
      <point x="188" y="-154" type="curve" smooth="yes"/>
      <point x="196" y="-154"/>
      <point x="204" y="-156"/>
      <point x="211" y="-159" type="curve" smooth="yes"/>
      <point x="247" y="-177"/>
      <point x="265" y="-185"/>
      <point x="282" y="-185" type="curve" smooth="yes"/>
      <point x="302" y="-185"/>
      <point x="312" y="-177"/>
      <point x="322" y="-169" type="curve" smooth="yes"/>
      <point x="369" y="-130"/>
      <point x="399" y="-24"/>
      <point x="423" y="106" type="curve"/>
      <point x="393" y="49"/>
      <point x="355" y="4"/>
      <point x="288" y="4" type="curve" smooth="yes"/>
      <point x="141" y="4"/>
      <point x="117" y="223"/>
      <point x="56" y="560" type="curve" smooth="yes"/>
      <point x="56" y="561"/>
      <point x="56" y="563"/>
      <point x="56" y="564" type="curve" smooth="yes"/>
      <point x="56" y="582"/>
      <point x="74" y="599"/>
      <point x="99" y="604" type="curve" smooth="yes"/>
      <point x="104" y="605"/>
      <point x="109" y="605"/>
      <point x="113" y="605" type="curve" smooth="yes"/>
      <point x="134" y="605"/>
      <point x="152" y="596"/>
      <point x="154" y="580" type="curve" smooth="yes"/>
      <point x="208" y="247"/>
      <point x="244" y="89"/>
      <point x="303" y="76" type="curve"/>
      <point x="332" y="80"/>
      <point x="392" y="156"/>
      <point x="422" y="262" type="curve" smooth="yes"/>
      <point x="448" y="356"/>
      <point x="463" y="478"/>
      <point x="476" y="559" type="curve" smooth="yes"/>
      <point x="479" y="575"/>
      <point x="497" y="594"/>
      <point x="518" y="594" type="curve" smooth="yes"/>
      <point x="548" y="594"/>
      <point x="574" y="573"/>
    </contour>
  </outline>
</glyph>
<glyph name="z" format="1">
  <advance width="590"/>
  <unicode hex="007A"/>
  <outline>
    <contour>
      <point x="554" y="38" type="line" smooth="yes"/>
      <point x="553" y="19"/>
      <point x="527" y="0"/>
      <point x="497" y="-3" type="curve" smooth="yes"/>
      <point x="452" y="-7"/>
      <point x="349" y="-17"/>
      <point x="253" y="-17" type="curve" smooth="yes"/>
      <point x="145" y="-17"/>
      <point x="46" y="-5"/>
      <point x="46" y="43" type="curve" smooth="yes"/>
      <point x="46" y="118"/>
      <point x="215" y="305"/>
      <point x="392" y="529" type="curve"/>
      <point x="345" y="527"/>
      <point x="303" y="525"/>
      <point x="260" y="525" type="curve" smooth="yes"/>
      <point x="213" y="525"/>
      <point x="163" y="527"/>
      <point x="101" y="530" type="curve" smooth="yes"/>
      <point x="77" y="532"/>
      <point x="61" y="543"/>
      <point x="61" y="559" type="curve" smooth="yes"/>
      <point x="61" y="562"/>
      <point x="62" y="566"/>
      <point x="63" y="569" type="curve" smooth="yes"/>
      <point x="71" y="588"/>
      <point x="97" y="602"/>
      <point x="124" y="602" type="curve" smooth="yes"/>
      <point x="126" y="602"/>
      <point x="127" y="602"/>
      <point x="129" y="602" type="curve" smooth="yes"/>
      <point x="187" y="599"/>
      <point x="233" y="597"/>
      <point x="276" y="597" type="curve" smooth="yes"/>
      <point x="340" y="597"/>
      <point x="398" y="601"/>
      <point x="485" y="606" type="curve" smooth="yes"/>
      <point x="490" y="606"/>
      <point x="495" y="606"/>
      <point x="499" y="606" type="curve" smooth="yes"/>
      <point x="532" y="606"/>
      <point x="541" y="597"/>
      <point x="541" y="586" type="curve" smooth="yes"/>
      <point x="541" y="573"/>
      <point x="527" y="558"/>
      <point x="527" y="558" type="curve" smooth="yes"/>
      <point x="353" y="335"/>
      <point x="186" y="134"/>
      <point x="158" y="68" type="curve"/>
      <point x="186" y="63"/>
      <point x="240" y="61"/>
      <point x="299" y="61" type="curve" smooth="yes"/>
      <point x="371" y="61"/>
      <point x="451" y="64"/>
      <point x="503" y="69" type="curve" smooth="yes"/>
      <point x="506" y="69"/>
      <point x="509" y="69"/>
      <point x="511" y="69" type="curve" smooth="yes"/>
      <point x="536" y="69"/>
      <point x="554" y="56"/>
      <point x="554" y="39" type="curve" smooth="yes"/>
    </contour>
  </outline>
</glyph>
<glyph name="braceleft" format="1">
  <advance width="360"/>
  <unicode hex="007B"/>
  <outline>
    <contour>
      <point x="299" y="860" type="curve" smooth="yes"/>
      <point x="296" y="844"/>
      <point x="275" y="831"/>
      <point x="254" y="831" type="curve" smooth="yes"/>
      <point x="243" y="831"/>
      <point x="235" y="831"/>
      <point x="228" y="830" type="curve" smooth="yes"/>
      <point x="203" y="826"/>
      <point x="194" y="810"/>
      <point x="194" y="772" type="curve" smooth="yes"/>
      <point x="194" y="745"/>
      <point x="199" y="707"/>
      <point x="205" y="655" type="curve"/>
      <point x="209" y="620"/>
      <point x="215" y="583"/>
      <point x="215" y="548" type="curve" smooth="yes"/>
      <point x="215" y="491"/>
      <point x="200" y="437"/>
      <point x="140" y="399" type="curve"/>
      <point x="195" y="358"/>
      <point x="207" y="302"/>
      <point x="207" y="247" type="curve" smooth="yes"/>
      <point x="207" y="218"/>
      <point x="204" y="190"/>
      <point x="201" y="164" type="curve"/>
      <point x="196" y="121"/>
      <point x="192" y="85"/>
      <point x="192" y="55" type="curve" smooth="yes"/>
      <point x="192" y="0"/>
      <point x="207" y="-31"/>
      <point x="266" y="-31" type="curve" smooth="yes"/>
      <point x="285" y="-31"/>
      <point x="299" y="-42"/>
      <point x="299" y="-56" type="curve" smooth="yes"/>
      <point x="299" y="-57"/>
      <point x="299" y="-59"/>
      <point x="299" y="-60" type="curve" smooth="yes"/>
      <point x="296" y="-76"/>
      <point x="275" y="-89"/>
      <point x="254" y="-89" type="curve" smooth="yes"/>
      <point x="137" y="-89"/>
      <point x="112" y="-25"/>
      <point x="112" y="46" type="curve" smooth="yes"/>
      <point x="112" y="85"/>
      <point x="119" y="126"/>
      <point x="123" y="160" type="curve" smooth="yes"/>
      <point x="126" y="186"/>
      <point x="128" y="211"/>
      <point x="128" y="235" type="curve" smooth="yes"/>
      <point x="128" y="296"/>
      <point x="112" y="348"/>
      <point x="47" y="375" type="curve" smooth="yes"/>
      <point x="29" y="383"/>
      <point x="22" y="390"/>
      <point x="22" y="397" type="curve" smooth="yes"/>
      <point x="22" y="414"/>
      <point x="61" y="427"/>
      <point x="61" y="427" type="curve" smooth="yes"/>
      <point x="117" y="442"/>
      <point x="134" y="482"/>
      <point x="134" y="546" type="curve" smooth="yes"/>
      <point x="134" y="573"/>
      <point x="131" y="605"/>
      <point x="127" y="641" type="curve"/>
      <point x="123" y="678"/>
      <point x="113" y="721"/>
      <point x="113" y="761" type="curve" smooth="yes"/>
      <point x="113" y="819"/>
      <point x="134" y="871"/>
      <point x="222" y="885" type="curve" smooth="yes"/>
      <point x="236" y="887"/>
      <point x="251" y="889"/>
      <point x="266" y="889" type="curve" smooth="yes"/>
      <point x="285" y="889"/>
      <point x="299" y="878"/>
      <point x="299" y="864" type="curve" smooth="yes"/>
      <point x="299" y="863"/>
      <point x="299" y="861"/>
    </contour>
  </outline>
</glyph>
<glyph name="guillemotleft" format="1">
  <advance width="720"/>
  <unicode hex="00AB"/>
  <outline>
    <contour>
      <point x="633" y="74" type="curve" smooth="yes"/>
      <point x="623" y="68"/>
      <point x="613" y="65"/>
      <point x="603" y="65" type="curve" smooth="yes"/>
      <point x="592" y="65"/>
      <point x="582" y="69"/>
      <point x="574" y="76" type="curve" smooth="yes"/>
      <point x="517" y="129"/>
      <point x="404" y="234"/>
      <point x="341" y="320" type="curve" smooth="yes"/>
      <point x="338" y="324"/>
      <point x="336" y="329"/>
      <point x="336" y="334" type="curve" smooth="yes"/>
      <point x="336" y="343"/>
      <point x="341" y="352"/>
      <point x="349" y="360" type="curve" smooth="yes"/>
      <point x="429" y="430"/>
      <point x="531" y="537"/>
      <point x="560" y="589" type="curve" smooth="yes"/>
      <point x="569" y="605"/>
      <point x="584" y="616"/>
      <point x="603" y="616" type="curve" smooth="yes"/>
      <point x="607" y="616"/>
      <point x="610" y="616"/>
      <point x="614" y="615" type="curve" smooth="yes"/>
      <point x="630" y="612"/>
      <point x="636" y="603"/>
      <point x="636" y="592" type="curve" smooth="yes"/>
      <point x="636" y="586"/>
      <point x="634" y="578"/>
      <point x="630" y="571" type="curve" smooth="yes"/>
      <point x="596" y="510"/>
      <point x="526" y="417"/>
      <point x="444" y="341" type="curve"/>
      <point x="503" y="265"/>
      <point x="586" y="171"/>
      <point x="636" y="124" type="curve" smooth="yes"/>
      <point x="644" y="117"/>
      <point x="648" y="107"/>
      <point x="648" y="98" type="curve" smooth="yes"/>
      <point x="648" y="89"/>
      <point x="644" y="80"/>
    </contour>
    <contour>
      <point x="363" y="74" type="curve" smooth="yes"/>
      <point x="353" y="68"/>
      <point x="343" y="65"/>
      <point x="333" y="65" type="curve" smooth="yes"/>
      <point x="322" y="65"/>
      <point x="312" y="69"/>
      <point x="304" y="76" type="curve" smooth="yes"/>
      <point x="247" y="129"/>
      <point x="134" y="234"/>
      <point x="71" y="320" type="curve" smooth="yes"/>
      <point x="68" y="324"/>
      <point x="66" y="329"/>
      <point x="66" y="334" type="curve" smooth="yes"/>
      <point x="66" y="343"/>
      <point x="71" y="352"/>
      <point x="79" y="360" type="curve" smooth="yes"/>
      <point x="159" y="430"/>
      <point x="261" y="537"/>
      <point x="290" y="589" type="curve" smooth="yes"/>
      <point x="299" y="605"/>
      <point x="314" y="616"/>
      <point x="333" y="616" type="curve" smooth="yes"/>
      <point x="337" y="616"/>
      <point x="340" y="616"/>
      <point x="344" y="615" type="curve" smooth="yes"/>
      <point x="360" y="612"/>
      <point x="366" y="603"/>
      <point x="366" y="592" type="curve" smooth="yes"/>
      <point x="366" y="586"/>
      <point x="364" y="578"/>
      <point x="360" y="571" type="curve" smooth="yes"/>
      <point x="326" y="510"/>
      <point x="256" y="417"/>
      <point x="174" y="341" type="curve"/>
      <point x="233" y="265"/>
      <point x="316" y="171"/>
      <point x="366" y="124" type="curve" smooth="yes"/>
      <point x="374" y="117"/>
      <point x="378" y="107"/>
      <point x="378" y="98" type="curve" smooth="yes"/>
      <point x="378" y="89"/>
      <point x="374" y="80"/>
    </contour>
  </outline>
</glyph>
<glyph name="uni0E01" format="1">
  <advance width="660"/>
  <unicode hex="0E01"/>
  <outline>
    <contour>
      <point x="138" y="-16" type="curve" smooth="yes"/>
      <point x="136" y="-16"/>
      <point x="135" y="-16"/>
      <point x="133" y="-16" type="curve" smooth="yes"/>
      <point x="109" y="-16"/>
      <point x="91" y="-2"/>
      <point x="91" y="15" type="curve" smooth="yes"/>
      <point x="91" y="16" type="line" smooth="yes"/>
      <point x="98" y="175"/>
      <point x="105" y="304"/>
      <point x="105" y="396" type="curve" smooth="yes"/>
      <point x="105" y="462"/>
      <point x="100" y="509"/>
      <point x="92" y="531" type="curve" smooth="yes"/>
      <point x="91" y="534"/>
      <point x="91" y="536"/>
      <point x="91" y="539" type="curve" smooth="yes"/>
      <point x="91" y="553"/>
      <point x="102" y="567"/>
      <point x="118" y="574" type="curve" smooth="yes"/>
      <point x="192" y="609"/>
      <point x="307" y="616"/>
      <point x="387" y="616" type="curve" smooth="yes"/>
      <point x="486" y="616"/>
      <point x="574" y="569"/>
      <point x="574" y="470" type="curve" smooth="yes"/>
      <point x="574" y="421"/>
      <point x="565" y="313"/>
      <point x="565" y="185" type="curve" smooth="yes"/>
      <point x="565" y="140"/>
      <point x="566" y="94"/>
      <point x="569" y="47" type="curve" smooth="yes"/>
      <point x="569" y="46" type="line" smooth="yes"/>
      <point x="569" y="27"/>
      <point x="548" y="9"/>
      <point x="522" y="5" type="curve" smooth="yes"/>
      <point x="519" y="5"/>
      <point x="515" y="4"/>
      <point x="512" y="4" type="curve" smooth="yes"/>
      <point x="489" y="4"/>
      <point x="472" y="16"/>
      <point x="471" y="33" type="curve" smooth="yes"/>
      <point x="468" y="82"/>
      <point x="467" y="130"/>
      <point x="467" y="175" type="curve" smooth="yes"/>
      <point x="467" y="305"/>
      <point x="476" y="415"/>
      <point x="476" y="460" type="curve" smooth="yes"/>
      <point x="476" y="525"/>
      <point x="430" y="544"/>
      <point x="373" y="544" type="curve" smooth="yes"/>
      <point x="319" y="544"/>
      <point x="246" y="539"/>
      <point x="196" y="527" type="curve"/>
      <point x="201" y="497"/>
      <point x="203" y="455"/>
      <point x="203" y="406" type="curve" smooth="yes"/>
      <point x="203" y="312"/>
      <point x="196" y="183"/>
      <point x="189" y="24" type="curve" smooth="yes"/>
      <point x="188" y="5"/>
      <point x="165" y="-14"/>
    </contour>
  </outline>
</glyph>
<glyph name="uni0E04" format="1">
  <advance width="660"/>
  <unicode hex="0E04"/>
  <outline>
    <contour>
      <point x="660" y="0" type="move" name="ThaiOpt.mark"/>
    </contour>
    <contour>
      <point x="660" y="0" type="move" name="ThaiAbove.mark"/>
    </contour>
    <contour>
      <point x="387" y="358" type="curve" smooth="yes"/>
      <point x="390" y="354"/>
      <point x="391" y="350"/>
      <point x="391" y="345" type="curve" smooth="yes"/>
      <point x="391" y="333"/>
      <point x="382" y="319"/>
      <point x="365" y="312" type="curve" smooth="yes"/>
      <point x="247" y="260"/>
      <point x="240" y="46"/>
      <point x="230" y="17" type="curve" smooth="yes"/>
      <point x="230" y="17"/>
      <point x="205" y="-19"/>
      <point x="176" y="-19" type="curve" smooth="yes"/>
      <point x="165" y="-19"/>
      <point x="154" y="-13"/>
      <point x="143" y="1" type="curve" smooth="yes"/>
      <point x="128" y="21"/>
      <point x="85" y="158"/>
      <point x="64" y="291" type="curve"/>
      <point x="61" y="311"/>
      <point x="59" y="330"/>
      <point x="59" y="348" type="curve" smooth="yes"/>
      <point x="59" y="363"/>
      <point x="60" y="378"/>
      <point x="62" y="392" type="curve" smooth="yes"/>
      <point x="81" y="527"/>
      <point x="198" y="614"/>
      <point x="329" y="618" type="curve" smooth="yes"/>
      <point x="332" y="618"/>
      <point x="336" y="618"/>
      <point x="339" y="618" type="curve" smooth="yes"/>
      <point x="481" y="618"/>
      <point x="600" y="522"/>
      <point x="600" y="355" type="curve" smooth="yes"/>
      <point x="600" y="338"/>
      <point x="599" y="320"/>
      <point x="596" y="301" type="curve"/>
      <point x="578" y="176"/>
      <point x="531" y="28"/>
      <point x="530" y="26" type="curve"/>
      <point x="523" y="8"/>
      <point x="501" y="-4"/>
      <point x="479" y="-4" type="curve" smooth="yes"/>
      <point x="477" y="-4"/>
      <point x="476" y="-4"/>
      <point x="474" y="-4" type="curve" smooth="yes"/>
      <point x="453" y="-2"/>
      <point x="439" y="10"/>
      <point x="439" y="25" type="curve" smooth="yes"/>
      <point x="439" y="28"/>
      <point x="439" y="30"/>
      <point x="440" y="33" type="curve" smooth="yes"/>
      <point x="440" y="33"/>
      <point x="487" y="181"/>
      <point x="504" y="299" type="curve" smooth="yes"/>
      <point x="506" y="316"/>
      <point x="508" y="333"/>
      <point x="508" y="348" type="curve" smooth="yes"/>
      <point x="508" y="493"/>
      <point x="406" y="551"/>
      <point x="325" y="551" type="curve" smooth="yes"/>
      <point x="323" y="551"/>
      <point x="321" y="551"/>
      <point x="319" y="551" type="curve" smooth="yes"/>
      <point x="251" y="549"/>
      <point x="171" y="507"/>
      <point x="155" y="395" type="curve" smooth="yes"/>
      <point x="153" y="383"/>
      <point x="152" y="370"/>
      <point x="152" y="357" type="curve" smooth="yes"/>
      <point x="152" y="342"/>
      <point x="154" y="326"/>
      <point x="156" y="309" type="curve" smooth="yes"/>
      <point x="160" y="274"/>
      <point x="169" y="231"/>
      <point x="185" y="170" type="curve"/>
      <point x="199" y="239"/>
      <point x="237" y="331"/>
      <point x="325" y="368" type="curve" smooth="yes"/>
      <point x="333" y="371"/>
      <point x="342" y="373"/>
      <point x="350" y="373" type="curve" smooth="yes"/>
      <point x="365" y="373"/>
      <point x="380" y="368"/>
    </contour>
  </outline>
</glyph>
<glyph name="uni0E06" format="1">
  <advance width="670"/>
  <unicode hex="0E06"/>
  <outline>
    <contour>
      <point x="240" y="214" type="curve" smooth="yes"/>
      <point x="223" y="220"/>
      <point x="204" y="223"/>
      <point x="193" y="223" type="curve" smooth="yes"/>
      <point x="162" y="223"/>
      <point x="132" y="213"/>
      <point x="122" y="164" type="curve" smooth="yes"/>
      <point x="120" y="155"/>
      <point x="120" y="146"/>
      <point x="120" y="135" type="curve" smooth="yes"/>
      <point x="120" y="59"/>
      <point x="166" y="36"/>
      <point x="199" y="33" type="curve"/>
      <point x="208" y="46"/>
      <point x="220" y="85"/>
      <point x="228" y="127" type="curve" smooth="yes"/>
      <point x="233" y="150"/>
      <point x="236" y="176"/>
      <point x="239" y="204" type="curve" smooth="yes"/>
      <point x="239" y="207"/>
      <point x="240" y="211"/>
    </contour>
    <contour>
      <point x="490" y="-10" type="curve"/>
      <point x="468" y="26"/>
      <point x="413" y="93"/>
      <point x="360" y="140" type="curve" smooth="yes"/>
      <point x="347" y="151"/>
      <point x="327" y="166"/>
      <point x="315" y="175" type="curve"/>
      <point x="313" y="161"/>
      <point x="311" y="151"/>
      <point x="308" y="135" type="curve" smooth="yes"/>
      <point x="297" y="74"/>
      <point x="286" y="7"/>
      <point x="231" y="-19" type="curve" smooth="yes"/>
      <point x="220" y="-24"/>
      <point x="206" y="-27"/>
      <point x="193" y="-27" type="curve" smooth="yes"/>
      <point x="102" y="-27"/>
      <point x="35" y="22"/>
      <point x="35" y="125" type="curve" smooth="yes"/>
      <point x="35" y="138"/>
      <point x="37" y="151"/>
      <point x="39" y="163" type="curve" smooth="yes"/>
      <point x="53" y="233"/>
      <point x="117" y="287"/>
      <point x="207" y="287" type="curve" smooth="yes"/>
      <point x="222" y="287"/>
      <point x="234" y="282"/>
      <point x="245" y="280" type="curve"/>
      <point x="248" y="338"/>
      <point x="251" y="403"/>
      <point x="251" y="460" type="curve" smooth="yes"/>
      <point x="251" y="484"/>
      <point x="248" y="508"/>
      <point x="243" y="529" type="curve"/>
      <point x="205" y="484"/>
      <point x="170" y="446"/>
      <point x="154" y="425" type="curve" smooth="yes"/>
      <point x="141" y="408"/>
      <point x="129" y="403"/>
      <point x="118" y="403" type="curve" smooth="yes"/>
      <point x="102" y="403"/>
      <point x="90" y="414"/>
      <point x="90" y="414" type="curve"/>
      <point x="62" y="434"/>
      <point x="33" y="479"/>
      <point x="11" y="582" type="curve" smooth="yes"/>
      <point x="11" y="583"/>
      <point x="11" y="585"/>
      <point x="11" y="586" type="curve" smooth="yes"/>
      <point x="11" y="600"/>
      <point x="25" y="612"/>
      <point x="44" y="617" type="curve" smooth="yes"/>
      <point x="48" y="618"/>
      <point x="52" y="618"/>
      <point x="56" y="618" type="curve" smooth="yes"/>
      <point x="73" y="618"/>
      <point x="87" y="610"/>
      <point x="89" y="598" type="curve" smooth="yes"/>
      <point x="100" y="548"/>
      <point x="113" y="513"/>
      <point x="124" y="492" type="curve"/>
      <point x="151" y="523"/>
      <point x="183" y="558"/>
      <point x="216" y="601" type="curve" smooth="yes"/>
      <point x="223" y="609"/>
      <point x="236" y="619"/>
      <point x="254" y="619" type="curve" smooth="yes"/>
      <point x="260" y="619"/>
      <point x="267" y="618"/>
      <point x="274" y="615" type="curve" smooth="yes"/>
      <point x="329" y="590"/>
      <point x="335" y="521"/>
      <point x="335" y="470" type="curve" smooth="yes"/>
      <point x="335" y="401"/>
      <point x="332" y="325"/>
      <point x="327" y="255" type="curve"/>
      <point x="327" y="255"/>
      <point x="327" y="254"/>
      <point x="327" y="253" type="curve" smooth="yes"/>
      <point x="330" y="251"/>
      <point x="334" y="250"/>
      <point x="337" y="248" type="curve" smooth="yes"/>
      <point x="368" y="227"/>
      <point x="394" y="206"/>
      <point x="425" y="175" type="curve" smooth="yes"/>
      <point x="445" y="155"/>
      <point x="467" y="130"/>
      <point x="486" y="106" type="curve"/>
      <point x="490" y="360"/>
      <point x="490" y="465"/>
      <point x="494" y="571" type="curve" smooth="yes"/>
      <point x="495" y="589"/>
      <point x="516" y="606"/>
      <point x="541" y="608" type="curve" smooth="yes"/>
      <point x="543" y="608"/>
      <point x="544" y="608"/>
      <point x="546" y="608" type="curve" smooth="yes"/>
      <point x="568" y="608"/>
      <point x="586" y="596"/>
      <point x="586" y="580" type="curve" smooth="yes"/>
      <point x="586" y="579" type="line" smooth="yes"/>
      <point x="582" y="460"/>
      <point x="581" y="345"/>
      <point x="576" y="15" type="curve" smooth="yes"/>
      <point x="576" y="-3"/>
      <point x="555" y="-23"/>
      <point x="539" y="-23" type="curve" smooth="yes"/>
      <point x="516" y="-23"/>
      <point x="490" y="-10"/>
    </contour>
  </outline>
</glyph>
<glyph name="uni0E07" format="1">
  <advance width="540"/>
  <unicode hex="0E07"/>
  <outline>
    <contour>
      <point x="164" y="512" type="curve" smooth="yes"/>
      <point x="155" y="518"/>
      <point x="151" y="526"/>
      <point x="151" y="535" type="curve" smooth="yes"/>
      <point x="151" y="545"/>
      <point x="156" y="555"/>
      <point x="167" y="563" type="curve" smooth="yes"/>
      <point x="209" y="595"/>
      <point x="256" y="621"/>
      <point x="312" y="621" type="curve" smooth="yes"/>
      <point x="406" y="621"/>
      <point x="442" y="554"/>
      <point x="460" y="492" type="curve"/>
      <point x="474" y="442"/>
      <point x="479" y="385"/>
      <point x="479" y="325" type="curve" smooth="yes"/>
      <point x="479" y="261"/>
      <point x="471" y="199"/>
      <point x="455" y="146" type="curve"/>
      <point x="433" y="72"/>
      <point x="385" y="-26"/>
      <point x="283" y="-26" type="curve" smooth="yes"/>
      <point x="192" y="-26"/>
      <point x="139" y="71"/>
      <point x="103" y="150" type="curve"/>
      <point x="78" y="207"/>
      <point x="59" y="268"/>
      <point x="42" y="317" type="curve" smooth="yes"/>
      <point x="41" y="320"/>
      <point x="41" y="322"/>
      <point x="41" y="325" type="curve" smooth="yes"/>
      <point x="41" y="341"/>
      <point x="56" y="357"/>
      <point x="78" y="363" type="curve" smooth="yes"/>
      <point x="84" y="365"/>
      <point x="90" y="365"/>
      <point x="96" y="365" type="curve" smooth="yes"/>
      <point x="116" y="365"/>
      <point x="133" y="357"/>
      <point x="138" y="343" type="curve" smooth="yes"/>
      <point x="155" y="294"/>
      <point x="174" y="233"/>
      <point x="197" y="180" type="curve"/>
      <point x="234" y="99"/>
      <point x="283" y="48"/>
      <point x="297" y="46" type="curve"/>
      <point x="302" y="48"/>
      <point x="338" y="79"/>
      <point x="359" y="150" type="curve"/>
      <point x="373" y="197"/>
      <point x="381" y="255"/>
      <point x="381" y="315" type="curve" smooth="yes"/>
      <point x="381" y="371"/>
      <point x="376" y="426"/>
      <point x="364" y="468" type="curve"/>
      <point x="346" y="530"/>
      <point x="315" y="549"/>
      <point x="298" y="549" type="curve" smooth="yes"/>
      <point x="290" y="549"/>
      <point x="267" y="543"/>
      <point x="233" y="517" type="curve" smooth="yes"/>
      <point x="222" y="509"/>
      <point x="207" y="504"/>
      <point x="193" y="504" type="curve" smooth="yes"/>
      <point x="182" y="504"/>
      <point x="172" y="507"/>
    </contour>
  </outline>
</glyph>
<glyph name="uni0E08" format="1">
  <advance width="600"/>
  <unicode hex="0E08"/>
  <outline>
    <contour>
      <point x="56" y="431" type="curve" smooth="yes"/>
      <point x="40" y="436"/>
      <point x="31" y="447"/>
      <point x="31" y="460" type="curve" smooth="yes"/>
      <point x="31" y="466"/>
      <point x="33" y="472"/>
      <point x="37" y="478" type="curve" smooth="yes"/>
      <point x="94" y="557"/>
      <point x="182" y="612"/>
      <point x="278" y="622" type="curve" smooth="yes"/>
      <point x="289" y="623"/>
      <point x="300" y="624"/>
      <point x="310" y="624" type="curve" smooth="yes"/>
      <point x="444" y="624"/>
      <point x="539" y="528"/>
      <point x="539" y="360" type="curve" smooth="yes"/>
      <point x="539" y="150"/>
      <point x="410" y="31"/>
      <point x="370" y="5" type="curve" smooth="yes"/>
      <point x="370" y="5"/>
      <point x="349" y="-11"/>
      <point x="327" y="-11" type="curve" smooth="yes"/>
      <point x="314" y="-11"/>
      <point x="300" y="-5"/>
      <point x="292" y="15" type="curve" smooth="yes"/>
      <point x="281" y="41"/>
      <point x="235" y="226"/>
      <point x="188" y="245" type="curve"/>
      <point x="186" y="244"/>
      <point x="185" y="243"/>
      <point x="182" y="241" type="curve" smooth="yes"/>
      <point x="171" y="233"/>
      <point x="157" y="229"/>
      <point x="143" y="229" type="curve" smooth="yes"/>
      <point x="131" y="229"/>
      <point x="120" y="232"/>
      <point x="112" y="238" type="curve" smooth="yes"/>
      <point x="104" y="244"/>
      <point x="101" y="252"/>
      <point x="101" y="260" type="curve" smooth="yes"/>
      <point x="101" y="270"/>
      <point x="106" y="281"/>
      <point x="118" y="289" type="curve" smooth="yes"/>
      <point x="140" y="304"/>
      <point x="167" y="316"/>
      <point x="197" y="317" type="curve" smooth="yes"/>
      <point x="198" y="317"/>
      <point x="200" y="317"/>
      <point x="201" y="317" type="curve" smooth="yes"/>
      <point x="233" y="317"/>
      <point x="249" y="308"/>
      <point x="264" y="294" type="curve" smooth="yes"/>
      <point x="307" y="254"/>
      <point x="337" y="139"/>
      <point x="352" y="85" type="curve"/>
      <point x="390" y="134"/>
      <point x="444" y="211"/>
      <point x="444" y="350" type="curve" smooth="yes"/>
      <point x="444" y="506"/>
      <point x="359" y="552"/>
      <point x="293" y="552" type="curve" smooth="yes"/>
      <point x="288" y="552"/>
      <point x="283" y="551"/>
      <point x="278" y="551" type="curve" smooth="yes"/>
      <point x="229" y="546"/>
      <point x="168" y="514"/>
      <point x="123" y="452" type="curve" smooth="yes"/>
      <point x="113" y="438"/>
      <point x="92" y="429"/>
      <point x="72" y="429" type="curve" smooth="yes"/>
      <point x="66" y="429"/>
      <point x="61" y="429"/>
    </contour>
  </outline>
</glyph>
<glyph name="uni0E09" format="1">
  <advance width="670"/>
  <unicode hex="0E09"/>
  <outline>
    <contour>
      <point x="630" y="0" type="move" name="ThaiOpt.mark"/>
    </contour>
    <contour>
      <point x="630" y="0" type="move" name="ThaiAbove.mark"/>
    </contour>
    <contour>
      <point x="492" y="231" type="curve" smooth="yes"/>
      <point x="490" y="202"/>
      <point x="490" y="178"/>
      <point x="490" y="154" type="curve" smooth="yes"/>
      <point x="490" y="138"/>
      <point x="490" y="122"/>
      <point x="490" y="104" type="curve" smooth="yes"/>
      <point x="490" y="57"/>
      <point x="507" y="39"/>
      <point x="516" y="39" type="curve" smooth="yes"/>
      <point x="522" y="39"/>
      <point x="555" y="43"/>
      <point x="567" y="102" type="curve" smooth="yes"/>
      <point x="569" y="112"/>
      <point x="570" y="124"/>
      <point x="570" y="137" type="curve" smooth="yes"/>
      <point x="570" y="200"/>
      <point x="535" y="231"/>
      <point x="504" y="231" type="curve" smooth="yes"/>
      <point x="500" y="231"/>
      <point x="496" y="231"/>
    </contour>
    <contour>
      <point x="156" y="0" type="curve" smooth="yes"/>
      <point x="156" y="30"/>
      <point x="149" y="142"/>
      <point x="142" y="213" type="curve" smooth="yes"/>
      <point x="137" y="259"/>
      <point x="123" y="262"/>
      <point x="112" y="265" type="curve" smooth="yes"/>
      <point x="96" y="269"/>
      <point x="87" y="280"/>
      <point x="87" y="292" type="curve" smooth="yes"/>
      <point x="87" y="297"/>
      <point x="88" y="301"/>
      <point x="91" y="306" type="curve" smooth="yes"/>
      <point x="100" y="320"/>
      <point x="118" y="328"/>
      <point x="137" y="328" type="curve" smooth="yes"/>
      <point x="141" y="328"/>
      <point x="146" y="328"/>
      <point x="150" y="327" type="curve" smooth="yes"/>
      <point x="197" y="316"/>
      <point x="220" y="283"/>
      <point x="225" y="227" type="curve" smooth="yes"/>
      <point x="229" y="189"/>
      <point x="232" y="140"/>
      <point x="235" y="101" type="curve"/>
      <point x="258" y="131"/>
      <point x="290" y="165"/>
      <point x="321" y="193" type="curve" smooth="yes"/>
      <point x="348" y="217"/>
      <point x="379" y="246"/>
      <point x="416" y="264" type="curve"/>
      <point x="418" y="297"/>
      <point x="421" y="336"/>
      <point x="425" y="387" type="curve" smooth="yes"/>
      <point x="426" y="396"/>
      <point x="426" y="404"/>
      <point x="426" y="412" type="curve" smooth="yes"/>
      <point x="426" y="500"/>
      <point x="382" y="541"/>
      <point x="335" y="553" type="curve" smooth="yes"/>
      <point x="325" y="556"/>
      <point x="313" y="557"/>
      <point x="301" y="557" type="curve" smooth="yes"/>
      <point x="245" y="557"/>
      <point x="174" y="527"/>
      <point x="121" y="453" type="curve" smooth="yes"/>
      <point x="112" y="440"/>
      <point x="91" y="431"/>
      <point x="72" y="431" type="curve" smooth="yes"/>
      <point x="67" y="431"/>
      <point x="62" y="432"/>
      <point x="57" y="433" type="curve" smooth="yes"/>
      <point x="42" y="437"/>
      <point x="33" y="448"/>
      <point x="33" y="460" type="curve" smooth="yes"/>
      <point x="33" y="466"/>
      <point x="35" y="472"/>
      <point x="39" y="477" type="curve" smooth="yes"/>
      <point x="103" y="566"/>
      <point x="211" y="626"/>
      <point x="312" y="626" type="curve" smooth="yes"/>
      <point x="335" y="626"/>
      <point x="359" y="623"/>
      <point x="381" y="616" type="curve" smooth="yes"/>
      <point x="460" y="592"/>
      <point x="508" y="524"/>
      <point x="508" y="421" type="curve" smooth="yes"/>
      <point x="508" y="411"/>
      <point x="508" y="402"/>
      <point x="507" y="392" type="curve" smooth="yes"/>
      <point x="503" y="350"/>
      <point x="498" y="317"/>
      <point x="496" y="288" type="curve"/>
      <point x="503" y="289"/>
      <point x="509" y="289"/>
      <point x="516" y="289" type="curve" smooth="yes"/>
      <point x="613" y="289"/>
      <point x="650" y="214"/>
      <point x="650" y="145" type="curve" smooth="yes"/>
      <point x="650" y="130"/>
      <point x="649" y="116"/>
      <point x="646" y="103" type="curve" smooth="yes"/>
      <point x="631" y="28"/>
      <point x="570" y="-19"/>
      <point x="504" y="-19" type="curve" smooth="yes"/>
      <point x="430" y="-19"/>
      <point x="410" y="55"/>
      <point x="410" y="96" type="curve" smooth="yes"/>
      <point x="410" y="131"/>
      <point x="411" y="158"/>
      <point x="412" y="191" type="curve"/>
      <point x="401" y="183"/>
      <point x="390" y="174"/>
      <point x="379" y="164" type="curve" smooth="yes"/>
      <point x="322" y="113"/>
      <point x="267" y="45"/>
      <point x="244" y="14" type="curve"/>
      <point x="232" y="-3"/>
      <point x="220" y="-22"/>
      <point x="204" y="-22" type="curve" smooth="yes"/>
      <point x="183" y="-22"/>
      <point x="156" y="0"/>
    </contour>
  </outline>
</glyph>
<glyph name="uni0E0A" format="1">
  <advance width="630"/>
  <unicode hex="0E0A"/>
  <outline>
    <contour>
      <point x="610" y="0" type="move" name="ThaiOpt.mark"/>
    </contour>
    <contour>
      <point x="610" y="0" type="move" name="ThaiAbove.mark"/>
    </contour>
    <contour>
      <point x="600" y="0" type="move" name="ThaiBelow.mark"/>
    </contour>
    <contour>
      <point x="583" y="647" type="curve" smooth="yes"/>
      <point x="592" y="641"/>
      <point x="596" y="633"/>
      <point x="596" y="625" type="curve" smooth="yes"/>
      <point x="596" y="617"/>
      <point x="592" y="608"/>
      <point x="583" y="600" type="curve" smooth="yes"/>
      <point x="494" y="526"/>
      <point x="411" y="479"/>
      <point x="357" y="450" type="curve"/>
      <point x="494" y="397"/>
      <point x="565" y="288"/>
      <point x="565" y="189" type="curve" smooth="yes"/>
      <point x="565" y="175"/>
      <point x="564" y="162"/>
      <point x="561" y="148" type="curve" smooth="yes"/>
      <point x="543" y="57"/>
      <point x="455" y="-29"/>
      <point x="303" y="-29" type="curve" smooth="yes"/>
      <point x="208" y="-29"/>
      <point x="186" y="38"/>
      <point x="186" y="206" type="curve" smooth="yes"/>
      <point x="186" y="259"/>
      <point x="189" y="325"/>
      <point x="194" y="407" type="curve"/>
      <point x="195" y="418"/>
      <point x="196" y="428"/>
      <point x="196" y="438" type="curve" smooth="yes"/>
      <point x="197" y="452"/>
      <point x="197" y="465"/>
      <point x="197" y="478" type="curve" smooth="yes"/>
      <point x="197" y="510"/>
      <point x="190" y="532"/>
      <point x="185" y="539" type="curve"/>
      <point x="169" y="526"/>
      <point x="146" y="490"/>
      <point x="134" y="464" type="curve" smooth="yes"/>
      <point x="127" y="448"/>
      <point x="105" y="437"/>
      <point x="83" y="437" type="curve" smooth="yes"/>
      <point x="80" y="437"/>
      <point x="77" y="437"/>
      <point x="75" y="437" type="curve" smooth="yes"/>
      <point x="56" y="439"/>
      <point x="44" y="451"/>
      <point x="44" y="465" type="curve" smooth="yes"/>
      <point x="44" y="468"/>
      <point x="44" y="472"/>
      <point x="46" y="476" type="curve" smooth="yes"/>
      <point x="60" y="507"/>
      <point x="100" y="609"/>
      <point x="197" y="609" type="curve" smooth="yes"/>
      <point x="287" y="609"/>
      <point x="289" y="531"/>
      <point x="289" y="484" type="curve"/>
      <point x="336" y="507"/>
      <point x="418" y="558"/>
      <point x="517" y="640" type="curve" smooth="yes"/>
      <point x="528" y="649"/>
      <point x="543" y="654"/>
      <point x="557" y="654" type="curve" smooth="yes"/>
      <point x="567" y="654"/>
      <point x="576" y="651"/>
    </contour>
    <contour>
      <point x="285" y="402" type="curve"/>
      <point x="281" y="329"/>
      <point x="278" y="264"/>
      <point x="278" y="216" type="curve" smooth="yes"/>
      <point x="278" y="45"/>
      <point x="309" y="39"/>
      <point x="316" y="39" type="curve" smooth="yes"/>
      <point x="317" y="39"/>
      <point x="317" y="39"/>
      <point x="317" y="39" type="curve" smooth="yes"/>
      <point x="409" y="39"/>
      <point x="456" y="80"/>
      <point x="469" y="147" type="curve" smooth="yes"/>
      <point x="471" y="157"/>
      <point x="473" y="168"/>
      <point x="473" y="179" type="curve" smooth="yes"/>
      <point x="473" y="264"/>
      <point x="407" y="365"/>
    </contour>
  </outline>
</glyph>
<glyph name="uni0E0B" format="1">
  <advance width="630"/>
  <unicode hex="0E0B"/>
  <outline>
    <contour>
      <point x="610" y="0" type="move" name="ThaiOpt.mark"/>
    </contour>
    <contour>
      <point x="610" y="0" type="move" name="ThaiAbove.mark"/>
    </contour>
    <contour>
      <point x="600" y="0" type="move" name="ThaiBelow.mark"/>
    </contour>
    <contour>
      <point x="288" y="215" type="curve" smooth="yes"/>
      <point x="288" y="130"/>
      <point x="308" y="57"/>
      <point x="326" y="44" type="curve"/>
      <point x="411" y="46"/>
      <point x="461" y="88"/>
      <point x="472" y="159" type="curve" smooth="yes"/>
      <point x="473" y="167"/>
      <point x="474" y="176"/>
      <point x="474" y="185" type="curve" smooth="yes"/>
      <point x="474" y="267"/>
      <point x="415" y="356"/>
      <point x="300" y="391" type="curve"/>
      <point x="294" y="337"/>
      <point x="288" y="277"/>
    </contour>
    <contour>
      <point x="306" y="483" type="curve"/>
      <point x="353" y="511"/>
      <point x="426" y="564"/>
      <point x="517" y="640" type="curve" smooth="yes"/>
      <point x="528" y="649"/>
      <point x="543" y="654"/>
      <point x="557" y="654" type="curve" smooth="yes"/>
      <point x="567" y="654"/>
      <point x="576" y="651"/>
      <point x="583" y="647" type="curve" smooth="yes"/>
      <point x="592" y="641"/>
      <point x="596" y="633"/>
      <point x="596" y="625" type="curve" smooth="yes"/>
      <point x="596" y="617"/>
      <point x="592" y="608"/>
      <point x="583" y="600" type="curve" smooth="yes"/>
      <point x="491" y="524"/>
      <point x="410" y="473"/>
      <point x="360" y="443" type="curve"/>
      <point x="495" y="395"/>
      <point x="566" y="294"/>
      <point x="566" y="195" type="curve" smooth="yes"/>
      <point x="566" y="181"/>
      <point x="565" y="167"/>
      <point x="562" y="153" type="curve" smooth="yes"/>
      <point x="544" y="63"/>
      <point x="459" y="-24"/>
      <point x="313" y="-24" type="curve" smooth="yes"/>
      <point x="303" y="-24"/>
      <point x="294" y="-22"/>
      <point x="286" y="-20" type="curve" smooth="yes"/>
      <point x="208" y="4"/>
      <point x="199" y="110"/>
      <point x="199" y="205" type="curve" smooth="yes"/>
      <point x="199" y="313"/>
      <point x="226" y="396"/>
      <point x="226" y="477" type="curve" smooth="yes"/>
      <point x="226" y="486"/>
      <point x="226" y="494"/>
      <point x="225" y="503" type="curve"/>
      <point x="194" y="467"/>
      <point x="167" y="438"/>
      <point x="154" y="420" type="curve"/>
      <point x="154" y="420"/>
      <point x="141" y="398"/>
      <point x="118" y="398" type="curve" smooth="yes"/>
      <point x="110" y="398"/>
      <point x="101" y="401"/>
      <point x="90" y="409" type="curve" smooth="yes"/>
      <point x="62" y="429"/>
      <point x="33" y="474"/>
      <point x="11" y="577" type="curve" smooth="yes"/>
      <point x="11" y="578"/>
      <point x="11" y="580"/>
      <point x="11" y="581" type="curve" smooth="yes"/>
      <point x="11" y="595"/>
      <point x="25" y="607"/>
      <point x="44" y="612" type="curve" smooth="yes"/>
      <point x="48" y="613"/>
      <point x="52" y="613"/>
      <point x="56" y="613" type="curve" smooth="yes"/>
      <point x="73" y="613"/>
      <point x="87" y="605"/>
      <point x="89" y="593" type="curve" smooth="yes"/>
      <point x="100" y="543"/>
      <point x="112" y="509"/>
      <point x="124" y="487" type="curve"/>
      <point x="150" y="516"/>
      <point x="183" y="553"/>
      <point x="216" y="596" type="curve" smooth="yes"/>
      <point x="229" y="613"/>
      <point x="241" y="618"/>
      <point x="252" y="618" type="curve" smooth="yes"/>
      <point x="274" y="618"/>
      <point x="289" y="595"/>
      <point x="289" y="595" type="curve"/>
      <point x="300" y="557"/>
      <point x="305" y="517"/>
    </contour>
  </outline>
</glyph>
<glyph name="uni0E0D" format="1">
  <advance width="965"/>
  <unicode hex="0E0D"/>
  <outline>
    <contour>
      <point x="866" y="-90" type="curve" smooth="yes"/>
      <point x="881" y="-94"/>
      <point x="889" y="-105"/>
      <point x="889" y="-116" type="curve" smooth="yes"/>
      <point x="889" y="-121"/>
      <point x="888" y="-126"/>
      <point x="884" y="-131" type="curve" smooth="yes"/>
      <point x="827" y="-212"/>
      <point x="740" y="-252"/>
      <point x="661" y="-252" type="curve" smooth="yes"/>
      <point x="657" y="-252"/>
      <point x="654" y="-252"/>
      <point x="650" y="-252" type="curve" smooth="yes"/>
      <point x="573" y="-248"/>
      <point x="513" y="-205"/>
      <point x="513" y="-146" type="curve" smooth="yes"/>
      <point x="513" y="-137"/>
      <point x="514" y="-128"/>
      <point x="517" y="-118" type="curve" smooth="yes"/>
      <point x="522" y="-102"/>
      <point x="545" y="-88"/>
      <point x="568" y="-88" type="curve" smooth="yes"/>
      <point x="569" y="-88"/>
      <point x="569" y="-88"/>
      <point x="570" y="-88" type="curve" smooth="yes"/>
      <point x="591" y="-89"/>
      <point x="604" y="-101"/>
      <point x="604" y="-115" type="curve" smooth="yes"/>
      <point x="604" y="-117"/>
      <point x="604" y="-120"/>
      <point x="603" y="-122" type="curve" smooth="yes"/>
      <point x="602" y="-127"/>
      <point x="601" y="-132"/>
      <point x="601" y="-136" type="curve" smooth="yes"/>
      <point x="601" y="-164"/>
      <point x="630" y="-185"/>
      <point x="669" y="-187" type="curve" smooth="yes"/>
      <point x="671" y="-187"/>
      <point x="674" y="-187"/>
      <point x="676" y="-187" type="curve" smooth="yes"/>
      <point x="712" y="-187"/>
      <point x="762" y="-171"/>
      <point x="806" y="-109" type="curve" smooth="yes"/>
      <point x="815" y="-96"/>
      <point x="834" y="-88"/>
      <point x="852" y="-88" type="curve" smooth="yes"/>
      <point x="857" y="-88"/>
      <point x="862" y="-89"/>
    </contour>
    <component base="uni0E0D.rd"/>
  </outline>
</glyph>
<glyph name="uni0E0F" format="1">
  <advance width="660"/>
  <unicode hex="0E0F"/>
  <outline>
    <contour>
      <point x="497" y="-230" type="curve"/>
      <point x="446" y="-223"/>
      <point x="390" y="-190"/>
      <point x="336" y="-145" type="curve"/>
      <point x="315" y="-194"/>
      <point x="253" y="-240"/>
      <point x="180" y="-240" type="curve" smooth="yes"/>
      <point x="127" y="-240"/>
      <point x="97" y="-205"/>
      <point x="97" y="-158" type="curve" smooth="yes"/>
      <point x="97" y="-142"/>
      <point x="100" y="-123"/>
      <point x="108" y="-105" type="curve" smooth="yes"/>
      <point x="114" y="-90"/>
      <point x="131" y="-78"/>
      <point x="151" y="-78" type="curve" smooth="yes"/>
      <point x="153" y="-78"/>
      <point x="156" y="-78"/>
      <point x="158" y="-78" type="curve" smooth="yes"/>
      <point x="177" y="-80"/>
      <point x="189" y="-93"/>
      <point x="189" y="-106" type="curve" smooth="yes"/>
      <point x="189" y="-109"/>
      <point x="188" y="-112"/>
      <point x="187" y="-115" type="curve" smooth="yes"/>
      <point x="179" y="-134"/>
      <point x="176" y="-148"/>
      <point x="176" y="-158" type="curve" smooth="yes"/>
      <point x="176" y="-176"/>
      <point x="186" y="-181"/>
      <point x="198" y="-181" type="curve" smooth="yes"/>
      <point x="230" y="-181"/>
      <point x="264" y="-164"/>
      <point x="282" y="-121" type="curve" smooth="yes"/>
      <point x="284" y="-117"/>
      <point x="285" y="-113"/>
      <point x="286" y="-109" type="curve" smooth="yes"/>
      <point x="293" y="-81"/>
      <point x="309" y="-73"/>
      <point x="323" y="-73" type="curve" smooth="yes"/>
      <point x="341" y="-73"/>
      <point x="358" y="-85"/>
      <point x="358" y="-85" type="curve"/>
      <point x="409" y="-125"/>
      <point x="446" y="-149"/>
      <point x="473" y="-163" type="curve"/>
      <point x="471" y="-139"/>
      <point x="470" y="-111"/>
      <point x="470" y="-80" type="curve" smooth="yes"/>
      <point x="470" y="63"/>
      <point x="476" y="412"/>
      <point x="476" y="460" type="curve" smooth="yes"/>
      <point x="476" y="525"/>
      <point x="429" y="544"/>
      <point x="375" y="544" type="curve" smooth="yes"/>
      <point x="322" y="544"/>
      <point x="235" y="535"/>
      <point x="183" y="521" type="curve"/>
      <point x="203" y="380"/>
      <point x="229" y="227"/>
      <point x="229" y="135" type="curve" smooth="yes"/>
      <point x="229" y="121"/>
      <point x="231" y="106"/>
      <point x="231" y="89" type="curve" smooth="yes"/>
      <point x="231" y="55"/>
      <point x="223" y="18"/>
      <point x="177" y="-5" type="curve" smooth="yes"/>
      <point x="161" y="-13"/>
      <point x="144" y="-16"/>
      <point x="128" y="-16" type="curve" smooth="yes"/>
      <point x="90" y="-16"/>
      <point x="70" y="-2"/>
      <point x="46" y="8" type="curve" smooth="yes"/>
      <point x="33" y="13"/>
      <point x="26" y="24"/>
      <point x="26" y="35" type="curve" smooth="yes"/>
      <point x="26" y="42"/>
      <point x="29" y="50"/>
      <point x="35" y="57" type="curve" smooth="yes"/>
      <point x="46" y="69"/>
      <point x="65" y="76"/>
      <point x="83" y="76" type="curve" smooth="yes"/>
      <point x="91" y="76"/>
      <point x="97" y="75"/>
      <point x="104" y="72" type="curve" smooth="yes"/>
      <point x="113" y="68"/>
      <point x="122" y="65"/>
      <point x="128" y="62" type="curve"/>
      <point x="131" y="78"/>
      <point x="131" y="99"/>
      <point x="131" y="125" type="curve" smooth="yes"/>
      <point x="131" y="214"/>
      <point x="101" y="382"/>
      <point x="81" y="531" type="curve" smooth="yes"/>
      <point x="81" y="532"/>
      <point x="81" y="533"/>
      <point x="81" y="534" type="curve" smooth="yes"/>
      <point x="81" y="547"/>
      <point x="92" y="562"/>
      <point x="108" y="569" type="curve" smooth="yes"/>
      <point x="181" y="603"/>
      <point x="306" y="616"/>
      <point x="389" y="616" type="curve" smooth="yes"/>
      <point x="487" y="616"/>
      <point x="574" y="569"/>
      <point x="574" y="470" type="curve" smooth="yes"/>
      <point x="574" y="420"/>
      <point x="563" y="71"/>
      <point x="563" y="-70" type="curve" smooth="yes"/>
      <point x="563" y="-124"/>
      <point x="569" y="-173"/>
      <point x="573" y="-188" type="curve" smooth="yes"/>
      <point x="574" y="-190"/>
      <point x="574" y="-192"/>
      <point x="574" y="-194" type="curve" smooth="yes"/>
      <point x="574" y="-210"/>
      <point x="558" y="-234"/>
      <point x="535" y="-234" type="curve" smooth="yes"/>
      <point x="521" y="-234"/>
      <point x="497" y="-230"/>
    </contour>
  </outline>
</glyph>
<glyph name="uni0E12" format="1">
  <advance width="965"/>
  <unicode hex="0E12"/>
  <outline>
    <contour>
      <point x="960" y="0" type="move" name="ThaiOpt.mark"/>
    </contour>
    <contour>
      <point x="960" y="0" type="move" name="ThaiAbove.mark"/>
    </contour>
    <contour>
      <point x="779" y="0" type="curve" smooth="yes"/>
      <point x="755" y="32"/>
      <point x="706" y="96"/>
      <point x="651" y="156" type="curve" smooth="yes"/>
      <point x="641" y="167"/>
      <point x="626" y="180"/>
      <point x="615" y="190" type="curve"/>
      <point x="615" y="100"/>
      <point x="609" y="19"/>
      <point x="547" y="-11" type="curve" smooth="yes"/>
      <point x="535" y="-17"/>
      <point x="521" y="-19"/>
      <point x="509" y="-19" type="curve" smooth="yes"/>
      <point x="412" y="-19"/>
      <point x="375" y="54"/>
      <point x="375" y="141" type="curve" smooth="yes"/>
      <point x="375" y="208"/>
      <point x="406" y="288"/>
      <point x="507" y="298" type="curve" smooth="yes"/>
      <point x="513" y="299"/>
      <point x="520" y="299"/>
      <point x="526" y="299" type="curve" smooth="yes"/>
      <point x="528" y="299"/>
      <point x="531" y="299"/>
      <point x="533" y="299" type="curve"/>
      <point x="531" y="366"/>
      <point x="527" y="439"/>
      <point x="520" y="495" type="curve"/>
      <point x="446" y="446"/>
      <point x="392" y="422"/>
      <point x="388" y="421" type="curve" smooth="yes"/>
      <point x="388" y="421"/>
      <point x="366" y="412"/>
      <point x="348" y="412" type="curve" smooth="yes"/>
      <point x="334" y="412"/>
      <point x="322" y="417"/>
      <point x="322" y="436" type="curve" smooth="yes"/>
      <point x="322" y="440"/>
      <point x="323" y="445"/>
      <point x="324" y="451" type="curve" smooth="yes"/>
      <point x="326" y="460"/>
      <point x="328" y="469"/>
      <point x="328" y="477" type="curve" smooth="yes"/>
      <point x="328" y="529"/>
      <point x="292" y="546"/>
      <point x="270" y="546" type="curve" smooth="yes"/>
      <point x="269" y="546"/>
      <point x="267" y="546"/>
      <point x="266" y="546" type="curve" smooth="yes"/>
      <point x="241" y="543"/>
      <point x="156" y="497"/>
      <point x="156" y="305" type="curve" smooth="yes"/>
      <point x="156" y="259"/>
      <point x="161" y="219"/>
      <point x="169" y="185" type="curve" smooth="yes"/>
      <point x="196" y="72"/>
      <point x="254" y="47"/>
      <point x="277" y="47" type="curve" smooth="yes"/>
      <point x="279" y="47"/>
      <point x="281" y="47"/>
      <point x="282" y="47" type="curve" smooth="yes"/>
      <point x="287" y="48"/>
      <point x="291" y="49"/>
      <point x="296" y="49" type="curve" smooth="yes"/>
      <point x="316" y="49"/>
      <point x="333" y="39"/>
      <point x="336" y="25" type="curve" smooth="yes"/>
      <point x="336" y="23"/>
      <point x="337" y="22"/>
      <point x="337" y="20" type="curve" smooth="yes"/>
      <point x="337" y="4"/>
      <point x="321" y="-12"/>
      <point x="298" y="-17" type="curve" smooth="yes"/>
      <point x="284" y="-20"/>
      <point x="271" y="-22"/>
      <point x="258" y="-22" type="curve" smooth="yes"/>
      <point x="163" y="-22"/>
      <point x="102" y="59"/>
      <point x="77" y="164" type="curve" smooth="yes"/>
      <point x="68" y="202"/>
      <point x="64" y="246"/>
      <point x="64" y="295" type="curve" smooth="yes"/>
      <point x="64" y="486"/>
      <point x="145" y="600"/>
      <point x="266" y="612" type="curve" smooth="yes"/>
      <point x="271" y="612"/>
      <point x="276" y="613"/>
      <point x="281" y="613" type="curve" smooth="yes"/>
      <point x="354" y="613"/>
      <point x="398" y="557"/>
      <point x="405" y="500" type="curve"/>
      <point x="431" y="515"/>
      <point x="480" y="547"/>
      <point x="518" y="576" type="curve" smooth="yes"/>
      <point x="539" y="592"/>
      <point x="554" y="597"/>
      <point x="565" y="597" type="curve" smooth="yes"/>
      <point x="590" y="597"/>
      <point x="596" y="571"/>
      <point x="596" y="571" type="curve" smooth="yes"/>
      <point x="597" y="567"/>
      <point x="597" y="564"/>
      <point x="598" y="560" type="curve" smooth="yes"/>
      <point x="615" y="489"/>
      <point x="615" y="369"/>
      <point x="615" y="274" type="curve"/>
      <point x="631" y="265"/>
      <point x="645" y="254"/>
      <point x="659" y="243" type="curve" smooth="yes"/>
      <point x="678" y="228"/>
      <point x="699" y="203"/>
      <point x="715" y="185" type="curve" smooth="yes"/>
      <point x="741" y="156"/>
      <point x="763" y="124"/>
      <point x="781" y="100" type="curve"/>
      <point x="785" y="348"/>
      <point x="785" y="461"/>
      <point x="789" y="566" type="curve" smooth="yes"/>
      <point x="790" y="584"/>
      <point x="811" y="601"/>
      <point x="836" y="603" type="curve" smooth="yes"/>
      <point x="838" y="603"/>
      <point x="839" y="603"/>
      <point x="841" y="603" type="curve" smooth="yes"/>
      <point x="863" y="603"/>
      <point x="881" y="591"/>
      <point x="881" y="575" type="curve" smooth="yes"/>
      <point x="881" y="574" type="line" smooth="yes"/>
      <point x="877" y="455"/>
      <point x="876" y="350"/>
      <point x="871" y="20" type="curve" smooth="yes"/>
      <point x="871" y="2"/>
      <point x="853" y="-15"/>
      <point x="830" y="-15" type="curve" smooth="yes"/>
      <point x="804" y="-15"/>
      <point x="779" y="0"/>
    </contour>
    <contour>
      <point x="535" y="180" type="curve" smooth="yes"/>
      <point x="535" y="197"/>
      <point x="535" y="216"/>
      <point x="535" y="237" type="curve"/>
      <point x="527" y="240"/>
      <point x="519" y="241"/>
      <point x="514" y="241" type="curve" smooth="yes"/>
      <point x="511" y="241"/>
      <point x="509" y="241"/>
      <point x="507" y="241" type="curve" smooth="yes"/>
      <point x="484" y="239"/>
      <point x="455" y="215"/>
      <point x="455" y="149" type="curve" smooth="yes"/>
      <point x="455" y="70"/>
      <point x="488" y="42"/>
      <point x="514" y="39" type="curve"/>
      <point x="525" y="55"/>
      <point x="535" y="106"/>
    </contour>
  </outline>
</glyph>
<glyph name="uni0E14" format="1">
  <advance width="680"/>
  <unicode hex="0E14"/>
  <outline>
    <contour>
      <point x="660" y="0" type="move" name="ThaiOpt.mark"/>
    </contour>
    <contour>
      <point x="660" y="0" type="move" name="ThaiAbove.mark"/>
    </contour>
    <contour>
      <point x="355" y="150" type="curve" smooth="yes"/>
      <point x="357" y="150"/>
      <point x="360" y="150"/>
      <point x="362" y="150" type="curve" smooth="yes"/>
      <point x="386" y="150"/>
      <point x="404" y="137"/>
      <point x="404" y="120" type="curve" smooth="yes"/>
      <point x="404" y="60"/>
      <point x="364" y="-9"/>
      <point x="277" y="-21" type="curve" smooth="yes"/>
      <point x="269" y="-22"/>
      <point x="261" y="-23"/>
      <point x="253" y="-23" type="curve" smooth="yes"/>
      <point x="142" y="-23"/>
      <point x="72" y="92"/>
      <point x="61" y="303" type="curve"/>
      <point x="61" y="312"/>
      <point x="60" y="321"/>
      <point x="60" y="330" type="curve" smooth="yes"/>
      <point x="62" y="500"/>
      <point x="177" y="603"/>
      <point x="319" y="617" type="curve" smooth="yes"/>
      <point x="330" y="618"/>
      <point x="342" y="619"/>
      <point x="353" y="619" type="curve" smooth="yes"/>
      <point x="484" y="619"/>
      <point x="599" y="541"/>
      <point x="599" y="418" type="curve" smooth="yes"/>
      <point x="599" y="417"/>
      <point x="599" y="416"/>
      <point x="599" y="415" type="curve" smooth="yes"/>
      <point x="597" y="240"/>
      <point x="593" y="151"/>
      <point x="593" y="81" type="curve" smooth="yes"/>
      <point x="593" y="62"/>
      <point x="593" y="44"/>
      <point x="594" y="26" type="curve" smooth="yes"/>
      <point x="594" y="25" type="line" smooth="yes"/>
      <point x="594" y="6"/>
      <point x="572" y="-12"/>
      <point x="546" y="-15" type="curve" smooth="yes"/>
      <point x="543" y="-15"/>
      <point x="541" y="-15"/>
      <point x="538" y="-15" type="curve" smooth="yes"/>
      <point x="515" y="-15"/>
      <point x="497" y="-3"/>
      <point x="496" y="14" type="curve" smooth="yes"/>
      <point x="495" y="33"/>
      <point x="495" y="51"/>
      <point x="495" y="71" type="curve" smooth="yes"/>
      <point x="495" y="142"/>
      <point x="499" y="230"/>
      <point x="501" y="405" type="curve" smooth="yes"/>
      <point x="501" y="406"/>
      <point x="501" y="407"/>
      <point x="501" y="407" type="curve" smooth="yes"/>
      <point x="501" y="500"/>
      <point x="415" y="547"/>
      <point x="336" y="547" type="curve" smooth="yes"/>
      <point x="330" y="547"/>
      <point x="324" y="547"/>
      <point x="318" y="546" type="curve" smooth="yes"/>
      <point x="249" y="539"/>
      <point x="160" y="490"/>
      <point x="159" y="340" type="curve" smooth="yes"/>
      <point x="159" y="332"/>
      <point x="159" y="325"/>
      <point x="159" y="317" type="curve" smooth="yes"/>
      <point x="171" y="82"/>
      <point x="262" y="50"/>
      <point x="273" y="50" type="curve" smooth="yes"/>
      <point x="275" y="50"/>
      <point x="306" y="63"/>
      <point x="306" y="110" type="curve" smooth="yes"/>
      <point x="306" y="129"/>
      <point x="328" y="147"/>
    </contour>
  </outline>
</glyph>
<glyph name="uni0E15" format="1">
  <advance width="690"/>
  <unicode hex="0E15"/>
  <outline>
    <contour>
      <point x="670" y="0" type="move" name="ThaiOpt.mark"/>
    </contour>
    <contour>
      <point x="670" y="0" type="move" name="ThaiAbove.mark"/>
    </contour>
    <contour>
      <point x="572" y="-12" type="curve" smooth="yes"/>
      <point x="567" y="-13"/>
      <point x="562" y="-13"/>
      <point x="558" y="-13" type="curve" smooth="yes"/>
      <point x="538" y="-13"/>
      <point x="522" y="-5"/>
      <point x="519" y="10" type="curve" smooth="yes"/>
      <point x="514" y="31"/>
      <point x="513" y="84"/>
      <point x="513" y="149" type="curve" smooth="yes"/>
      <point x="513" y="249"/>
      <point x="516" y="377"/>
      <point x="516" y="465" type="curve" smooth="yes"/>
      <point x="516" y="472"/>
      <point x="516" y="479"/>
      <point x="516" y="485" type="curve"/>
      <point x="448" y="441"/>
      <point x="401" y="422"/>
      <point x="398" y="421" type="curve" smooth="yes"/>
      <point x="398" y="421"/>
      <point x="376" y="412"/>
      <point x="358" y="412" type="curve" smooth="yes"/>
      <point x="344" y="412"/>
      <point x="332" y="417"/>
      <point x="332" y="436" type="curve" smooth="yes"/>
      <point x="332" y="440"/>
      <point x="333" y="445"/>
      <point x="334" y="451" type="curve" smooth="yes"/>
      <point x="336" y="460"/>
      <point x="337" y="468"/>
      <point x="337" y="476" type="curve" smooth="yes"/>
      <point x="337" y="526"/>
      <point x="300" y="546"/>
      <point x="276" y="546" type="curve" smooth="yes"/>
      <point x="274" y="546"/>
      <point x="273" y="546"/>
      <point x="271" y="546" type="curve" smooth="yes"/>
      <point x="243" y="543"/>
      <point x="156" y="496"/>
      <point x="156" y="305" type="curve" smooth="yes"/>
      <point x="156" y="92"/>
      <point x="253" y="46"/>
      <point x="276" y="46" type="curve" smooth="yes"/>
      <point x="277" y="46"/>
      <point x="277" y="46"/>
      <point x="277" y="46" type="curve" smooth="yes"/>
      <point x="281" y="46"/>
      <point x="309" y="55"/>
      <point x="309" y="105" type="curve" smooth="yes"/>
      <point x="309" y="123"/>
      <point x="330" y="140"/>
      <point x="355" y="143" type="curve" smooth="yes"/>
      <point x="357" y="143"/>
      <point x="360" y="143"/>
      <point x="362" y="143" type="curve" smooth="yes"/>
      <point x="384" y="143"/>
      <point x="401" y="131"/>
      <point x="401" y="115" type="curve" smooth="yes"/>
      <point x="401" y="52"/>
      <point x="359" y="-12"/>
      <point x="276" y="-20" type="curve" smooth="yes"/>
      <point x="270" y="-21"/>
      <point x="263" y="-21"/>
      <point x="257" y="-21" type="curve" smooth="yes"/>
      <point x="144" y="-21"/>
      <point x="64" y="93"/>
      <point x="64" y="295" type="curve" smooth="yes"/>
      <point x="64" y="486"/>
      <point x="148" y="599"/>
      <point x="271" y="612" type="curve" smooth="yes"/>
      <point x="278" y="613"/>
      <point x="285" y="613"/>
      <point x="292" y="613" type="curve" smooth="yes"/>
      <point x="369" y="613"/>
      <point x="415" y="557"/>
      <point x="415" y="500" type="curve"/>
      <point x="442" y="516"/>
      <point x="492" y="551"/>
      <point x="530" y="580" type="curve" smooth="yes"/>
      <point x="549" y="595"/>
      <point x="562" y="600"/>
      <point x="573" y="600" type="curve" smooth="yes"/>
      <point x="601" y="600"/>
      <point x="606" y="567"/>
      <point x="606" y="567" type="curve" smooth="yes"/>
      <point x="606" y="563"/>
      <point x="607" y="559"/>
      <point x="607" y="554" type="curve" smooth="yes"/>
      <point x="608" y="532"/>
      <point x="609" y="496"/>
      <point x="609" y="453" type="curve" smooth="yes"/>
      <point x="609" y="364"/>
      <point x="607" y="246"/>
      <point x="607" y="156" type="curve" smooth="yes"/>
      <point x="607" y="93"/>
      <point x="608" y="45"/>
      <point x="611" y="30" type="curve" smooth="yes"/>
      <point x="611" y="28"/>
      <point x="612" y="27"/>
      <point x="612" y="25" type="curve" smooth="yes"/>
      <point x="612" y="9"/>
      <point x="595" y="-7"/>
    </contour>
  </outline>
</glyph>
<glyph name="uni0E19" format="1">
  <advance width="660"/>
  <unicode hex="0E19"/>
  <outline>
    <contour>
      <point x="84" y="5" type="curve" smooth="yes"/>
      <point x="84" y="41"/>
      <point x="84" y="175"/>
      <point x="84" y="470" type="curve" smooth="yes"/>
      <point x="84" y="512"/>
      <point x="74" y="547"/>
      <point x="70" y="553" type="curve" smooth="yes"/>
      <point x="66" y="558"/>
      <point x="64" y="563"/>
      <point x="64" y="569" type="curve" smooth="yes"/>
      <point x="64" y="580"/>
      <point x="71" y="592"/>
      <point x="85" y="600" type="curve" smooth="yes"/>
      <point x="95" y="606"/>
      <point x="106" y="608"/>
      <point x="117" y="608" type="curve" smooth="yes"/>
      <point x="130" y="608"/>
      <point x="141" y="605"/>
      <point x="149" y="597" type="curve" smooth="yes"/>
      <point x="172" y="574"/>
      <point x="176" y="534"/>
      <point x="176" y="480" type="curve" smooth="yes"/>
      <point x="176" y="310"/>
      <point x="178" y="196"/>
      <point x="178" y="117" type="curve"/>
      <point x="199" y="145"/>
      <point x="221" y="171"/>
      <point x="240" y="190" type="curve" smooth="yes"/>
      <point x="291" y="241"/>
      <point x="336" y="280"/>
      <point x="391" y="301" type="curve"/>
      <point x="394" y="374"/>
      <point x="399" y="453"/>
      <point x="409" y="562" type="curve" smooth="yes"/>
      <point x="411" y="580"/>
      <point x="433" y="598"/>
      <point x="458" y="599" type="curve" smooth="yes"/>
      <point x="459" y="599"/>
      <point x="460" y="599"/>
      <point x="461" y="599" type="curve" smooth="yes"/>
      <point x="484" y="599"/>
      <point x="501" y="586"/>
      <point x="501" y="570" type="curve" smooth="yes"/>
      <point x="501" y="569"/>
      <point x="501" y="569"/>
      <point x="501" y="568" type="curve" smooth="yes"/>
      <point x="491" y="464"/>
      <point x="481" y="388"/>
      <point x="475" y="317" type="curve"/>
      <point x="478" y="317"/>
      <point x="484" y="317"/>
      <point x="487" y="317" type="curve" smooth="yes"/>
      <point x="604" y="317"/>
      <point x="635" y="222"/>
      <point x="635" y="141" type="curve" smooth="yes"/>
      <point x="635" y="124"/>
      <point x="633" y="108"/>
      <point x="630" y="94" type="curve" smooth="yes"/>
      <point x="615" y="21"/>
      <point x="555" y="-27"/>
      <point x="483" y="-27" type="curve" smooth="yes"/>
      <point x="400" y="-27"/>
      <point x="387" y="42"/>
      <point x="387" y="140" type="curve" smooth="yes"/>
      <point x="387" y="164"/>
      <point x="387" y="192"/>
      <point x="388" y="224" type="curve"/>
      <point x="359" y="210"/>
      <point x="331" y="190"/>
      <point x="304" y="163" type="curve" smooth="yes"/>
      <point x="250" y="109"/>
      <point x="196" y="36"/>
      <point x="175" y="7" type="curve"/>
      <point x="164" y="-8"/>
      <point x="151" y="-20"/>
      <point x="130" y="-20" type="curve" smooth="yes"/>
      <point x="109" y="-20"/>
      <point x="84" y="5"/>
    </contour>
    <contour>
      <point x="467" y="150" type="curve" smooth="yes"/>
      <point x="467" y="38"/>
      <point x="492" y="32"/>
      <point x="497" y="32" type="curve" smooth="yes"/>
      <point x="505" y="32"/>
      <point x="536" y="38"/>
      <point x="547" y="94" type="curve" smooth="yes"/>
      <point x="549" y="105"/>
      <point x="550" y="117"/>
      <point x="550" y="131" type="curve" smooth="yes"/>
      <point x="550" y="214"/>
      <point x="528" y="248"/>
      <point x="483" y="248" type="curve" smooth="yes"/>
      <point x="479" y="248"/>
      <point x="475" y="248"/>
      <point x="471" y="248" type="curve" smooth="yes"/>
      <point x="468" y="210"/>
      <point x="467" y="177"/>
    </contour>
  </outline>
</glyph>
<glyph name="uni0E1A" format="1">
  <advance width="710"/>
  <unicode hex="0E1A"/>
  <outline>
    <contour>
      <point x="710" y="0" type="move" name="ThaiOpt.mark"/>
    </contour>
    <contour>
      <point x="710" y="0" type="move" name="ThaiAbove.mark"/>
    </contour>
    <contour>
      <point x="566" y="606" type="curve" smooth="yes"/>
      <point x="568" y="606"/>
      <point x="569" y="606"/>
      <point x="571" y="606" type="curve" smooth="yes"/>
      <point x="595" y="606"/>
      <point x="614" y="592"/>
      <point x="614" y="575" type="curve" smooth="yes"/>
      <point x="614" y="574" type="line" smooth="yes"/>
      <point x="610" y="457"/>
      <point x="609" y="340"/>
      <point x="609" y="255" type="curve" smooth="yes"/>
      <point x="609" y="206"/>
      <point x="609" y="168"/>
      <point x="609" y="145" type="curve" smooth="yes"/>
      <point x="609" y="135"/>
      <point x="609" y="125"/>
      <point x="607" y="115" type="curve" smooth="yes"/>
      <point x="589" y="26"/>
      <point x="487" y="-26"/>
      <point x="358" y="-26" type="curve" smooth="yes"/>
      <point x="225" y="-26"/>
      <point x="106" y="-3"/>
      <point x="106" y="95" type="curve" smooth="yes"/>
      <point x="106" y="209"/>
      <point x="110" y="332"/>
      <point x="110" y="435" type="curve" smooth="yes"/>
      <point x="110" y="505"/>
      <point x="96" y="545"/>
      <point x="90" y="550" type="curve" smooth="yes"/>
      <point x="84" y="556"/>
      <point x="81" y="562"/>
      <point x="81" y="569" type="curve" smooth="yes"/>
      <point x="81" y="580"/>
      <point x="88" y="592"/>
      <point x="101" y="600" type="curve" smooth="yes"/>
      <point x="112" y="607"/>
      <point x="126" y="610"/>
      <point x="138" y="610" type="curve" smooth="yes"/>
      <point x="150" y="610"/>
      <point x="162" y="607"/>
      <point x="170" y="600" type="curve" smooth="yes"/>
      <point x="206" y="569"/>
      <point x="208" y="515"/>
      <point x="208" y="445" type="curve" smooth="yes"/>
      <point x="208" y="340"/>
      <point x="204" y="217"/>
      <point x="204" y="105" type="curve" smooth="yes"/>
      <point x="204" y="63"/>
      <point x="241" y="46"/>
      <point x="372" y="46" type="curve" smooth="yes"/>
      <point x="466" y="46"/>
      <point x="500" y="71"/>
      <point x="509" y="115" type="curve" smooth="yes"/>
      <point x="510" y="121"/>
      <point x="511" y="128"/>
      <point x="511" y="135" type="curve" smooth="yes"/>
      <point x="511" y="158"/>
      <point x="511" y="196"/>
      <point x="511" y="245" type="curve" smooth="yes"/>
      <point x="511" y="330"/>
      <point x="512" y="448"/>
      <point x="516" y="566" type="curve" smooth="yes"/>
      <point x="517" y="585"/>
      <point x="539" y="604"/>
    </contour>
  </outline>
</glyph>
<glyph name="uni0E1D" format="1">
  <advance width="760"/>
  <unicode hex="0E1D"/>
  <outline>
    <contour>
      <point x="621" y="844" type="curve" smooth="yes"/>
      <point x="622" y="844"/>
      <point x="622" y="844"/>
      <point x="623" y="844" type="curve" smooth="yes"/>
      <point x="645" y="844"/>
      <point x="663" y="831"/>
      <point x="663" y="815" type="curve" smooth="yes"/>
      <point x="663" y="814"/>
      <point x="663" y="812"/>
      <point x="663" y="811" type="curve" smooth="yes"/>
      <point x="656" y="764"/>
      <point x="653" y="639"/>
      <point x="653" y="595" type="curve" smooth="yes"/>
      <point x="653" y="446"/>
      <point x="658" y="35"/>
      <point x="658" y="35" type="curve" smooth="yes"/>
      <point x="658" y="35"/>
      <point x="638" y="-8"/>
      <point x="606" y="-8" type="curve" smooth="yes"/>
      <point x="596" y="-8"/>
      <point x="585" y="-4"/>
      <point x="573" y="6" type="curve" smooth="yes"/>
      <point x="539" y="34"/>
      <point x="465" y="138"/>
      <point x="394" y="223" type="curve"/>
      <point x="365" y="129"/>
      <point x="330" y="27"/>
      <point x="330" y="26" type="curve" smooth="yes"/>
      <point x="324" y="8"/>
      <point x="304" y="-14"/>
      <point x="283" y="-14" type="curve" smooth="yes"/>
      <point x="94" y="-14"/>
      <point x="64" y="185"/>
      <point x="64" y="290" type="curve" smooth="yes"/>
      <point x="64" y="332"/>
      <point x="67" y="371"/>
      <point x="74" y="405" type="curve" smooth="yes"/>
      <point x="96" y="515"/>
      <point x="158" y="614"/>
      <point x="272" y="614" type="curve" smooth="yes"/>
      <point x="316" y="614"/>
      <point x="353" y="598"/>
      <point x="376" y="571" type="curve" smooth="yes"/>
      <point x="380" y="566"/>
      <point x="382" y="561"/>
      <point x="382" y="555" type="curve" smooth="yes"/>
      <point x="382" y="543"/>
      <point x="373" y="529"/>
      <point x="358" y="521" type="curve" smooth="yes"/>
      <point x="349" y="516"/>
      <point x="338" y="514"/>
      <point x="328" y="514" type="curve" smooth="yes"/>
      <point x="314" y="514"/>
      <point x="301" y="518"/>
      <point x="294" y="527" type="curve" smooth="yes"/>
      <point x="283" y="540"/>
      <point x="270" y="544"/>
      <point x="258" y="544" type="curve" smooth="yes"/>
      <point x="242" y="544"/>
      <point x="191" y="520"/>
      <point x="168" y="405" type="curve" smooth="yes"/>
      <point x="162" y="374"/>
      <point x="158" y="339"/>
      <point x="158" y="300" type="curve" smooth="yes"/>
      <point x="158" y="209"/>
      <point x="191" y="90"/>
      <point x="258" y="61" type="curve"/>
      <point x="278" y="118"/>
      <point x="316" y="226"/>
      <point x="334" y="296" type="curve" smooth="yes"/>
      <point x="340" y="321"/>
      <point x="355" y="328"/>
      <point x="371" y="328" type="curve" smooth="yes"/>
      <point x="395" y="328"/>
      <point x="420" y="306"/>
      <point x="420" y="306" type="curve" smooth="yes"/>
      <point x="466" y="253"/>
      <point x="517" y="184"/>
      <point x="562" y="130" type="curve"/>
      <point x="561" y="263"/>
      <point x="559" y="489"/>
      <point x="559" y="585" type="curve" smooth="yes"/>
      <point x="559" y="631"/>
      <point x="560" y="754"/>
      <point x="569" y="809" type="curve" smooth="yes"/>
      <point x="572" y="827"/>
      <point x="596" y="843"/>
    </contour>
  </outline>
</glyph>
<glyph name="uni0E1E" format="1">
  <advance width="750"/>
  <unicode hex="0E1E"/>
  <outline>
    <contour>
      <point x="623" y="614" type="curve" smooth="yes"/>
      <point x="625" y="614"/>
      <point x="626" y="614"/>
      <point x="627" y="614" type="curve" smooth="yes"/>
      <point x="649" y="614"/>
      <point x="666" y="601"/>
      <point x="666" y="585" type="curve" smooth="yes"/>
      <point x="666" y="584"/>
      <point x="666" y="584"/>
      <point x="666" y="583" type="curve" smooth="yes"/>
      <point x="650" y="392"/>
      <point x="652" y="49"/>
      <point x="640" y="20" type="curve" smooth="yes"/>
      <point x="640" y="20"/>
      <point x="615" y="-14"/>
      <point x="587" y="-14" type="curve" smooth="yes"/>
      <point x="576" y="-14"/>
      <point x="564" y="-9"/>
      <point x="553" y="7" type="curve" smooth="yes"/>
      <point x="520" y="56"/>
      <point x="424" y="291"/>
      <point x="364" y="420" type="curve"/>
      <point x="315" y="299"/>
      <point x="240" y="96"/>
      <point x="202" y="23" type="curve" smooth="yes"/>
      <point x="198" y="16"/>
      <point x="195" y="10"/>
      <point x="192" y="5" type="curve" smooth="yes"/>
      <point x="192" y="5"/>
      <point x="156" y="-12"/>
      <point x="130" y="-12" type="curve" smooth="yes"/>
      <point x="115" y="-12"/>
      <point x="104" y="-7"/>
      <point x="104" y="10" type="curve" smooth="yes"/>
      <point x="104" y="295"/>
      <point x="72" y="538"/>
      <point x="60" y="566" type="curve" smooth="yes"/>
      <point x="59" y="569"/>
      <point x="58" y="572"/>
      <point x="58" y="575" type="curve" smooth="yes"/>
      <point x="58" y="590"/>
      <point x="72" y="604"/>
      <point x="92" y="611" type="curve" smooth="yes"/>
      <point x="98" y="613"/>
      <point x="105" y="614"/>
      <point x="111" y="614" type="curve" smooth="yes"/>
      <point x="129" y="614"/>
      <point x="145" y="606"/>
      <point x="150" y="594" type="curve" smooth="yes"/>
      <point x="166" y="556"/>
      <point x="183" y="389"/>
      <point x="192" y="189" type="curve"/>
      <point x="247" y="322"/>
      <point x="305" y="493"/>
      <point x="321" y="519" type="curve" smooth="yes"/>
      <point x="335" y="543"/>
      <point x="350" y="550"/>
      <point x="363" y="550" type="curve" smooth="yes"/>
      <point x="386" y="550"/>
      <point x="405" y="528"/>
      <point x="405" y="528" type="curve" smooth="yes"/>
      <point x="422" y="503"/>
      <point x="493" y="321"/>
      <point x="556" y="185" type="curve"/>
      <point x="560" y="302"/>
      <point x="565" y="475"/>
      <point x="574" y="577" type="curve" smooth="yes"/>
      <point x="576" y="595"/>
      <point x="598" y="612"/>
    </contour>
  </outline>
</glyph>
<glyph name="uni0E1F" format="1">
  <advance width="760"/>
  <unicode hex="0E1F"/>
  <outline>
    <contour>
      <point x="420" y="0" type="move" name="ThaiAbove.left.mark"/>
    </contour>
    <contour>
      <point x="656" y="844" type="curve" smooth="yes"/>
      <point x="679" y="844"/>
      <point x="697" y="831"/>
      <point x="697" y="815" type="curve" smooth="yes"/>
      <point x="697" y="813"/>
      <point x="696" y="812"/>
      <point x="696" y="810" type="curve" smooth="yes"/>
      <point x="660" y="623"/>
      <point x="662" y="49"/>
      <point x="650" y="20" type="curve" smooth="yes"/>
      <point x="650" y="20"/>
      <point x="625" y="-14"/>
      <point x="597" y="-14" type="curve" smooth="yes"/>
      <point x="586" y="-14"/>
      <point x="574" y="-9"/>
      <point x="563" y="7" type="curve" smooth="yes"/>
      <point x="531" y="56"/>
      <point x="430" y="291"/>
      <point x="369" y="420" type="curve"/>
      <point x="318" y="299"/>
      <point x="241" y="96"/>
      <point x="202" y="23" type="curve" smooth="yes"/>
      <point x="198" y="16"/>
      <point x="195" y="10"/>
      <point x="192" y="5" type="curve" smooth="yes"/>
      <point x="192" y="5"/>
      <point x="156" y="-12"/>
      <point x="130" y="-12" type="curve" smooth="yes"/>
      <point x="115" y="-12"/>
      <point x="104" y="-7"/>
      <point x="104" y="10" type="curve" smooth="yes"/>
      <point x="104" y="295"/>
      <point x="72" y="538"/>
      <point x="60" y="566" type="curve" smooth="yes"/>
      <point x="59" y="569"/>
      <point x="58" y="572"/>
      <point x="58" y="575" type="curve" smooth="yes"/>
      <point x="58" y="590"/>
      <point x="72" y="604"/>
      <point x="92" y="611" type="curve" smooth="yes"/>
      <point x="98" y="613"/>
      <point x="105" y="614"/>
      <point x="111" y="614" type="curve" smooth="yes"/>
      <point x="129" y="614"/>
      <point x="145" y="606"/>
      <point x="150" y="594" type="curve" smooth="yes"/>
      <point x="166" y="556"/>
      <point x="183" y="390"/>
      <point x="192" y="188" type="curve"/>
      <point x="249" y="322"/>
      <point x="310" y="493"/>
      <point x="326" y="519" type="curve" smooth="yes"/>
      <point x="340" y="543"/>
      <point x="355" y="550"/>
      <point x="368" y="550" type="curve" smooth="yes"/>
      <point x="391" y="550"/>
      <point x="410" y="528"/>
      <point x="410" y="528" type="curve" smooth="yes"/>
      <point x="427" y="503"/>
      <point x="500" y="322"/>
      <point x="565" y="186" type="curve"/>
      <point x="570" y="378"/>
      <point x="580" y="684"/>
      <point x="604" y="810" type="curve" smooth="yes"/>
      <point x="608" y="828"/>
      <point x="631" y="844"/>
    </contour>
  </outline>
</glyph>
